<ttFont>
    <TTGlyph name=".notdef" xMin="68" yMin="0" xMax="612" yMax="1365">
      <contour>
        <pt x="68" y="0" on="1"/>
        <pt x="68" y="1365" on="1"/>
        <pt x="612" y="1365" on="1"/>
        <pt x="612" y="0" on="1"/>
      </contour>
      <contour>
        <pt x="136" y="68" on="1"/>
        <pt x="544" y="68" on="1"/>
        <pt x="544" y="1297" on="1"/>
        <pt x="136" y="1297" on="1"/>
      </contour>
    </TTGlyph>
    <TTGlyph name="A" xMin="57" yMin="0" xMax="1720" yMax="1536">
      <contour>
        <pt x="1151" y="0" on="1"/>
        <pt x="1097" y="258" on="1"/>
        <pt x="679" y="258" on="1"/>
        <pt x="626" y="0" on="1"/>
        <pt x="57" y="0" on="1"/>
        <pt x="57" y="504" on="1"/>
        <pt x="180" y="529" on="1"/>
        <pt x="475" y="1536" on="1"/>
        <pt x="1301" y="1536" on="1"/>
        <pt x="1597" y="529" on="1"/>
        <pt x="1720" y="504" on="1"/>
        <pt x="1720" y="0" on="1"/>
      </contour>
      <contour>
        <pt x="765" y="601" on="1"/>
        <pt x="1011" y="601" on="1"/>
        <pt x="888" y="1180" on="1"/>
      </contour>
    </TTGlyph>
    <TTGlyph name="AE" xMin="-38" yMin="0" xMax="2245" yMax="1536">
      <contour>
        <pt x="1656" y="384" on="1"/>
        <pt x="1727" y="384" on="0"/>
        <pt x="1852" y="407" on="0"/>
        <pt x="1958" y="443" on="0"/>
        <pt x="2045" y="489" on="0"/>
        <pt x="2078" y="512" on="1"/>
        <pt x="2245" y="512" on="1"/>
        <pt x="2245" y="0" on="1"/>
        <pt x="1056" y="0" on="1"/>
        <pt x="1077" y="258" on="1"/>
        <pt x="659" y="258" on="1"/>
        <pt x="531" y="0" on="1"/>
        <pt x="-38" y="0" on="1"/>
        <pt x="109" y="504" on="1"/>
        <pt x="239" y="529" on="1"/>
        <pt x="830" y="1536" on="1"/>
        <pt x="2245" y="1536" on="1"/>
        <pt x="2245" y="1024" on="1"/>
        <pt x="2084" y="1024" on="1"/>
        <pt x="2051" y="1046" on="0"/>
        <pt x="1962" y="1092" on="0"/>
        <pt x="1853" y="1129" on="0"/>
        <pt x="1726" y="1152" on="0"/>
        <pt x="1656" y="1152" on="1"/>
        <pt x="1656" y="879" on="1"/>
        <pt x="1956" y="944" on="1"/>
        <pt x="1956" y="590" on="1"/>
        <pt x="1656" y="655" on="1"/>
      </contour>
      <contour>
        <pt x="846" y="601" on="1"/>
        <pt x="1092" y="601" on="1"/>
        <pt x="1138" y="1180" on="1"/>
      </contour>
    </TTGlyph>
    <TTGlyph name="Aacute" xMin="57" yMin="0" xMax="1720" yMax="2321">
      <component glyphName="acute" x="636" y="17" flags="0x1004"/>
      <component glyphName="A" x="0" y="0" flags="0x1204"/>
    </TTGlyph>
    <TTGlyph name="Abreve" xMin="57" yMin="0" xMax="1720" yMax="2126">
      <component glyphName="breve" x="421" y="146" flags="0x1004"/>
      <component glyphName="A" x="0" y="0" flags="0x1204"/>
    </TTGlyph>
    <TTGlyph name="Acircumflex" xMin="57" yMin="0" xMax="1720" yMax="2320">
      <component glyphName="circumflex" x="250" y="17" flags="0x1004"/>
      <component glyphName="A" x="0" y="0" flags="0x1204"/>
    </TTGlyph>
    <TTGlyph name="Adieresis" xMin="57" yMin="0" xMax="1720" yMax="2065">
      <component glyphName="dieresis" x="208" y="17" flags="0x1004"/>
      <component glyphName="A" x="0" y="0" flags="0x1204"/>
    </TTGlyph>
    <TTGlyph name="Agrave" xMin="57" yMin="0" xMax="1720" yMax="2321">
      <component glyphName="grave" x="240" y="17" flags="0x1004"/>
      <component glyphName="A" x="0" y="0" flags="0x1204"/>
    </TTGlyph>
    <TTGlyph name="Aogonek" xMin="57" yMin="-866" xMax="1720" yMax="1536">
      <component glyphName="ogonek" x="574" y="10" flags="0x1004"/>
      <component glyphName="A" x="0" y="0" flags="0x1004"/>
    </TTGlyph>
    <TTGlyph name="Aring" xMin="57" yMin="0" xMax="1720" yMax="2369">
      <component glyphName="ring" x="419" y="57" flags="0x1004"/>
      <component glyphName="A" x="0" y="0" flags="0x1204"/>
    </TTGlyph>
    <TTGlyph name="Atilde" xMin="57" yMin="0" xMax="1720" yMax="2188">
      <component glyphName="tilde" x="361" y="152" flags="0x1004"/>
      <component glyphName="A" x="0" y="0" flags="0x1204"/>
    </TTGlyph>
    <TTGlyph name="B" xMin="79" yMin="0" xMax="1786" yMax="1536">
      <contour>
        <pt x="1371" y="1536" on="1"/>
        <pt x="1529" y="1498" on="0"/>
        <pt x="1684" y="1324" on="0"/>
        <pt x="1684" y="1177" on="1"/>
        <pt x="1684" y="1079" on="0"/>
        <pt x="1642" y="946" on="0"/>
        <pt x="1578" y="859" on="0"/>
        <pt x="1503" y="812" on="0"/>
        <pt x="1439" y="790" on="0"/>
        <pt x="1394" y="786" on="0"/>
        <pt x="1393" y="786" on="1"/>
        <pt x="1432" y="784" on="0"/>
        <pt x="1521" y="770" on="0"/>
        <pt x="1609" y="740" on="0"/>
        <pt x="1689" y="692" on="0"/>
        <pt x="1750" y="621" on="0"/>
        <pt x="1786" y="523" on="0"/>
        <pt x="1786" y="459" on="1"/>
        <pt x="1786" y="361" on="0"/>
        <pt x="1737" y="193" on="0"/>
        <pt x="1614" y="70" on="0"/>
        <pt x="1402" y="0" on="0"/>
        <pt x="1240" y="0" on="1"/>
        <pt x="79" y="0" on="1"/>
        <pt x="79" y="434" on="1"/>
        <pt x="207" y="459" on="1"/>
        <pt x="207" y="1114" on="1"/>
        <pt x="79" y="1139" on="1"/>
        <pt x="79" y="1536" on="1"/>
      </contour>
      <contour>
        <pt x="1146" y="1044" on="1"/>
        <pt x="1146" y="1095" on="0"/>
        <pt x="1111" y="1150" on="0"/>
        <pt x="1053" y="1176" on="0"/>
        <pt x="979" y="1180" on="0"/>
        <pt x="941" y="1180" on="1"/>
        <pt x="847" y="1180" on="1"/>
        <pt x="847" y="893" on="1"/>
        <pt x="941" y="893" on="1"/>
        <pt x="979" y="893" on="0"/>
        <pt x="1053" y="898" on="0"/>
        <pt x="1111" y="926" on="0"/>
        <pt x="1146" y="987" on="0"/>
      </contour>
      <contour>
        <pt x="1146" y="545" on="1"/>
        <pt x="1146" y="596" on="0"/>
        <pt x="1111" y="650" on="0"/>
        <pt x="1053" y="676" on="0"/>
        <pt x="979" y="680" on="0"/>
        <pt x="941" y="680" on="1"/>
        <pt x="847" y="680" on="1"/>
        <pt x="847" y="393" on="1"/>
        <pt x="941" y="393" on="1"/>
        <pt x="979" y="393" on="0"/>
        <pt x="1053" y="398" on="0"/>
        <pt x="1111" y="426" on="0"/>
        <pt x="1146" y="488" on="0"/>
      </contour>
    </TTGlyph>
    <TTGlyph name="C" xMin="65" yMin="-18" xMax="1542" yMax="1559">
      <contour>
        <pt x="706" y="786" on="1"/>
        <pt x="706" y="700" on="0"/>
        <pt x="750" y="576" on="0"/>
        <pt x="835" y="496" on="0"/>
        <pt x="958" y="458" on="0"/>
        <pt x="1037" y="458" on="1"/>
        <pt x="1131" y="458" on="0"/>
        <pt x="1387" y="504" on="0"/>
        <pt x="1542" y="552" on="1"/>
        <pt x="1542" y="84" on="1"/>
        <pt x="1381" y="30" on="0"/>
        <pt x="1076" y="-18" on="0"/>
        <pt x="928" y="-18" on="1"/>
        <pt x="747" y="-18" on="0"/>
        <pt x="432" y="72" on="0"/>
        <pt x="199" y="273" on="0"/>
        <pt x="65" y="579" on="0"/>
        <pt x="65" y="786" on="1"/>
        <pt x="65" y="988" on="0"/>
        <pt x="188" y="1280" on="0"/>
        <pt x="413" y="1469" on="0"/>
        <pt x="728" y="1559" on="0"/>
        <pt x="920" y="1559" on="1"/>
        <pt x="1038" y="1559" on="0"/>
        <pt x="1227" y="1535" on="0"/>
        <pt x="1379" y="1499" on="0"/>
        <pt x="1496" y="1454" on="0"/>
        <pt x="1542" y="1433" on="1"/>
        <pt x="1542" y="973" on="1"/>
        <pt x="1241" y="973" on="1"/>
        <pt x="1190" y="1045" on="0"/>
        <pt x="1065" y="1113" on="0"/>
        <pt x="999" y="1113" on="1"/>
        <pt x="943" y="1113" on="0"/>
        <pt x="838" y="1069" on="0"/>
        <pt x="756" y="985" on="0"/>
        <pt x="706" y="864" on="0"/>
      </contour>
    </TTGlyph>
    <TTGlyph name="Cacute" xMin="65" yMin="-18" xMax="1542" yMax="2321">
      <component glyphName="acute" x="668" y="17" flags="0x1004"/>
      <component glyphName="C" x="0" y="0" flags="0x1204"/>
    </TTGlyph>
    <TTGlyph name="Ccaron" xMin="65" yMin="-18" xMax="1542" yMax="2320">
      <component glyphName="caron" x="282" y="17" flags="0x1004"/>
      <component glyphName="C" x="0" y="0" flags="0x1204"/>
    </TTGlyph>
    <TTGlyph name="Ccedilla" xMin="65" yMin="-885" xMax="1542" yMax="1559">
      <component glyphName="cedilla" x="724" y="-116" flags="0x1004"/>
      <component glyphName="C" x="0" y="0" flags="0x1204"/>
    </TTGlyph>
    <TTGlyph name="D" xMin="99" yMin="0" xMax="1891" yMax="1536">
      <contour>
        <pt x="1264" y="1536" on="1"/>
        <pt x="1409" y="1505" on="0"/>
        <pt x="1641" y="1388" on="0"/>
        <pt x="1804" y="1206" on="0"/>
        <pt x="1891" y="953" on="0"/>
        <pt x="1891" y="786" on="1"/>
        <pt x="1891" y="565" on="0"/>
        <pt x="1743" y="264" on="0"/>
        <pt x="1474" y="80" on="0"/>
        <pt x="1096" y="0" on="0"/>
        <pt x="867" y="0" on="1"/>
        <pt x="99" y="0" on="1"/>
        <pt x="99" y="434" on="1"/>
        <pt x="227" y="459" on="1"/>
        <pt x="227" y="1114" on="1"/>
        <pt x="99" y="1139" on="1"/>
        <pt x="99" y="1536" on="1"/>
      </contour>
      <contour>
        <pt x="965" y="459" on="1"/>
        <pt x="1072" y="459" on="0"/>
        <pt x="1188" y="506" on="0"/>
        <pt x="1241" y="592" on="0"/>
        <pt x="1250" y="712" on="0"/>
        <pt x="1250" y="786" on="1"/>
        <pt x="1250" y="860" on="0"/>
        <pt x="1241" y="981" on="0"/>
        <pt x="1188" y="1067" on="0"/>
        <pt x="1072" y="1114" on="0"/>
        <pt x="965" y="1114" on="1"/>
        <pt x="867" y="1114" on="1"/>
        <pt x="867" y="459" on="1"/>
      </contour>
    </TTGlyph>
    <TTGlyph name="Dcaron" xMin="99" yMin="0" xMax="1891" yMax="2320">
      <component glyphName="caron" x="358" y="17" flags="0x1004"/>
      <component glyphName="D" x="0" y="0" flags="0x1204"/>
    </TTGlyph>
    <TTGlyph name="Dcroat" xMin="100" yMin="0" xMax="1892" yMax="1536">
      <contour>
        <pt x="1265" y="1536" on="1"/>
        <pt x="1410" y="1505" on="0"/>
        <pt x="1642" y="1388" on="0"/>
        <pt x="1805" y="1206" on="0"/>
        <pt x="1892" y="953" on="0"/>
        <pt x="1892" y="786" on="1"/>
        <pt x="1892" y="565" on="0"/>
        <pt x="1744" y="264" on="0"/>
        <pt x="1475" y="80" on="0"/>
        <pt x="1097" y="0" on="0"/>
        <pt x="868" y="0" on="1"/>
        <pt x="100" y="0" on="1"/>
        <pt x="100" y="434" on="1"/>
        <pt x="228" y="459" on="1"/>
        <pt x="228" y="656" on="1"/>
        <pt x="100" y="656" on="1"/>
        <pt x="100" y="913" on="1"/>
        <pt x="228" y="913" on="1"/>
        <pt x="228" y="1114" on="1"/>
        <pt x="100" y="1139" on="1"/>
        <pt x="100" y="1536" on="1"/>
      </contour>
      <contour>
        <pt x="966" y="459" on="1"/>
        <pt x="1073" y="459" on="0"/>
        <pt x="1189" y="506" on="0"/>
        <pt x="1242" y="592" on="0"/>
        <pt x="1251" y="712" on="0"/>
        <pt x="1251" y="786" on="1"/>
        <pt x="1251" y="860" on="0"/>
        <pt x="1242" y="981" on="0"/>
        <pt x="1189" y="1067" on="0"/>
        <pt x="1073" y="1114" on="0"/>
        <pt x="966" y="1114" on="1"/>
        <pt x="868" y="1114" on="1"/>
        <pt x="868" y="913" on="1"/>
        <pt x="1004" y="913" on="1"/>
        <pt x="1004" y="656" on="1"/>
        <pt x="868" y="656" on="1"/>
        <pt x="868" y="459" on="1"/>
      </contour>
    </TTGlyph>
    <TTGlyph name="Delta" xMin="61" yMin="0" xMax="1393" yMax="1171">
      <contour>
        <pt x="1393" y="0" on="1"/>
        <pt x="61" y="0" on="1"/>
        <pt x="347" y="1171" on="1"/>
        <pt x="1093" y="1171" on="1"/>
      </contour>
      <contour>
        <pt x="590" y="216" on="1"/>
        <pt x="861" y="216" on="1"/>
        <pt x="725" y="869" on="1"/>
      </contour>
    </TTGlyph>
    <TTGlyph name="E" xMin="102" yMin="0" xMax="1439" yMax="1536">
      <contour>
        <pt x="870" y="384" on="1"/>
        <pt x="938" y="384" on="0"/>
        <pt x="1058" y="407" on="0"/>
        <pt x="1159" y="443" on="0"/>
        <pt x="1241" y="489" on="0"/>
        <pt x="1272" y="512" on="1"/>
        <pt x="1439" y="512" on="1"/>
        <pt x="1439" y="0" on="1"/>
        <pt x="102" y="0" on="1"/>
        <pt x="102" y="434" on="1"/>
        <pt x="230" y="459" on="1"/>
        <pt x="230" y="1075" on="1"/>
        <pt x="102" y="1100" on="1"/>
        <pt x="102" y="1536" on="1"/>
        <pt x="1439" y="1536" on="1"/>
        <pt x="1439" y="1024" on="1"/>
        <pt x="1278" y="1024" on="1"/>
        <pt x="1246" y="1046" on="0"/>
        <pt x="1162" y="1092" on="0"/>
        <pt x="1059" y="1129" on="0"/>
        <pt x="939" y="1152" on="0"/>
        <pt x="870" y="1152" on="1"/>
        <pt x="870" y="879" on="1"/>
        <pt x="1170" y="944" on="1"/>
        <pt x="1170" y="590" on="1"/>
        <pt x="870" y="655" on="1"/>
      </contour>
    </TTGlyph>
    <TTGlyph name="Eacute" xMin="102" yMin="0" xMax="1439" yMax="2321">
      <component glyphName="acute" x="518" y="17" flags="0x1004"/>
      <component glyphName="E" x="0" y="0" flags="0x1204"/>
    </TTGlyph>
    <TTGlyph name="Ecaron" xMin="102" yMin="0" xMax="1439" yMax="2320">
      <component glyphName="caron" x="133" y="17" flags="0x1004"/>
      <component glyphName="E" x="0" y="0" flags="0x1204"/>
    </TTGlyph>
    <TTGlyph name="Ecircumflex" xMin="102" yMin="0" xMax="1439" yMax="2320">
      <component glyphName="circumflex" x="133" y="17" flags="0x1004"/>
      <component glyphName="E" x="0" y="0" flags="0x1204"/>
    </TTGlyph>
    <TTGlyph name="Edieresis" xMin="102" yMin="0" xMax="1439" yMax="2065">
      <component glyphName="dieresis" x="91" y="17" flags="0x1004"/>
      <component glyphName="E" x="0" y="0" flags="0x1204"/>
    </TTGlyph>
    <TTGlyph name="Egrave" xMin="102" yMin="0" xMax="1439" yMax="2321">
      <component glyphName="grave" x="123" y="17" flags="0x1004"/>
      <component glyphName="E" x="0" y="0" flags="0x1204"/>
    </TTGlyph>
    <TTGlyph name="Eogonek" xMin="102" yMin="-866" xMax="1439" yMax="1536">
      <component glyphName="ogonek" x="456" y="10" flags="0x1004"/>
      <component glyphName="E" x="0" y="0" flags="0x1004"/>
    </TTGlyph>
    <TTGlyph name="Eth" xMin="100" yMin="0" xMax="1892" yMax="1536">
      <contour>
        <pt x="104" y="896" on="1"/>
        <pt x="228" y="896" on="1"/>
        <pt x="228" y="1114" on="1"/>
        <pt x="100" y="1139" on="1"/>
        <pt x="100" y="1536" on="1"/>
        <pt x="1265" y="1536" on="1"/>
        <pt x="1410" y="1505" on="0"/>
        <pt x="1642" y="1388" on="0"/>
        <pt x="1805" y="1206" on="0"/>
        <pt x="1892" y="953" on="0"/>
        <pt x="1892" y="786" on="1"/>
        <pt x="1892" y="565" on="0"/>
        <pt x="1744" y="264" on="0"/>
        <pt x="1475" y="80" on="0"/>
        <pt x="1097" y="0" on="0"/>
        <pt x="868" y="0" on="1"/>
        <pt x="100" y="0" on="1"/>
        <pt x="100" y="434" on="1"/>
        <pt x="228" y="459" on="1"/>
        <pt x="228" y="640" on="1"/>
        <pt x="104" y="640" on="1"/>
      </contour>
      <contour>
        <pt x="966" y="459" on="1"/>
        <pt x="1073" y="459" on="0"/>
        <pt x="1189" y="506" on="0"/>
        <pt x="1242" y="592" on="0"/>
        <pt x="1251" y="712" on="0"/>
        <pt x="1251" y="786" on="1"/>
        <pt x="1251" y="860" on="0"/>
        <pt x="1242" y="981" on="0"/>
        <pt x="1189" y="1067" on="0"/>
        <pt x="1073" y="1114" on="0"/>
        <pt x="966" y="1114" on="1"/>
        <pt x="868" y="1114" on="1"/>
        <pt x="868" y="896" on="1"/>
        <pt x="1000" y="896" on="1"/>
        <pt x="1000" y="640" on="1"/>
        <pt x="868" y="640" on="1"/>
        <pt x="868" y="459" on="1"/>
      </contour>
    </TTGlyph>
    <TTGlyph name="Euro" xMin="57" yMin="-40" xMax="1570" yMax="1576">
      <contour>
        <pt x="192" y="1001" on="1"/>
        <pt x="220" y="1150" on="0"/>
        <pt x="355" y="1367" on="0"/>
        <pt x="557" y="1508" on="0"/>
        <pt x="821" y="1576" on="0"/>
        <pt x="978" y="1576" on="1"/>
        <pt x="1117" y="1576" on="0"/>
        <pt x="1326" y="1536" on="0"/>
        <pt x="1404" y="1513" on="1"/>
        <pt x="1496" y="1485" on="0"/>
        <pt x="1570" y="1450" on="1"/>
        <pt x="1570" y="973" on="1"/>
        <pt x="1289" y="973" on="1"/>
        <pt x="1241" y="1061" on="0"/>
        <pt x="1120" y="1143" on="0"/>
        <pt x="1057" y="1143" on="1"/>
        <pt x="988" y="1143" on="0"/>
        <pt x="861" y="1070" on="0"/>
        <pt x="819" y="1001" on="1"/>
        <pt x="1057" y="1001" on="1"/>
        <pt x="1057" y="835" on="1"/>
        <pt x="766" y="835" on="1"/>
        <pt x="765" y="823" on="0"/>
        <pt x="764" y="799" on="0"/>
        <pt x="764" y="786" on="1"/>
        <pt x="764" y="773" on="0"/>
        <pt x="765" y="748" on="0"/>
        <pt x="766" y="737" on="1"/>
        <pt x="1057" y="737" on="1"/>
        <pt x="1057" y="571" on="1"/>
        <pt x="811" y="571" on="1"/>
        <pt x="851" y="499" on="0"/>
        <pt x="993" y="435" on="0"/>
        <pt x="1095" y="435" on="1"/>
        <pt x="1183" y="435" on="0"/>
        <pt x="1425" y="492" on="0"/>
        <pt x="1570" y="552" on="1"/>
        <pt x="1570" y="71" on="1"/>
        <pt x="1417" y="17" on="0"/>
        <pt x="1126" y="-40" on="0"/>
        <pt x="986" y="-40" on="1"/>
        <pt x="839" y="-40" on="0"/>
        <pt x="576" y="34" on="0"/>
        <pt x="367" y="186" on="0"/>
        <pt x="222" y="415" on="0"/>
        <pt x="192" y="571" on="1"/>
        <pt x="57" y="571" on="1"/>
        <pt x="57" y="737" on="1"/>
        <pt x="174" y="737" on="1"/>
        <pt x="173" y="749" on="0"/>
        <pt x="173" y="773" on="0"/>
        <pt x="173" y="786" on="1"/>
        <pt x="173" y="798" on="0"/>
        <pt x="173" y="823" on="0"/>
        <pt x="174" y="835" on="1"/>
        <pt x="57" y="835" on="1"/>
        <pt x="57" y="1001" on="1"/>
      </contour>
    </TTGlyph>
    <TTGlyph name="F" xMin="102" yMin="0" xMax="1339" yMax="1536">
      <contour>
        <pt x="870" y="879" on="1"/>
        <pt x="1142" y="944" on="1"/>
        <pt x="1142" y="590" on="1"/>
        <pt x="870" y="655" on="1"/>
        <pt x="870" y="459" on="1"/>
        <pt x="998" y="430" on="1"/>
        <pt x="998" y="0" on="1"/>
        <pt x="102" y="0" on="1"/>
        <pt x="102" y="434" on="1"/>
        <pt x="230" y="459" on="1"/>
        <pt x="230" y="1075" on="1"/>
        <pt x="102" y="1100" on="1"/>
        <pt x="102" y="1536" on="1"/>
        <pt x="1339" y="1536" on="1"/>
        <pt x="1339" y="1024" on="1"/>
        <pt x="1171" y="1024" on="1"/>
        <pt x="1147" y="1046" on="0"/>
        <pt x="1086" y="1092" on="0"/>
        <pt x="1011" y="1129" on="0"/>
        <pt x="922" y="1152" on="0"/>
        <pt x="870" y="1152" on="1"/>
      </contour>
    </TTGlyph>
    <TTGlyph name="G" xMin="65" yMin="-18" xMax="1584" yMax="1559">
      <contour>
        <pt x="65" y="786" on="1"/>
        <pt x="65" y="995" on="0"/>
        <pt x="186" y="1283" on="0"/>
        <pt x="298" y="1375" on="1"/>
        <pt x="405" y="1463" on="0"/>
        <pt x="693" y="1559" on="0"/>
        <pt x="880" y="1559" on="1"/>
        <pt x="1009" y="1559" on="0"/>
        <pt x="1209" y="1537" on="0"/>
        <pt x="1366" y="1501" on="0"/>
        <pt x="1489" y="1455" on="0"/>
        <pt x="1542" y="1430" on="1"/>
        <pt x="1542" y="973" on="1"/>
        <pt x="1241" y="973" on="1"/>
        <pt x="1190" y="1045" on="0"/>
        <pt x="1065" y="1113" on="0"/>
        <pt x="999" y="1113" on="1"/>
        <pt x="943" y="1113" on="0"/>
        <pt x="838" y="1069" on="0"/>
        <pt x="756" y="985" on="0"/>
        <pt x="706" y="864" on="0"/>
        <pt x="706" y="786" on="1"/>
        <pt x="706" y="613" on="0"/>
        <pt x="863" y="453" on="0"/>
        <pt x="1008" y="453" on="1"/>
        <pt x="1044" y="453" on="0"/>
        <pt x="1117" y="461" on="0"/>
        <pt x="1154" y="469" on="1"/>
        <pt x="1154" y="590" on="1"/>
        <pt x="962" y="590" on="1"/>
        <pt x="962" y="864" on="1"/>
        <pt x="1584" y="864" on="1"/>
        <pt x="1584" y="134" on="1"/>
        <pt x="1505" y="101" on="0"/>
        <pt x="1328" y="42" on="0"/>
        <pt x="1151" y="-1" on="0"/>
        <pt x="981" y="-18" on="0"/>
        <pt x="909" y="-18" on="1"/>
        <pt x="791" y="-18" on="0"/>
        <pt x="575" y="16" on="0"/>
        <pt x="388" y="104" on="0"/>
        <pt x="234" y="237" on="0"/>
        <pt x="125" y="418" on="0"/>
        <pt x="65" y="647" on="0"/>
      </contour>
    </TTGlyph>
    <TTGlyph name="Gbreve" xMin="65" yMin="-18" xMax="1584" yMax="2126">
      <component glyphName="breve" x="413" y="146" flags="0x1004"/>
      <component glyphName="G" x="0" y="0" flags="0x1204"/>
    </TTGlyph>
    <TTGlyph name="H" xMin="102" yMin="0" xMax="2150" yMax="1536">
      <contour>
        <pt x="102" y="1536" on="1"/>
        <pt x="998" y="1536" on="1"/>
        <pt x="998" y="1100" on="1"/>
        <pt x="870" y="1075" on="1"/>
        <pt x="870" y="886" on="1"/>
        <pt x="1382" y="886" on="1"/>
        <pt x="1382" y="1075" on="1"/>
        <pt x="1254" y="1100" on="1"/>
        <pt x="1254" y="1536" on="1"/>
        <pt x="2150" y="1536" on="1"/>
        <pt x="2150" y="1100" on="1"/>
        <pt x="2022" y="1075" on="1"/>
        <pt x="2022" y="459" on="1"/>
        <pt x="2150" y="434" on="1"/>
        <pt x="2150" y="0" on="1"/>
        <pt x="1254" y="0" on="1"/>
        <pt x="1254" y="434" on="1"/>
        <pt x="1382" y="459" on="1"/>
        <pt x="1382" y="660" on="1"/>
        <pt x="870" y="660" on="1"/>
        <pt x="870" y="459" on="1"/>
        <pt x="998" y="434" on="1"/>
        <pt x="998" y="0" on="1"/>
        <pt x="102" y="0" on="1"/>
        <pt x="102" y="434" on="1"/>
        <pt x="230" y="459" on="1"/>
        <pt x="230" y="1075" on="1"/>
        <pt x="102" y="1100" on="1"/>
      </contour>
    </TTGlyph>
    <TTGlyph name="I" xMin="102" yMin="0" xMax="998" yMax="1536">
      <contour>
        <pt x="102" y="1536" on="1"/>
        <pt x="998" y="1536" on="1"/>
        <pt x="998" y="1102" on="1"/>
        <pt x="870" y="1077" on="1"/>
        <pt x="870" y="459" on="1"/>
        <pt x="998" y="434" on="1"/>
        <pt x="998" y="0" on="1"/>
        <pt x="102" y="0" on="1"/>
        <pt x="102" y="434" on="1"/>
        <pt x="230" y="459" on="1"/>
        <pt x="230" y="1077" on="1"/>
        <pt x="102" y="1102" on="1"/>
      </contour>
    </TTGlyph>
    <TTGlyph name="Iacute" xMin="102" yMin="0" xMax="1167" yMax="2321">
      <component glyphName="acute" x="298" y="17" flags="0x1004"/>
      <component glyphName="I" x="0" y="0" flags="0x1204"/>
    </TTGlyph>
    <TTGlyph name="Icircumflex" xMin="-35" yMin="0" xMax="1134" yMax="2320">
      <component glyphName="circumflex" x="-88" y="17" flags="0x1004"/>
      <component glyphName="I" x="0" y="0" flags="0x1204"/>
    </TTGlyph>
    <TTGlyph name="Idieresis" xMin="-35" yMin="0" xMax="1134" yMax="2065">
      <component glyphName="dieresis" x="-130" y="17" flags="0x1004"/>
      <component glyphName="I" x="0" y="0" flags="0x1204"/>
    </TTGlyph>
    <TTGlyph name="Idotaccent" xMin="102" yMin="0" xMax="998" yMax="2193">
      <component glyphName="dotaccent" x="135" y="17" flags="0x1004"/>
      <component glyphName="I" x="0" y="0" flags="0x1204"/>
    </TTGlyph>
    <TTGlyph name="Igrave" xMin="-67" yMin="0" xMax="998" yMax="2321">
      <component glyphName="grave" x="-98" y="17" flags="0x1004"/>
      <component glyphName="I" x="0" y="0" flags="0x1204"/>
    </TTGlyph>
    <TTGlyph name="J" xMin="31" yMin="-18" xMax="1438" yMax="1536">
      <contour>
        <pt x="1310" y="640" on="1"/>
        <pt x="1310" y="466" on="0"/>
        <pt x="1208" y="215" on="0"/>
        <pt x="1022" y="51" on="0"/>
        <pt x="762" y="-18" on="0"/>
        <pt x="603" y="-18" on="1"/>
        <pt x="465" y="-18" on="0"/>
        <pt x="258" y="12" on="0"/>
        <pt x="183" y="36" on="1"/>
        <pt x="97" y="62" on="0"/>
        <pt x="31" y="99" on="1"/>
        <pt x="31" y="563" on="1"/>
        <pt x="332" y="563" on="1"/>
        <pt x="370" y="491" on="0"/>
        <pt x="473" y="423" on="0"/>
        <pt x="524" y="423" on="1"/>
        <pt x="551" y="423" on="0"/>
        <pt x="604" y="451" on="0"/>
        <pt x="645" y="506" on="0"/>
        <pt x="670" y="587" on="0"/>
        <pt x="670" y="640" on="1"/>
        <pt x="670" y="1077" on="1"/>
        <pt x="542" y="1102" on="1"/>
        <pt x="542" y="1536" on="1"/>
        <pt x="1438" y="1536" on="1"/>
        <pt x="1438" y="1102" on="1"/>
        <pt x="1310" y="1077" on="1"/>
      </contour>
    </TTGlyph>
    <TTGlyph name="K" xMin="102" yMin="0" xMax="1946" yMax="1536">
      <contour>
        <pt x="1946" y="1290" on="1"/>
        <pt x="1898" y="1255" on="0"/>
        <pt x="1806" y="1175" on="0"/>
        <pt x="1722" y="1091" on="0"/>
        <pt x="1647" y="1007" on="0"/>
        <pt x="1616" y="968" on="1"/>
        <pt x="1578" y="922" on="0"/>
        <pt x="1510" y="832" on="0"/>
        <pt x="1479" y="786" on="1"/>
        <pt x="1521" y="728" on="0"/>
        <pt x="1604" y="619" on="0"/>
        <pt x="1646" y="565" on="1"/>
        <pt x="1681" y="520" on="0"/>
        <pt x="1758" y="425" on="0"/>
        <pt x="1836" y="335" on="0"/>
        <pt x="1911" y="256" on="0"/>
        <pt x="1944" y="227" on="1"/>
        <pt x="1945" y="0" on="1"/>
        <pt x="1153" y="0" on="1"/>
        <pt x="870" y="641" on="1"/>
        <pt x="870" y="0" on="1"/>
        <pt x="102" y="0" on="1"/>
        <pt x="102" y="434" on="1"/>
        <pt x="230" y="459" on="1"/>
        <pt x="230" y="1077" on="1"/>
        <pt x="102" y="1102" on="1"/>
        <pt x="102" y="1536" on="1"/>
        <pt x="870" y="1536" on="1"/>
        <pt x="870" y="920" on="1"/>
        <pt x="1153" y="1536" on="1"/>
        <pt x="1945" y="1536" on="1"/>
      </contour>
    </TTGlyph>
    <TTGlyph name="L" xMin="102" yMin="0" xMax="1322" yMax="1536">
      <contour>
        <pt x="870" y="384" on="1"/>
        <pt x="918" y="384" on="0"/>
        <pt x="1002" y="407" on="0"/>
        <pt x="1074" y="443" on="0"/>
        <pt x="1133" y="489" on="0"/>
        <pt x="1155" y="512" on="1"/>
        <pt x="1322" y="512" on="1"/>
        <pt x="1322" y="0" on="1"/>
        <pt x="102" y="0" on="1"/>
        <pt x="102" y="434" on="1"/>
        <pt x="230" y="459" on="1"/>
        <pt x="230" y="1077" on="1"/>
        <pt x="102" y="1102" on="1"/>
        <pt x="102" y="1536" on="1"/>
        <pt x="998" y="1536" on="1"/>
        <pt x="998" y="1102" on="1"/>
        <pt x="870" y="1077" on="1"/>
      </contour>
    </TTGlyph>
    <TTGlyph name="Lacute" xMin="102" yMin="0" xMax="1329" yMax="2321">
      <component glyphName="acute" x="460" y="17" flags="0x1004"/>
      <component glyphName="L" x="0" y="0" flags="0x1204"/>
    </TTGlyph>
    <TTGlyph name="Lcaron" xMin="102" yMin="0" xMax="2145" yMax="1559">
      <component glyphName="comma" x="1401" y="1047" flags="0x1004"/>
      <component glyphName="L" x="0" y="0" flags="0x1004"/>
    </TTGlyph>
    <TTGlyph name="Lslash" xMin="102" yMin="0" xMax="1322" yMax="1536">
      <contour>
        <pt x="870" y="896" on="1"/>
        <pt x="1042" y="896" on="1"/>
        <pt x="1042" y="640" on="1"/>
        <pt x="870" y="640" on="1"/>
        <pt x="870" y="384" on="1"/>
        <pt x="918" y="384" on="0"/>
        <pt x="1002" y="407" on="0"/>
        <pt x="1074" y="443" on="0"/>
        <pt x="1133" y="489" on="0"/>
        <pt x="1155" y="512" on="1"/>
        <pt x="1322" y="512" on="1"/>
        <pt x="1322" y="0" on="1"/>
        <pt x="102" y="0" on="1"/>
        <pt x="102" y="434" on="1"/>
        <pt x="230" y="459" on="1"/>
        <pt x="230" y="640" on="1"/>
        <pt x="102" y="640" on="1"/>
        <pt x="102" y="896" on="1"/>
        <pt x="230" y="896" on="1"/>
        <pt x="230" y="1077" on="1"/>
        <pt x="102" y="1102" on="1"/>
        <pt x="102" y="1536" on="1"/>
        <pt x="998" y="1536" on="1"/>
        <pt x="998" y="1102" on="1"/>
        <pt x="870" y="1077" on="1"/>
      </contour>
    </TTGlyph>
    <TTGlyph name="M" xMin="102" yMin="0" xMax="2278" yMax="1536">
      <contour>
        <pt x="869" y="749" on="1"/>
        <pt x="869" y="0" on="1"/>
        <pt x="102" y="0" on="1"/>
        <pt x="102" y="434" on="1"/>
        <pt x="230" y="459" on="1"/>
        <pt x="230" y="1077" on="1"/>
        <pt x="102" y="1102" on="1"/>
        <pt x="102" y="1536" on="1"/>
        <pt x="869" y="1536" on="1"/>
        <pt x="1191" y="946" on="1"/>
        <pt x="1510" y="1536" on="1"/>
        <pt x="2278" y="1536" on="1"/>
        <pt x="2278" y="1102" on="1"/>
        <pt x="2150" y="1077" on="1"/>
        <pt x="2150" y="459" on="1"/>
        <pt x="2278" y="434" on="1"/>
        <pt x="2278" y="0" on="1"/>
        <pt x="1510" y="0" on="1"/>
        <pt x="1510" y="749" on="1"/>
        <pt x="1191" y="197" on="1"/>
      </contour>
    </TTGlyph>
    <TTGlyph name="N" xMin="102" yMin="0" xMax="1894" yMax="1536">
      <contour>
        <pt x="614" y="749" on="1"/>
        <pt x="614" y="459" on="1"/>
        <pt x="742" y="435" on="1"/>
        <pt x="742" y="0" on="1"/>
        <pt x="102" y="0" on="1"/>
        <pt x="102" y="434" on="1"/>
        <pt x="230" y="459" on="1"/>
        <pt x="230" y="1077" on="1"/>
        <pt x="102" y="1102" on="1"/>
        <pt x="102" y="1536" on="1"/>
        <pt x="870" y="1536" on="1"/>
        <pt x="1382" y="749" on="1"/>
        <pt x="1382" y="1075" on="1"/>
        <pt x="1254" y="1102" on="1"/>
        <pt x="1254" y="1536" on="1"/>
        <pt x="1894" y="1536" on="1"/>
        <pt x="1894" y="1102" on="1"/>
        <pt x="1766" y="1077" on="1"/>
        <pt x="1766" y="459" on="1"/>
        <pt x="1894" y="434" on="1"/>
        <pt x="1894" y="0" on="1"/>
        <pt x="1125" y="0" on="1"/>
      </contour>
    </TTGlyph>
    <TTGlyph name="Nacute" xMin="102" yMin="0" xMax="1894" yMax="2321">
      <component glyphName="acute" x="746" y="17" flags="0x1004"/>
      <component glyphName="N" x="0" y="0" flags="0x1204"/>
    </TTGlyph>
    <TTGlyph name="Ncaron" xMin="102" yMin="0" xMax="1894" yMax="2320">
      <component glyphName="caron" x="360" y="17" flags="0x1004"/>
      <component glyphName="N" x="0" y="0" flags="0x1204"/>
    </TTGlyph>
    <TTGlyph name="Ntilde" xMin="102" yMin="0" xMax="1894" yMax="2188">
      <component glyphName="tilde" x="471" y="152" flags="0x1004"/>
      <component glyphName="N" x="0" y="0" flags="0x1204"/>
    </TTGlyph>
    <TTGlyph name="O" xMin="64" yMin="-18" xMax="1856" yMax="1559">
      <contour>
        <pt x="959" y="-18" on="1"/>
        <pt x="837" y="-18" on="0"/>
        <pt x="610" y="12" on="0"/>
        <pt x="411" y="94" on="0"/>
        <pt x="247" y="223" on="0"/>
        <pt x="129" y="404" on="0"/>
        <pt x="64" y="639" on="0"/>
        <pt x="64" y="786" on="1"/>
        <pt x="64" y="924" on="0"/>
        <pt x="128" y="1146" on="0"/>
        <pt x="244" y="1318" on="0"/>
        <pt x="407" y="1442" on="0"/>
        <pt x="606" y="1521" on="0"/>
        <pt x="835" y="1559" on="0"/>
        <pt x="959" y="1559" on="1"/>
        <pt x="1083" y="1559" on="0"/>
        <pt x="1313" y="1521" on="0"/>
        <pt x="1513" y="1441" on="0"/>
        <pt x="1676" y="1317" on="0"/>
        <pt x="1792" y="1145" on="0"/>
        <pt x="1856" y="924" on="0"/>
        <pt x="1856" y="786" on="1"/>
        <pt x="1856" y="570" on="0"/>
        <pt x="1715" y="261" on="0"/>
        <pt x="1471" y="65" on="0"/>
        <pt x="1145" y="-18" on="0"/>
      </contour>
      <contour>
        <pt x="959" y="1102" on="1"/>
        <pt x="895" y="1102" on="0"/>
        <pt x="808" y="1069" on="0"/>
        <pt x="751" y="1015" on="0"/>
        <pt x="721" y="947" on="0"/>
        <pt x="706" y="877" on="0"/>
        <pt x="704" y="811" on="0"/>
        <pt x="704" y="786" on="1"/>
        <pt x="704" y="761" on="0"/>
        <pt x="706" y="695" on="0"/>
        <pt x="721" y="624" on="0"/>
        <pt x="751" y="554" on="0"/>
        <pt x="808" y="499" on="0"/>
        <pt x="895" y="465" on="0"/>
        <pt x="959" y="465" on="1"/>
        <pt x="1023" y="465" on="0"/>
        <pt x="1110" y="499" on="0"/>
        <pt x="1168" y="554" on="0"/>
        <pt x="1199" y="624" on="0"/>
        <pt x="1213" y="695" on="0"/>
        <pt x="1216" y="761" on="0"/>
        <pt x="1216" y="786" on="1"/>
        <pt x="1216" y="811" on="0"/>
        <pt x="1213" y="877" on="0"/>
        <pt x="1199" y="947" on="0"/>
        <pt x="1168" y="1015" on="0"/>
        <pt x="1110" y="1069" on="0"/>
        <pt x="1023" y="1102" on="0"/>
      </contour>
    </TTGlyph>
    <TTGlyph name="OE" xMin="64" yMin="-40" xMax="2451" yMax="1576">
      <contour>
        <pt x="2445" y="0" on="1"/>
        <pt x="1286" y="0" on="1"/>
        <pt x="1138" y="-40" on="0"/>
        <pt x="959" y="-40" on="1"/>
        <pt x="834" y="-40" on="0"/>
        <pt x="604" y="1" on="0"/>
        <pt x="405" y="86" on="0"/>
        <pt x="243" y="218" on="0"/>
        <pt x="127" y="402" on="0"/>
        <pt x="64" y="639" on="0"/>
        <pt x="64" y="786" on="1"/>
        <pt x="64" y="928" on="0"/>
        <pt x="127" y="1155" on="0"/>
        <pt x="243" y="1331" on="0"/>
        <pt x="406" y="1457" on="0"/>
        <pt x="605" y="1538" on="0"/>
        <pt x="834" y="1576" on="0"/>
        <pt x="959" y="1576" on="1"/>
        <pt x="1142" y="1576" on="0"/>
        <pt x="1295" y="1536" on="1"/>
        <pt x="2451" y="1536" on="1"/>
        <pt x="2451" y="984" on="1"/>
        <pt x="2389" y="1009" on="0"/>
        <pt x="2301" y="1029" on="1"/>
        <pt x="2226" y="1046" on="0"/>
        <pt x="2006" y="1075" on="0"/>
        <pt x="1856" y="1075" on="1"/>
        <pt x="1856" y="879" on="1"/>
        <pt x="2150" y="944" on="1"/>
        <pt x="2150" y="590" on="1"/>
        <pt x="1856" y="655" on="1"/>
        <pt x="1856" y="459" on="1"/>
        <pt x="1973" y="459" on="0"/>
        <pt x="2155" y="473" on="0"/>
        <pt x="2296" y="496" on="0"/>
        <pt x="2403" y="525" on="0"/>
        <pt x="2445" y="540" on="1"/>
      </contour>
      <contour>
        <pt x="959" y="1102" on="1"/>
        <pt x="895" y="1102" on="0"/>
        <pt x="808" y="1069" on="0"/>
        <pt x="751" y="1015" on="0"/>
        <pt x="721" y="947" on="0"/>
        <pt x="706" y="877" on="0"/>
        <pt x="704" y="811" on="0"/>
        <pt x="704" y="786" on="1"/>
        <pt x="704" y="761" on="0"/>
        <pt x="706" y="695" on="0"/>
        <pt x="721" y="624" on="0"/>
        <pt x="751" y="554" on="0"/>
        <pt x="808" y="499" on="0"/>
        <pt x="895" y="465" on="0"/>
        <pt x="959" y="465" on="1"/>
        <pt x="1011" y="465" on="0"/>
        <pt x="1090" y="469" on="0"/>
        <pt x="1150" y="477" on="0"/>
        <pt x="1196" y="487" on="0"/>
        <pt x="1216" y="492" on="1"/>
        <pt x="1216" y="1060" on="1"/>
        <pt x="1199" y="1067" on="0"/>
        <pt x="1154" y="1082" on="0"/>
        <pt x="1093" y="1094" on="0"/>
        <pt x="1012" y="1102" on="0"/>
      </contour>
    </TTGlyph>
    <TTGlyph name="Oacute" xMin="64" yMin="-18" xMax="1856" yMax="2321">
      <component glyphName="acute" x="706" y="17" flags="0x1004"/>
      <component glyphName="O" x="0" y="0" flags="0x1204"/>
    </TTGlyph>
    <TTGlyph name="Ocircumflex" xMin="64" yMin="-18" xMax="1856" yMax="2320">
      <component glyphName="circumflex" x="322" y="17" flags="0x1004"/>
      <component glyphName="O" x="0" y="0" flags="0x1204"/>
    </TTGlyph>
    <TTGlyph name="Odieresis" xMin="64" yMin="-18" xMax="1856" yMax="2065">
      <component glyphName="dieresis" x="280" y="17" flags="0x1004"/>
      <component glyphName="O" x="0" y="0" flags="0x1204"/>
    </TTGlyph>
    <TTGlyph name="Ograve" xMin="64" yMin="-18" xMax="1856" yMax="2321">
      <component glyphName="grave" x="312" y="17" flags="0x1004"/>
      <component glyphName="O" x="0" y="0" flags="0x1204"/>
    </TTGlyph>
    <TTGlyph name="Ohungarumlaut" xMin="64" yMin="-18" xMax="1955" yMax="2321">
      <component glyphName="hungarumlaut" x="268" y="17" flags="0x1004"/>
      <component glyphName="O" x="0" y="0" flags="0x1204"/>
    </TTGlyph>
    <TTGlyph name="Oslash" xMin="65" yMin="-208" xMax="1857" yMax="1728">
      <contour>
        <pt x="960" y="-40" on="1"/>
        <pt x="825" y="-40" on="0"/>
        <pt x="704" y="-16" on="1"/>
        <pt x="613" y="-208" on="1"/>
        <pt x="421" y="-128" on="1"/>
        <pt x="504" y="44" on="1"/>
        <pt x="405" y="87" on="0"/>
        <pt x="243" y="219" on="0"/>
        <pt x="128" y="402" on="0"/>
        <pt x="65" y="639" on="0"/>
        <pt x="65" y="786" on="1"/>
        <pt x="65" y="928" on="0"/>
        <pt x="128" y="1155" on="0"/>
        <pt x="244" y="1331" on="0"/>
        <pt x="407" y="1457" on="0"/>
        <pt x="606" y="1538" on="0"/>
        <pt x="835" y="1576" on="0"/>
        <pt x="960" y="1576" on="1"/>
        <pt x="1033" y="1576" on="0"/>
        <pt x="1168" y="1564" on="0"/>
        <pt x="1231" y="1551" on="1"/>
        <pt x="1317" y="1728" on="1"/>
        <pt x="1509" y="1664" on="1"/>
        <pt x="1426" y="1492" on="1"/>
        <pt x="1523" y="1451" on="0"/>
        <pt x="1682" y="1325" on="0"/>
        <pt x="1795" y="1151" on="0"/>
        <pt x="1857" y="926" on="0"/>
        <pt x="1857" y="786" on="1"/>
        <pt x="1857" y="565" on="0"/>
        <pt x="1717" y="252" on="0"/>
        <pt x="1474" y="52" on="0"/>
        <pt x="1147" y="-40" on="0"/>
      </contour>
      <contour>
        <pt x="960" y="1102" on="1"/>
        <pt x="896" y="1102" on="0"/>
        <pt x="809" y="1069" on="0"/>
        <pt x="752" y="1015" on="0"/>
        <pt x="722" y="947" on="0"/>
        <pt x="707" y="877" on="0"/>
        <pt x="705" y="811" on="0"/>
        <pt x="705" y="786" on="1"/>
        <pt x="705" y="765" on="0"/>
        <pt x="706" y="709" on="0"/>
        <pt x="715" y="649" on="0"/>
        <pt x="735" y="587" on="0"/>
        <pt x="753" y="560" on="1"/>
        <pt x="1013" y="1098" on="1"/>
        <pt x="1002" y="1100" on="0"/>
        <pt x="975" y="1102" on="0"/>
      </contour>
      <contour>
        <pt x="1217" y="786" on="1"/>
        <pt x="1217" y="805" on="0"/>
        <pt x="1215" y="852" on="0"/>
        <pt x="1209" y="903" on="0"/>
        <pt x="1195" y="957" on="0"/>
        <pt x="1183" y="983" on="1"/>
        <pt x="935" y="466" on="1"/>
        <pt x="941" y="465" on="0"/>
        <pt x="953" y="465" on="0"/>
        <pt x="960" y="465" on="1"/>
        <pt x="1024" y="465" on="0"/>
        <pt x="1111" y="499" on="0"/>
        <pt x="1169" y="554" on="0"/>
        <pt x="1200" y="624" on="0"/>
        <pt x="1214" y="695" on="0"/>
        <pt x="1217" y="761" on="0"/>
      </contour>
    </TTGlyph>
    <TTGlyph name="Otilde" xMin="64" yMin="-18" xMax="1856" yMax="2188">
      <component glyphName="tilde" x="432" y="152" flags="0x1004"/>
      <component glyphName="O" x="0" y="0" flags="0x1204"/>
    </TTGlyph>
    <TTGlyph name="P" xMin="102" yMin="0" xMax="1766" yMax="1536">
      <contour>
        <pt x="102" y="1536" on="1"/>
        <pt x="973" y="1536" on="1"/>
        <pt x="1143" y="1536" on="0"/>
        <pt x="1393" y="1505" on="0"/>
        <pt x="1569" y="1447" on="0"/>
        <pt x="1680" y="1363" on="0"/>
        <pt x="1743" y="1259" on="0"/>
        <pt x="1766" y="1135" on="0"/>
        <pt x="1766" y="1065" on="1"/>
        <pt x="1766" y="993" on="0"/>
        <pt x="1739" y="867" on="0"/>
        <pt x="1667" y="762" on="0"/>
        <pt x="1540" y="678" on="0"/>
        <pt x="1341" y="621" on="0"/>
        <pt x="1060" y="590" on="0"/>
        <pt x="870" y="590" on="1"/>
        <pt x="870" y="459" on="1"/>
        <pt x="998" y="434" on="1"/>
        <pt x="998" y="0" on="1"/>
        <pt x="102" y="0" on="1"/>
        <pt x="102" y="434" on="1"/>
        <pt x="230" y="459" on="1"/>
        <pt x="230" y="1077" on="1"/>
        <pt x="102" y="1102" on="1"/>
      </contour>
      <contour>
        <pt x="870" y="865" on="1"/>
        <pt x="928" y="865" on="0"/>
        <pt x="1023" y="877" on="0"/>
        <pt x="1090" y="916" on="0"/>
        <pt x="1126" y="990" on="0"/>
        <pt x="1126" y="1053" on="1"/>
        <pt x="1126" y="1114" on="0"/>
        <pt x="1090" y="1187" on="0"/>
        <pt x="1023" y="1225" on="0"/>
        <pt x="928" y="1237" on="0"/>
        <pt x="870" y="1237" on="1"/>
      </contour>
    </TTGlyph>
    <TTGlyph name="Q" xMin="66" yMin="-459" xMax="1858" yMax="1559">
      <contour>
        <pt x="898" y="-459" on="1"/>
        <pt x="869" y="-427" on="0"/>
        <pt x="806" y="-341" on="0"/>
        <pt x="743" y="-230" on="0"/>
        <pt x="684" y="-92" on="0"/>
        <pt x="661" y="-7" on="1"/>
        <pt x="530" y="24" on="0"/>
        <pt x="311" y="149" on="0"/>
        <pt x="154" y="344" on="0"/>
        <pt x="66" y="612" on="0"/>
        <pt x="66" y="786" on="1"/>
        <pt x="66" y="924" on="0"/>
        <pt x="130" y="1147" on="0"/>
        <pt x="247" y="1319" on="0"/>
        <pt x="411" y="1442" on="0"/>
        <pt x="610" y="1521" on="0"/>
        <pt x="838" y="1559" on="0"/>
        <pt x="961" y="1559" on="1"/>
        <pt x="1084" y="1559" on="0"/>
        <pt x="1312" y="1521" on="0"/>
        <pt x="1511" y="1442" on="0"/>
        <pt x="1676" y="1318" on="0"/>
        <pt x="1793" y="1146" on="0"/>
        <pt x="1858" y="924" on="0"/>
        <pt x="1858" y="786" on="1"/>
        <pt x="1858" y="621" on="0"/>
        <pt x="1779" y="363" on="0"/>
        <pt x="1635" y="171" on="0"/>
        <pt x="1435" y="43" on="0"/>
        <pt x="1315" y="7" on="1"/>
        <pt x="1363" y="-53" on="0"/>
        <pt x="1459" y="-166" on="0"/>
        <pt x="1494" y="-208" on="1"/>
        <pt x="1494" y="-459" on="1"/>
      </contour>
      <contour>
        <pt x="961" y="1102" on="1"/>
        <pt x="897" y="1102" on="0"/>
        <pt x="810" y="1069" on="0"/>
        <pt x="753" y="1015" on="0"/>
        <pt x="723" y="947" on="0"/>
        <pt x="708" y="877" on="0"/>
        <pt x="706" y="811" on="0"/>
        <pt x="706" y="786" on="1"/>
        <pt x="706" y="761" on="0"/>
        <pt x="708" y="695" on="0"/>
        <pt x="723" y="624" on="0"/>
        <pt x="753" y="554" on="0"/>
        <pt x="810" y="499" on="0"/>
        <pt x="897" y="465" on="0"/>
        <pt x="961" y="465" on="1"/>
        <pt x="1025" y="465" on="0"/>
        <pt x="1112" y="499" on="0"/>
        <pt x="1170" y="554" on="0"/>
        <pt x="1201" y="624" on="0"/>
        <pt x="1215" y="695" on="0"/>
        <pt x="1218" y="761" on="0"/>
        <pt x="1218" y="786" on="1"/>
        <pt x="1218" y="811" on="0"/>
        <pt x="1215" y="877" on="0"/>
        <pt x="1201" y="947" on="0"/>
        <pt x="1170" y="1015" on="0"/>
        <pt x="1112" y="1069" on="0"/>
        <pt x="1025" y="1102" on="0"/>
      </contour>
    </TTGlyph>
    <TTGlyph name="R" xMin="102" yMin="0" xMax="1765" yMax="1536">
      <contour>
        <pt x="1765" y="0" on="1"/>
        <pt x="1129" y="0" on="1"/>
        <pt x="1099" y="57" on="0"/>
        <pt x="1035" y="185" on="0"/>
        <pt x="975" y="323" on="0"/>
        <pt x="923" y="471" on="0"/>
        <pt x="905" y="549" on="1"/>
        <pt x="870" y="549" on="1"/>
        <pt x="870" y="0" on="1"/>
        <pt x="102" y="0" on="1"/>
        <pt x="102" y="434" on="1"/>
        <pt x="230" y="459" on="1"/>
        <pt x="230" y="1077" on="1"/>
        <pt x="102" y="1102" on="1"/>
        <pt x="102" y="1536" on="1"/>
        <pt x="973" y="1536" on="1"/>
        <pt x="1146" y="1536" on="0"/>
        <pt x="1398" y="1504" on="0"/>
        <pt x="1574" y="1445" on="0"/>
        <pt x="1683" y="1360" on="0"/>
        <pt x="1744" y="1253" on="0"/>
        <pt x="1765" y="1126" on="0"/>
        <pt x="1765" y="1055" on="1"/>
        <pt x="1765" y="983" on="0"/>
        <pt x="1738" y="866" on="0"/>
        <pt x="1670" y="768" on="0"/>
        <pt x="1552" y="687" on="0"/>
        <pt x="1461" y="651" on="1"/>
        <pt x="1480" y="611" on="0"/>
        <pt x="1556" y="504" on="0"/>
        <pt x="1644" y="393" on="0"/>
        <pt x="1733" y="288" on="0"/>
        <pt x="1765" y="251" on="1"/>
      </contour>
      <contour>
        <pt x="870" y="844" on="1"/>
        <pt x="928" y="844" on="0"/>
        <pt x="1023" y="854" on="0"/>
        <pt x="1090" y="890" on="0"/>
        <pt x="1126" y="960" on="0"/>
        <pt x="1126" y="1019" on="1"/>
        <pt x="1126" y="1077" on="0"/>
        <pt x="1090" y="1146" on="0"/>
        <pt x="1023" y="1184" on="0"/>
        <pt x="928" y="1196" on="0"/>
        <pt x="870" y="1196" on="1"/>
      </contour>
    </TTGlyph>
    <TTGlyph name="Racute" xMin="102" yMin="0" xMax="1765" yMax="2321">
      <component glyphName="acute" x="285" y="17" flags="0x1004"/>
      <component glyphName="R" x="0" y="0" flags="0x1204"/>
    </TTGlyph>
    <TTGlyph name="Rcaron" xMin="-47" yMin="0" xMax="1765" yMax="2320">
      <component glyphName="caron" x="-100" y="17" flags="0x1004"/>
      <component glyphName="R" x="0" y="0" flags="0x1204"/>
    </TTGlyph>
    <TTGlyph name="S" xMin="84" yMin="-18" xMax="1418" yMax="1552">
      <contour>
        <pt x="1418" y="482" on="1"/>
        <pt x="1417" y="383" on="0"/>
        <pt x="1362" y="230" on="0"/>
        <pt x="1264" y="119" on="0"/>
        <pt x="1132" y="42" on="0"/>
        <pt x="980" y="-5" on="0"/>
        <pt x="813" y="-18" on="0"/>
        <pt x="729" y="-18" on="1"/>
        <pt x="577" y="-18" on="0"/>
        <pt x="462" y="-6" on="1"/>
        <pt x="396" y="2" on="0"/>
        <pt x="265" y="38" on="1"/>
        <pt x="158" y="67" on="0"/>
        <pt x="97" y="99" on="1"/>
        <pt x="97" y="494" on="1"/>
        <pt x="398" y="494" on="1"/>
        <pt x="450" y="422" on="0"/>
        <pt x="581" y="354" on="0"/>
        <pt x="650" y="354" on="1"/>
        <pt x="668" y="354" on="0"/>
        <pt x="712" y="360" on="0"/>
        <pt x="751" y="388" on="0"/>
        <pt x="778" y="448" on="0"/>
        <pt x="778" y="502" on="1"/>
        <pt x="692" y="510" on="0"/>
        <pt x="523" y="540" on="0"/>
        <pt x="369" y="592" on="0"/>
        <pt x="236" y="671" on="0"/>
        <pt x="139" y="783" on="0"/>
        <pt x="84" y="934" on="0"/>
        <pt x="84" y="1033" on="1"/>
        <pt x="84" y="1139" on="0"/>
        <pt x="140" y="1300" on="0"/>
        <pt x="237" y="1417" on="0"/>
        <pt x="368" y="1494" on="0"/>
        <pt x="519" y="1540" on="0"/>
        <pt x="682" y="1552" on="0"/>
        <pt x="763" y="1552" on="1"/>
        <pt x="881" y="1552" on="0"/>
        <pt x="1070" y="1535" on="0"/>
        <pt x="1222" y="1499" on="0"/>
        <pt x="1339" y="1454" on="0"/>
        <pt x="1385" y="1433" on="1"/>
        <pt x="1385" y="1043" on="1"/>
        <pt x="1084" y="1043" on="1"/>
        <pt x="1033" y="1115" on="0"/>
        <pt x="908" y="1183" on="0"/>
        <pt x="842" y="1183" on="1"/>
        <pt x="824" y="1183" on="0"/>
        <pt x="778" y="1174" on="0"/>
        <pt x="738" y="1141" on="0"/>
        <pt x="710" y="1078" on="0"/>
        <pt x="710" y="1024" on="1"/>
        <pt x="885" y="1018" on="0"/>
        <pt x="1151" y="954" on="0"/>
        <pt x="1328" y="825" on="0"/>
        <pt x="1418" y="624" on="0"/>
      </contour>
    </TTGlyph>
    <TTGlyph name="Sacute" xMin="84" yMin="-18" xMax="1418" yMax="2321">
      <component glyphName="acute" x="510" y="17" flags="0x1004"/>
      <component glyphName="S" x="0" y="0" flags="0x1204"/>
    </TTGlyph>
    <TTGlyph name="Scaron" xMin="84" yMin="-18" xMax="1418" yMax="2320">
      <component glyphName="caron" x="126" y="17" flags="0x1004"/>
      <component glyphName="S" x="0" y="0" flags="0x1204"/>
    </TTGlyph>
    <TTGlyph name="Scedilla" xMin="84" yMin="-885" xMax="1418" yMax="1552">
      <component glyphName="cedilla" x="526" y="-116" flags="0x1004"/>
      <component glyphName="S" x="0" y="0" flags="0x1204"/>
    </TTGlyph>
    <TTGlyph name="T" xMin="36" yMin="0" xMax="1444" yMax="1536">
      <contour>
        <pt x="1444" y="1536" on="1"/>
        <pt x="1444" y="1024" on="1"/>
        <pt x="1276" y="1024" on="1"/>
        <pt x="1259" y="1046" on="0"/>
        <pt x="1215" y="1092" on="0"/>
        <pt x="1161" y="1129" on="0"/>
        <pt x="1097" y="1152" on="0"/>
        <pt x="1060" y="1152" on="1"/>
        <pt x="1060" y="459" on="1"/>
        <pt x="1188" y="434" on="1"/>
        <pt x="1188" y="0" on="1"/>
        <pt x="292" y="0" on="1"/>
        <pt x="292" y="434" on="1"/>
        <pt x="420" y="459" on="1"/>
        <pt x="420" y="1152" on="1"/>
        <pt x="383" y="1152" on="0"/>
        <pt x="319" y="1129" on="0"/>
        <pt x="265" y="1092" on="0"/>
        <pt x="221" y="1046" on="0"/>
        <pt x="204" y="1024" on="1"/>
        <pt x="36" y="1024" on="1"/>
        <pt x="36" y="1536" on="1"/>
      </contour>
    </TTGlyph>
    <TTGlyph name="Tcaron" xMin="36" yMin="0" xMax="1444" yMax="2320">
      <component glyphName="caron" x="102" y="17" flags="0x1004"/>
      <component glyphName="T" x="0" y="0" flags="0x1204"/>
    </TTGlyph>
    <TTGlyph name="Tcommaaccent" xMin="36" yMin="-867" xMax="1444" yMax="1536">
      <component glyphName="cedilla" x="536" y="-98" flags="0x1004"/>
      <component glyphName="T" x="0" y="0" flags="0x1204"/>
    </TTGlyph>
    <TTGlyph name="Thorn" xMin="100" yMin="0" xMax="1764" yMax="1664">
      <contour>
        <pt x="100" y="1664" on="1"/>
        <pt x="868" y="1664" on="1"/>
        <pt x="868" y="1489" on="1"/>
        <pt x="971" y="1489" on="1"/>
        <pt x="1141" y="1489" on="0"/>
        <pt x="1391" y="1462" on="0"/>
        <pt x="1567" y="1408" on="0"/>
        <pt x="1678" y="1327" on="0"/>
        <pt x="1741" y="1219" on="0"/>
        <pt x="1764" y="1085" on="0"/>
        <pt x="1764" y="1005" on="1"/>
        <pt x="1764" y="942" on="0"/>
        <pt x="1737" y="824" on="0"/>
        <pt x="1665" y="721" on="0"/>
        <pt x="1538" y="636" on="0"/>
        <pt x="1339" y="576" on="0"/>
        <pt x="1058" y="543" on="0"/>
        <pt x="868" y="543" on="1"/>
        <pt x="868" y="459" on="1"/>
        <pt x="996" y="434" on="1"/>
        <pt x="996" y="0" on="1"/>
        <pt x="100" y="0" on="1"/>
        <pt x="100" y="434" on="1"/>
        <pt x="228" y="459" on="1"/>
        <pt x="228" y="1158" on="1"/>
        <pt x="100" y="1183" on="1"/>
      </contour>
      <contour>
        <pt x="868" y="818" on="1"/>
        <pt x="926" y="818" on="0"/>
        <pt x="1021" y="830" on="0"/>
        <pt x="1088" y="869" on="0"/>
        <pt x="1124" y="943" on="0"/>
        <pt x="1124" y="1006" on="1"/>
        <pt x="1124" y="1067" on="0"/>
        <pt x="1088" y="1140" on="0"/>
        <pt x="1021" y="1178" on="0"/>
        <pt x="926" y="1190" on="0"/>
        <pt x="868" y="1190" on="1"/>
      </contour>
    </TTGlyph>
    <TTGlyph name="U" xMin="61" yMin="-18" xMax="1886" yMax="1536">
      <contour>
        <pt x="1758" y="1077" on="1"/>
        <pt x="1757" y="1045" on="0"/>
        <pt x="1757" y="984" on="0"/>
        <pt x="1757" y="955" on="1"/>
        <pt x="1757" y="786" on="1"/>
        <pt x="1757" y="574" on="0"/>
        <pt x="1642" y="267" on="0"/>
        <pt x="1443" y="68" on="0"/>
        <pt x="1177" y="-18" on="0"/>
        <pt x="1027" y="-18" on="1"/>
        <pt x="910" y="-18" on="0"/>
        <pt x="695" y="13" on="0"/>
        <pt x="509" y="98" on="0"/>
        <pt x="357" y="229" on="0"/>
        <pt x="248" y="410" on="0"/>
        <pt x="189" y="642" on="0"/>
        <pt x="189" y="786" on="1"/>
        <pt x="189" y="1077" on="1"/>
        <pt x="61" y="1102" on="1"/>
        <pt x="61" y="1536" on="1"/>
        <pt x="892" y="1536" on="1"/>
        <pt x="892" y="1102" on="1"/>
        <pt x="764" y="1077" on="1"/>
        <pt x="764" y="948" on="1"/>
        <pt x="764" y="923" on="0"/>
        <pt x="764" y="872" on="0"/>
        <pt x="765" y="828" on="0"/>
        <pt x="765" y="794" on="0"/>
        <pt x="765" y="786" on="1"/>
        <pt x="765" y="761" on="0"/>
        <pt x="767" y="695" on="0"/>
        <pt x="782" y="624" on="0"/>
        <pt x="812" y="554" on="0"/>
        <pt x="869" y="499" on="0"/>
        <pt x="956" y="465" on="0"/>
        <pt x="1020" y="465" on="1"/>
        <pt x="1084" y="465" on="0"/>
        <pt x="1171" y="499" on="0"/>
        <pt x="1229" y="554" on="0"/>
        <pt x="1260" y="624" on="0"/>
        <pt x="1274" y="695" on="0"/>
        <pt x="1277" y="761" on="0"/>
        <pt x="1277" y="786" on="1"/>
        <pt x="1277" y="794" on="0"/>
        <pt x="1277" y="828" on="0"/>
        <pt x="1276" y="872" on="0"/>
        <pt x="1276" y="923" on="0"/>
        <pt x="1276" y="948" on="1"/>
        <pt x="1276" y="1077" on="1"/>
        <pt x="1148" y="1102" on="1"/>
        <pt x="1148" y="1536" on="1"/>
        <pt x="1886" y="1536" on="1"/>
        <pt x="1886" y="1102" on="1"/>
      </contour>
    </TTGlyph>
    <TTGlyph name="Uacute" xMin="61" yMin="-18" xMax="1886" yMax="2321">
      <component glyphName="acute" x="721" y="17" flags="0x1004"/>
      <component glyphName="U" x="0" y="0" flags="0x1204"/>
    </TTGlyph>
    <TTGlyph name="Ucircumflex" xMin="61" yMin="-18" xMax="1886" yMax="2320">
      <component glyphName="circumflex" x="336" y="17" flags="0x1004"/>
      <component glyphName="U" x="0" y="0" flags="0x1204"/>
    </TTGlyph>
    <TTGlyph name="Udieresis" xMin="61" yMin="-18" xMax="1886" yMax="2065">
      <component glyphName="dieresis" x="294" y="17" flags="0x1004"/>
      <component glyphName="U" x="0" y="0" flags="0x1204"/>
    </TTGlyph>
    <TTGlyph name="Ugrave" xMin="61" yMin="-18" xMax="1886" yMax="2321">
      <component glyphName="grave" x="326" y="17" flags="0x1004"/>
      <component glyphName="U" x="0" y="0" flags="0x1204"/>
    </TTGlyph>
    <TTGlyph name="Uhungarumlaut" xMin="61" yMin="-18" xMax="1970" yMax="2321">
      <component glyphName="hungarumlaut" x="283" y="17" flags="0x1004"/>
      <component glyphName="U" x="0" y="0" flags="0x1204"/>
    </TTGlyph>
    <TTGlyph name="Uring" xMin="61" yMin="-18" xMax="1886" yMax="2457">
      <component glyphName="ring" x="504" y="145" flags="0x1004"/>
      <component glyphName="U" x="0" y="0" flags="0x1204"/>
    </TTGlyph>
    <TTGlyph name="V" xMin="15" yMin="-1" xMax="1848" yMax="1536">
      <contour>
        <pt x="576" y="-1" on="1"/>
        <pt x="167" y="1078" on="1"/>
        <pt x="15" y="1102" on="1"/>
        <pt x="15" y="1536" on="1"/>
        <pt x="949" y="1536" on="1"/>
        <pt x="949" y="1102" on="1"/>
        <pt x="839" y="1078" on="1"/>
        <pt x="1012" y="509" on="1"/>
        <pt x="1185" y="1078" on="1"/>
        <pt x="1075" y="1102" on="1"/>
        <pt x="1075" y="1536" on="1"/>
        <pt x="1848" y="1536" on="1"/>
        <pt x="1848" y="1102" on="1"/>
        <pt x="1697" y="1078" on="1"/>
        <pt x="1288" y="-1" on="1"/>
      </contour>
    </TTGlyph>
    <TTGlyph name="W" xMin="16" yMin="-1" xMax="2946" yMax="1536">
      <contour>
        <pt x="577" y="-1" on="1"/>
        <pt x="168" y="1078" on="1"/>
        <pt x="16" y="1102" on="1"/>
        <pt x="16" y="1536" on="1"/>
        <pt x="987" y="1536" on="1"/>
        <pt x="987" y="1102" on="1"/>
        <pt x="877" y="1078" on="1"/>
        <pt x="1050" y="509" on="1"/>
        <pt x="1223" y="1078" on="1"/>
        <pt x="1113" y="1102" on="1"/>
        <pt x="1113" y="1536" on="1"/>
        <pt x="2084" y="1536" on="1"/>
        <pt x="2084" y="1102" on="1"/>
        <pt x="1974" y="1078" on="1"/>
        <pt x="2147" y="509" on="1"/>
        <pt x="2320" y="1078" on="1"/>
        <pt x="2210" y="1102" on="1"/>
        <pt x="2210" y="1536" on="1"/>
        <pt x="2946" y="1536" on="1"/>
        <pt x="2946" y="1102" on="1"/>
        <pt x="2795" y="1078" on="1"/>
        <pt x="2386" y="-1" on="1"/>
        <pt x="1674" y="-1" on="1"/>
        <pt x="1481" y="587" on="1"/>
        <pt x="1289" y="-1" on="1"/>
      </contour>
    </TTGlyph>
    <TTGlyph name="X" xMin="43" yMin="0" xMax="1977" yMax="1536">
      <contour>
        <pt x="1825" y="458" on="1"/>
        <pt x="1977" y="434" on="1"/>
        <pt x="1977" y="0" on="1"/>
        <pt x="963" y="0" on="1"/>
        <pt x="963" y="434" on="1"/>
        <pt x="1073" y="458" on="1"/>
        <pt x="840" y="636" on="1"/>
        <pt x="647" y="458" on="1"/>
        <pt x="837" y="434" on="1"/>
        <pt x="837" y="0" on="1"/>
        <pt x="64" y="0" on="1"/>
        <pt x="64" y="434" on="1"/>
        <pt x="215" y="458" on="1"/>
        <pt x="584" y="788" on="1"/>
        <pt x="225" y="1078" on="1"/>
        <pt x="43" y="1102" on="1"/>
        <pt x="43" y="1536" on="1"/>
        <pt x="1021" y="1536" on="1"/>
        <pt x="1021" y="1102" on="1"/>
        <pt x="911" y="1078" on="1"/>
        <pt x="1170" y="890" on="1"/>
        <pt x="1343" y="1078" on="1"/>
        <pt x="1156" y="1102" on="1"/>
        <pt x="1156" y="1536" on="1"/>
        <pt x="1926" y="1536" on="1"/>
        <pt x="1926" y="1102" on="1"/>
        <pt x="1745" y="1078" on="1"/>
        <pt x="1446" y="768" on="1"/>
      </contour>
    </TTGlyph>
    <TTGlyph name="Y" xMin="15" yMin="0" xMax="1928" yMax="1536">
      <contour>
        <pt x="488" y="0" on="1"/>
        <pt x="488" y="432" on="1"/>
        <pt x="616" y="464" on="1"/>
        <pt x="177" y="1078" on="1"/>
        <pt x="15" y="1102" on="1"/>
        <pt x="15" y="1536" on="1"/>
        <pt x="869" y="1536" on="1"/>
        <pt x="869" y="1102" on="1"/>
        <pt x="769" y="1078" on="1"/>
        <pt x="972" y="764" on="1"/>
        <pt x="1175" y="1078" on="1"/>
        <pt x="1075" y="1102" on="1"/>
        <pt x="1075" y="1536" on="1"/>
        <pt x="1928" y="1536" on="1"/>
        <pt x="1928" y="1102" on="1"/>
        <pt x="1767" y="1078" on="1"/>
        <pt x="1328" y="464" on="1"/>
        <pt x="1456" y="432" on="1"/>
        <pt x="1456" y="0" on="1"/>
      </contour>
    </TTGlyph>
    <TTGlyph name="Yacute" xMin="15" yMin="0" xMax="1928" yMax="2321">
      <component glyphName="acute" x="719" y="17" flags="0x1004"/>
      <component glyphName="Y" x="0" y="0" flags="0x1204"/>
    </TTGlyph>
    <TTGlyph name="Ydieresis" xMin="15" yMin="0" xMax="1928" yMax="2065">
      <component glyphName="dieresis" x="292" y="17" flags="0x1004"/>
      <component glyphName="Y" x="0" y="0" flags="0x1204"/>
    </TTGlyph>
    <TTGlyph name="Z" xMin="27" yMin="0" xMax="1275" yMax="1536">
      <contour>
        <pt x="27" y="0" on="1"/>
        <pt x="27" y="384" on="1"/>
        <pt x="591" y="1152" on="1"/>
        <pt x="534" y="1152" on="0"/>
        <pt x="434" y="1129" on="0"/>
        <pt x="349" y="1092" on="0"/>
        <pt x="279" y="1046" on="0"/>
        <pt x="253" y="1024" on="1"/>
        <pt x="85" y="1024" on="1"/>
        <pt x="85" y="1536" on="1"/>
        <pt x="1275" y="1536" on="1"/>
        <pt x="1275" y="1122" on="1"/>
        <pt x="771" y="402" on="1"/>
        <pt x="796" y="399" on="0"/>
        <pt x="820" y="399" on="1"/>
        <pt x="867" y="399" on="0"/>
        <pt x="952" y="419" on="0"/>
        <pt x="1024" y="452" on="0"/>
        <pt x="1084" y="492" on="0"/>
        <pt x="1107" y="512" on="1"/>
        <pt x="1275" y="512" on="1"/>
        <pt x="1275" y="0" on="1"/>
      </contour>
    </TTGlyph>
    <TTGlyph name="Zacute" xMin="27" yMin="0" xMax="1297" yMax="2321">
      <component glyphName="acute" x="428" y="17" flags="0x1004"/>
      <component glyphName="Z" x="0" y="0" flags="0x1204"/>
    </TTGlyph>
    <TTGlyph name="Zcaron" xMin="27" yMin="0" xMax="1275" yMax="2320">
      <component glyphName="caron" x="42" y="17" flags="0x1004"/>
      <component glyphName="Z" x="0" y="0" flags="0x1204"/>
    </TTGlyph>
    <TTGlyph name="Zdotaccent" xMin="27" yMin="0" xMax="1275" yMax="2193">
      <component glyphName="dotaccent" x="265" y="17" flags="0x1004"/>
      <component glyphName="Z" x="0" y="0" flags="0x1204"/>
    </TTGlyph>
    <TTGlyph name="a" xMin="52" yMin="0" xMax="1615" yMax="1408">
      <contour>
        <pt x="1080" y="0" on="1"/>
        <pt x="1030" y="237" on="1"/>
        <pt x="637" y="237" on="1"/>
        <pt x="587" y="0" on="1"/>
        <pt x="52" y="0" on="1"/>
        <pt x="52" y="464" on="1"/>
        <pt x="168" y="487" on="1"/>
        <pt x="445" y="1408" on="1"/>
        <pt x="1221" y="1408" on="1"/>
        <pt x="1500" y="487" on="1"/>
        <pt x="1615" y="464" on="1"/>
        <pt x="1615" y="0" on="1"/>
      </contour>
      <contour>
        <pt x="698" y="553" on="1"/>
        <pt x="969" y="553" on="1"/>
        <pt x="833" y="1106" on="1"/>
      </contour>
    </TTGlyph>
    <TTGlyph name="aacute" xMin="52" yMin="0" xMax="1615" yMax="2208">
      <component glyphName="acute" x="580" y="-96" flags="0x1004"/>
      <component glyphName="a" x="0" y="0" flags="0x1204"/>
    </TTGlyph>
    <TTGlyph name="abreve" xMin="52" yMin="0" xMax="1615" yMax="2013">
      <component glyphName="breve" x="366" y="33" flags="0x1004"/>
      <component glyphName="a" x="0" y="0" flags="0x1204"/>
    </TTGlyph>
    <TTGlyph name="acircumflex" xMin="52" yMin="0" xMax="1615" yMax="2207">
      <component glyphName="circumflex" x="196" y="-96" flags="0x1004"/>
      <component glyphName="a" x="0" y="0" flags="0x1204"/>
    </TTGlyph>
    <TTGlyph name="acute" xMin="40" yMin="1664" xMax="869" yMax="2304">
      <contour>
        <pt x="465" y="1664" on="1"/>
        <pt x="40" y="1664" on="1"/>
        <pt x="379" y="2304" on="1"/>
        <pt x="869" y="2304" on="1"/>
      </contour>
    </TTGlyph>
    <TTGlyph name="adieresis" xMin="52" yMin="0" xMax="1615" yMax="1952">
      <component glyphName="dieresis" x="154" y="-96" flags="0x1004"/>
      <component glyphName="a" x="0" y="0" flags="0x1204"/>
    </TTGlyph>
    <TTGlyph name="ae" xMin="-35" yMin="0" xMax="2204" yMax="1408">
      <contour>
        <pt x="1650" y="789" on="1"/>
        <pt x="1927" y="848" on="1"/>
        <pt x="1927" y="563" on="1"/>
        <pt x="1650" y="623" on="1"/>
        <pt x="1650" y="402" on="1"/>
        <pt x="1712" y="402" on="0"/>
        <pt x="1826" y="419" on="0"/>
        <pt x="1925" y="449" on="0"/>
        <pt x="2007" y="489" on="0"/>
        <pt x="2037" y="512" on="1"/>
        <pt x="2204" y="512" on="1"/>
        <pt x="2204" y="0" on="1"/>
        <pt x="990" y="0" on="1"/>
        <pt x="1012" y="237" on="1"/>
        <pt x="619" y="237" on="1"/>
        <pt x="497" y="0" on="1"/>
        <pt x="-35" y="0" on="1"/>
        <pt x="102" y="464" on="1"/>
        <pt x="224" y="487" on="1"/>
        <pt x="780" y="1408" on="1"/>
        <pt x="2204" y="1408" on="1"/>
        <pt x="2204" y="896" on="1"/>
        <pt x="2037" y="896" on="1"/>
        <pt x="2007" y="918" on="0"/>
        <pt x="1925" y="958" on="0"/>
        <pt x="1826" y="988" on="0"/>
        <pt x="1712" y="1006" on="0"/>
        <pt x="1650" y="1006" on="1"/>
      </contour>
      <contour>
        <pt x="775" y="553" on="1"/>
        <pt x="1076" y="553" on="1"/>
        <pt x="1076" y="1106" on="1"/>
      </contour>
    </TTGlyph>
    <TTGlyph name="agrave" xMin="52" yMin="0" xMax="1615" yMax="2208">
      <component glyphName="grave" x="186" y="-96" flags="0x1004"/>
      <component glyphName="a" x="0" y="0" flags="0x1204"/>
    </TTGlyph>
    <TTGlyph name="ampersand" xMin="81" yMin="-29" xMax="2912" yMax="1559">
      <contour>
        <pt x="2339" y="361" on="1"/>
        <pt x="2414" y="361" on="0"/>
        <pt x="2554" y="429" on="0"/>
        <pt x="2611" y="501" on="1"/>
        <pt x="2912" y="501" on="1"/>
        <pt x="2912" y="95" on="1"/>
        <pt x="2859" y="73" on="0"/>
        <pt x="2727" y="29" on="0"/>
        <pt x="2560" y="-7" on="0"/>
        <pt x="2353" y="-29" on="0"/>
        <pt x="2224" y="-29" on="1"/>
        <pt x="2028" y="-29" on="0"/>
        <pt x="1751" y="65" on="0"/>
        <pt x="1661" y="143" on="1"/>
        <pt x="1568" y="87" on="0"/>
        <pt x="1367" y="19" on="0"/>
        <pt x="1163" y="-17" on="0"/>
        <pt x="963" y="-29" on="0"/>
        <pt x="871" y="-29" on="1"/>
        <pt x="671" y="-29" on="0"/>
        <pt x="374" y="59" on="0"/>
        <pt x="178" y="203" on="0"/>
        <pt x="81" y="389" on="0"/>
        <pt x="81" y="487" on="1"/>
        <pt x="81" y="565" on="0"/>
        <pt x="107" y="680" on="0"/>
        <pt x="158" y="765" on="0"/>
        <pt x="235" y="824" on="0"/>
        <pt x="286" y="847" on="1"/>
        <pt x="258" y="857" on="0"/>
        <pt x="193" y="900" on="0"/>
        <pt x="138" y="971" on="0"/>
        <pt x="101" y="1075" on="0"/>
        <pt x="101" y="1147" on="1"/>
        <pt x="101" y="1191" on="0"/>
        <pt x="122" y="1263" on="0"/>
        <pt x="165" y="1326" on="0"/>
        <pt x="229" y="1386" on="0"/>
        <pt x="272" y="1418" on="1"/>
        <pt x="359" y="1482" on="0"/>
        <pt x="620" y="1559" on="0"/>
        <pt x="801" y="1559" on="1"/>
        <pt x="948" y="1559" on="0"/>
        <pt x="1221" y="1491" on="0"/>
        <pt x="1349" y="1433" on="1"/>
        <pt x="1349" y="1113" on="1"/>
        <pt x="1048" y="1113" on="1"/>
        <pt x="1040" y="1150" on="0"/>
        <pt x="1007" y="1202" on="0"/>
        <pt x="962" y="1235" on="0"/>
        <pt x="911" y="1251" on="0"/>
        <pt x="885" y="1251" on="1"/>
        <pt x="854" y="1251" on="0"/>
        <pt x="795" y="1231" on="0"/>
        <pt x="749" y="1194" on="0"/>
        <pt x="721" y="1142" on="0"/>
        <pt x="721" y="1110" on="1"/>
        <pt x="721" y="1089" on="0"/>
        <pt x="737" y="1047" on="0"/>
        <pt x="769" y="1015" on="0"/>
        <pt x="816" y="995" on="0"/>
        <pt x="846" y="995" on="1"/>
        <pt x="1504" y="995" on="1"/>
        <pt x="1504" y="1536" on="1"/>
        <pt x="2144" y="1536" on="1"/>
        <pt x="2144" y="996" on="1"/>
        <pt x="2528" y="996" on="1"/>
        <pt x="2528" y="700" on="1"/>
        <pt x="2145" y="700" on="1"/>
        <pt x="2144" y="680" on="0"/>
        <pt x="2144" y="642" on="0"/>
        <pt x="2144" y="623" on="1"/>
        <pt x="2144" y="504" on="1"/>
        <pt x="2144" y="477" on="0"/>
        <pt x="2169" y="426" on="0"/>
        <pt x="2219" y="385" on="0"/>
        <pt x="2291" y="361" on="0"/>
      </contour>
      <contour>
        <pt x="1016" y="361" on="1"/>
        <pt x="1103" y="361" on="0"/>
        <pt x="1253" y="380" on="0"/>
        <pt x="1375" y="410" on="0"/>
        <pt x="1471" y="445" on="0"/>
        <pt x="1504" y="460" on="1"/>
        <pt x="1504" y="699" on="1"/>
        <pt x="846" y="699" on="1"/>
        <pt x="816" y="699" on="0"/>
        <pt x="769" y="672" on="0"/>
        <pt x="737" y="629" on="0"/>
        <pt x="721" y="573" on="0"/>
        <pt x="721" y="544" on="1"/>
        <pt x="721" y="509" on="0"/>
        <pt x="758" y="444" on="0"/>
        <pt x="831" y="392" on="0"/>
        <pt x="942" y="361" on="0"/>
      </contour>
    </TTGlyph>
    <TTGlyph name="aogonek" xMin="52" yMin="-866" xMax="1615" yMax="1408">
      <component glyphName="ogonek" x="518" y="10" flags="0x1004"/>
      <component glyphName="a" x="0" y="0" flags="0x1004"/>
    </TTGlyph>
    <TTGlyph name="aring" xMin="52" yMin="0" xMax="1615" yMax="2344">
      <component glyphName="ring" x="364" y="32" flags="0x1004"/>
      <component glyphName="a" x="0" y="0" flags="0x1204"/>
    </TTGlyph>
    <TTGlyph name="asciicircum" xMin="53" yMin="201" xMax="1461" yMax="1280">
      <contour>
        <pt x="53" y="201" on="1"/>
        <pt x="462" y="1280" on="1"/>
        <pt x="1052" y="1280" on="1"/>
        <pt x="1461" y="201" on="1"/>
        <pt x="949" y="201" on="1"/>
        <pt x="757" y="841" on="1"/>
        <pt x="565" y="201" on="1"/>
      </contour>
    </TTGlyph>
    <TTGlyph name="asciitilde" xMin="82" yMin="652" xMax="978" yMax="1159">
      <contour>
        <pt x="918" y="742" on="1"/>
        <pt x="886" y="697" on="0"/>
        <pt x="802" y="661" on="0"/>
        <pt x="757" y="661" on="1"/>
        <pt x="711" y="661" on="0"/>
        <pt x="613" y="691" on="0"/>
        <pt x="513" y="727" on="0"/>
        <pt x="413" y="757" on="0"/>
        <pt x="365" y="757" on="1"/>
        <pt x="296" y="757" on="0"/>
        <pt x="156" y="711" on="0"/>
        <pt x="82" y="652" on="1"/>
        <pt x="144" y="1078" on="1"/>
        <pt x="181" y="1120" on="0"/>
        <pt x="266" y="1153" on="0"/>
        <pt x="314" y="1153" on="1"/>
        <pt x="359" y="1153" on="0"/>
        <pt x="455" y="1117" on="0"/>
        <pt x="553" y="1074" on="0"/>
        <pt x="651" y="1038" on="0"/>
        <pt x="699" y="1038" on="1"/>
        <pt x="767" y="1038" on="0"/>
        <pt x="904" y="1091" on="0"/>
        <pt x="978" y="1159" on="1"/>
      </contour>
    </TTGlyph>
    <TTGlyph name="asterisk" xMin="80" yMin="349" xMax="1220" yMax="1537">
      <contour>
        <pt x="805" y="349" on="1"/>
        <pt x="487" y="349" on="1"/>
        <pt x="487" y="474" on="1"/>
        <pt x="507" y="652" on="1"/>
        <pt x="379" y="528" on="1"/>
        <pt x="282" y="452" on="1"/>
        <pt x="86" y="700" on="1"/>
        <pt x="183" y="776" on="1"/>
        <pt x="438" y="940" on="1"/>
        <pt x="178" y="1096" on="1"/>
        <pt x="80" y="1170" on="1"/>
        <pt x="268" y="1423" on="1"/>
        <pt x="367" y="1350" on="1"/>
        <pt x="513" y="1217" on="1"/>
        <pt x="495" y="1414" on="1"/>
        <pt x="495" y="1537" on="1"/>
        <pt x="813" y="1537" on="1"/>
        <pt x="813" y="1412" on="1"/>
        <pt x="792" y="1234" on="1"/>
        <pt x="921" y="1358" on="1"/>
        <pt x="1018" y="1434" on="1"/>
        <pt x="1214" y="1186" on="1"/>
        <pt x="1117" y="1110" on="1"/>
        <pt x="860" y="947" on="1"/>
        <pt x="1122" y="790" on="1"/>
        <pt x="1220" y="716" on="1"/>
        <pt x="1032" y="463" on="1"/>
        <pt x="933" y="536" on="1"/>
        <pt x="786" y="668" on="1"/>
        <pt x="805" y="472" on="1"/>
      </contour>
    </TTGlyph>
    <TTGlyph name="at" xMin="68" yMin="-40" xMax="1813" yMax="1576">
      <contour>
        <pt x="1813" y="811" on="1"/>
        <pt x="1813" y="717" on="0"/>
        <pt x="1768" y="547" on="0"/>
        <pt x="1667" y="419" on="0"/>
        <pt x="1508" y="343" on="0"/>
        <pt x="1394" y="343" on="1"/>
        <pt x="1352" y="343" on="0"/>
        <pt x="1260" y="361" on="0"/>
        <pt x="1177" y="393" on="0"/>
        <pt x="1111" y="436" on="0"/>
        <pt x="1094" y="462" on="1"/>
        <pt x="1022" y="405" on="0"/>
        <pt x="875" y="359" on="0"/>
        <pt x="806" y="359" on="1"/>
        <pt x="740" y="359" on="0"/>
        <pt x="623" y="423" on="0"/>
        <pt x="536" y="531" on="0"/>
        <pt x="486" y="671" on="0"/>
        <pt x="486" y="746" on="1"/>
        <pt x="486" y="863" on="0"/>
        <pt x="551" y="1035" on="0"/>
        <pt x="667" y="1149" on="0"/>
        <pt x="828" y="1205" on="0"/>
        <pt x="925" y="1205" on="1"/>
        <pt x="967" y="1205" on="0"/>
        <pt x="1062" y="1194" on="0"/>
        <pt x="1163" y="1171" on="0"/>
        <pt x="1266" y="1139" on="0"/>
        <pt x="1316" y="1118" on="1"/>
        <pt x="1316" y="599" on="1"/>
        <pt x="1316" y="568" on="0"/>
        <pt x="1376" y="533" on="0"/>
        <pt x="1418" y="533" on="1"/>
        <pt x="1439" y="533" on="0"/>
        <pt x="1485" y="564" on="0"/>
        <pt x="1523" y="631" on="0"/>
        <pt x="1547" y="737" on="0"/>
        <pt x="1547" y="812" on="1"/>
        <pt x="1547" y="922" on="0"/>
        <pt x="1446" y="1116" on="0"/>
        <pt x="1271" y="1260" on="0"/>
        <pt x="1035" y="1344" on="0"/>
        <pt x="901" y="1344" on="1"/>
        <pt x="824" y="1344" on="0"/>
        <pt x="680" y="1302" on="0"/>
        <pt x="554" y="1225" on="0"/>
        <pt x="451" y="1118" on="0"/>
        <pt x="378" y="988" on="0"/>
        <pt x="337" y="838" on="0"/>
        <pt x="337" y="758" on="1"/>
        <pt x="337" y="615" on="0"/>
        <pt x="446" y="406" on="0"/>
        <pt x="626" y="268" on="0"/>
        <pt x="856" y="201" on="0"/>
        <pt x="978" y="201" on="1"/>
        <pt x="1115" y="201" on="0"/>
        <pt x="1386" y="241" on="0"/>
        <pt x="1507" y="281" on="1"/>
        <pt x="1507" y="32" on="1"/>
        <pt x="1379" y="-4" on="0"/>
        <pt x="1112" y="-40" on="0"/>
        <pt x="977" y="-40" on="1"/>
        <pt x="861" y="-40" on="0"/>
        <pt x="637" y="6" on="0"/>
        <pt x="435" y="97" on="0"/>
        <pt x="263" y="232" on="0"/>
        <pt x="138" y="409" on="0"/>
        <pt x="68" y="627" on="0"/>
        <pt x="68" y="757" on="1"/>
        <pt x="68" y="870" on="0"/>
        <pt x="128" y="1079" on="0"/>
        <pt x="236" y="1261" on="0"/>
        <pt x="388" y="1411" on="0"/>
        <pt x="573" y="1517" on="0"/>
        <pt x="785" y="1576" on="0"/>
        <pt x="900" y="1576" on="1"/>
        <pt x="1026" y="1576" on="0"/>
        <pt x="1260" y="1521" on="0"/>
        <pt x="1463" y="1421" on="0"/>
        <pt x="1629" y="1281" on="0"/>
        <pt x="1748" y="1111" on="0"/>
        <pt x="1813" y="916" on="0"/>
      </contour>
      <contour>
        <pt x="1040" y="1014" on="1"/>
        <pt x="1018" y="1017" on="0"/>
        <pt x="971" y="1020" on="0"/>
        <pt x="951" y="1020" on="1"/>
        <pt x="854" y="1020" on="0"/>
        <pt x="763" y="914" on="0"/>
        <pt x="763" y="796" on="1"/>
        <pt x="763" y="745" on="0"/>
        <pt x="779" y="658" on="0"/>
        <pt x="815" y="594" on="0"/>
        <pt x="871" y="557" on="0"/>
        <pt x="912" y="557" on="1"/>
        <pt x="939" y="557" on="0"/>
        <pt x="1002" y="574" on="0"/>
        <pt x="1040" y="594" on="1"/>
      </contour>
    </TTGlyph>
    <TTGlyph name="atilde" xMin="52" yMin="0" xMax="1615" yMax="2075">
      <component glyphName="tilde" x="306" y="39" flags="0x1004"/>
      <component glyphName="a" x="0" y="0" flags="0x1204"/>
    </TTGlyph>
    <TTGlyph name="b" xMin="94" yMin="0" xMax="1699" yMax="1408">
      <contour>
        <pt x="1308" y="1408" on="1"/>
        <pt x="1456" y="1373" on="0"/>
        <pt x="1603" y="1217" on="0"/>
        <pt x="1603" y="1083" on="1"/>
        <pt x="1603" y="993" on="0"/>
        <pt x="1563" y="869" on="0"/>
        <pt x="1502" y="789" on="0"/>
        <pt x="1431" y="746" on="0"/>
        <pt x="1370" y="726" on="0"/>
        <pt x="1329" y="723" on="0"/>
        <pt x="1329" y="723" on="1"/>
        <pt x="1365" y="721" on="0"/>
        <pt x="1449" y="708" on="0"/>
        <pt x="1531" y="681" on="0"/>
        <pt x="1607" y="638" on="0"/>
        <pt x="1664" y="572" on="0"/>
        <pt x="1699" y="482" on="0"/>
        <pt x="1699" y="422" on="1"/>
        <pt x="1699" y="332" on="0"/>
        <pt x="1653" y="177" on="0"/>
        <pt x="1536" y="64" on="0"/>
        <pt x="1338" y="0" on="0"/>
        <pt x="1185" y="0" on="1"/>
        <pt x="94" y="0" on="1"/>
        <pt x="94" y="399" on="1"/>
        <pt x="214" y="422" on="1"/>
        <pt x="214" y="1025" on="1"/>
        <pt x="94" y="1048" on="1"/>
        <pt x="94" y="1408" on="1"/>
      </contour>
      <contour>
        <pt x="1097" y="970" on="1"/>
        <pt x="1097" y="1021" on="0"/>
        <pt x="1064" y="1076" on="0"/>
        <pt x="1009" y="1102" on="0"/>
        <pt x="940" y="1106" on="0"/>
        <pt x="904" y="1106" on="1"/>
        <pt x="816" y="1106" on="1"/>
        <pt x="816" y="822" on="1"/>
        <pt x="904" y="822" on="1"/>
        <pt x="940" y="822" on="0"/>
        <pt x="1009" y="827" on="0"/>
        <pt x="1064" y="854" on="0"/>
        <pt x="1097" y="914" on="0"/>
      </contour>
      <contour>
        <pt x="1097" y="491" on="1"/>
        <pt x="1097" y="542" on="0"/>
        <pt x="1064" y="596" on="0"/>
        <pt x="1009" y="622" on="0"/>
        <pt x="940" y="626" on="0"/>
        <pt x="904" y="626" on="1"/>
        <pt x="816" y="626" on="1"/>
        <pt x="816" y="342" on="1"/>
        <pt x="904" y="342" on="1"/>
        <pt x="940" y="342" on="0"/>
        <pt x="1009" y="347" on="0"/>
        <pt x="1064" y="375" on="0"/>
        <pt x="1097" y="435" on="0"/>
      </contour>
    </TTGlyph>
    <TTGlyph name="backslash" xMin="53" yMin="0" xMax="1077" yMax="1536">
      <contour>
        <pt x="1077" y="0" on="1"/>
        <pt x="437" y="0" on="1"/>
        <pt x="53" y="1536" on="1"/>
        <pt x="693" y="1536" on="1"/>
      </contour>
    </TTGlyph>
    <TTGlyph name="bar" xMin="134" yMin="-128" xMax="647" yMax="1664">
      <contour>
        <pt x="134" y="1664" on="1"/>
        <pt x="647" y="1664" on="1"/>
        <pt x="647" y="-128" on="1"/>
        <pt x="134" y="-128" on="1"/>
      </contour>
    </TTGlyph>
    <TTGlyph name="braceleft" xMin="12" yMin="-41" xMax="917" yMax="1720">
      <contour>
        <pt x="12" y="1024" on="1"/>
        <pt x="80" y="1024" on="0"/>
        <pt x="173" y="1063" on="0"/>
        <pt x="235" y="1130" on="0"/>
        <pt x="274" y="1219" on="0"/>
        <pt x="301" y="1319" on="0"/>
        <pt x="324" y="1425" on="0"/>
        <pt x="355" y="1525" on="0"/>
        <pt x="402" y="1614" on="0"/>
        <pt x="476" y="1681" on="0"/>
        <pt x="586" y="1720" on="0"/>
        <pt x="664" y="1720" on="1"/>
        <pt x="722" y="1720" on="0"/>
        <pt x="848" y="1711" on="0"/>
        <pt x="917" y="1700" on="1"/>
        <pt x="917" y="1348" on="1"/>
        <pt x="848" y="1348" on="0"/>
        <pt x="764" y="1309" on="0"/>
        <pt x="717" y="1245" on="0"/>
        <pt x="697" y="1162" on="0"/>
        <pt x="686" y="1072" on="0"/>
        <pt x="677" y="983" on="0"/>
        <pt x="650" y="907" on="0"/>
        <pt x="597" y="851" on="0"/>
        <pt x="548" y="839" on="1"/>
        <pt x="597" y="827" on="0"/>
        <pt x="650" y="771" on="0"/>
        <pt x="677" y="695" on="0"/>
        <pt x="687" y="606" on="0"/>
        <pt x="697" y="516" on="0"/>
        <pt x="717" y="433" on="0"/>
        <pt x="764" y="369" on="0"/>
        <pt x="848" y="331" on="0"/>
        <pt x="917" y="331" on="1"/>
        <pt x="917" y="-21" on="1"/>
        <pt x="848" y="-32" on="0"/>
        <pt x="722" y="-41" on="0"/>
        <pt x="664" y="-41" on="1"/>
        <pt x="566" y="-41" on="0"/>
        <pt x="443" y="19" on="0"/>
        <pt x="368" y="117" on="0"/>
        <pt x="328" y="242" on="0"/>
        <pt x="297" y="372" on="0"/>
        <pt x="263" y="497" on="0"/>
        <pt x="201" y="595" on="0"/>
        <pt x="97" y="655" on="0"/>
        <pt x="12" y="655" on="1"/>
      </contour>
    </TTGlyph>
    <TTGlyph name="braceright" xMin="62" yMin="-41" xMax="967" yMax="1720">
      <contour>
        <pt x="967" y="655" on="1"/>
        <pt x="882" y="655" on="0"/>
        <pt x="778" y="595" on="0"/>
        <pt x="716" y="497" on="0"/>
        <pt x="682" y="372" on="0"/>
        <pt x="651" y="242" on="0"/>
        <pt x="611" y="117" on="0"/>
        <pt x="536" y="19" on="0"/>
        <pt x="413" y="-41" on="0"/>
        <pt x="315" y="-41" on="1"/>
        <pt x="257" y="-41" on="0"/>
        <pt x="131" y="-32" on="0"/>
        <pt x="62" y="-21" on="1"/>
        <pt x="62" y="331" on="1"/>
        <pt x="131" y="331" on="0"/>
        <pt x="215" y="369" on="0"/>
        <pt x="262" y="433" on="0"/>
        <pt x="282" y="516" on="0"/>
        <pt x="292" y="606" on="0"/>
        <pt x="302" y="695" on="0"/>
        <pt x="329" y="771" on="0"/>
        <pt x="382" y="827" on="0"/>
        <pt x="431" y="839" on="1"/>
        <pt x="382" y="851" on="0"/>
        <pt x="329" y="907" on="0"/>
        <pt x="302" y="983" on="0"/>
        <pt x="293" y="1072" on="0"/>
        <pt x="282" y="1162" on="0"/>
        <pt x="262" y="1245" on="0"/>
        <pt x="215" y="1309" on="0"/>
        <pt x="131" y="1348" on="0"/>
        <pt x="62" y="1348" on="1"/>
        <pt x="62" y="1700" on="1"/>
        <pt x="131" y="1711" on="0"/>
        <pt x="257" y="1720" on="0"/>
        <pt x="315" y="1720" on="1"/>
        <pt x="393" y="1720" on="0"/>
        <pt x="503" y="1681" on="0"/>
        <pt x="577" y="1614" on="0"/>
        <pt x="624" y="1525" on="0"/>
        <pt x="655" y="1425" on="0"/>
        <pt x="678" y="1319" on="0"/>
        <pt x="705" y="1219" on="0"/>
        <pt x="744" y="1130" on="0"/>
        <pt x="806" y="1063" on="0"/>
        <pt x="899" y="1024" on="0"/>
        <pt x="967" y="1024" on="1"/>
      </contour>
    </TTGlyph>
    <TTGlyph name="bracketleft" xMin="139" yMin="0" xMax="1164" yMax="1536">
      <contour>
        <pt x="139" y="1536" on="1"/>
        <pt x="1164" y="1536" on="1"/>
        <pt x="1164" y="1151" on="1"/>
        <pt x="1128" y="1163" on="0"/>
        <pt x="1044" y="1187" on="0"/>
        <pt x="947" y="1206" on="0"/>
        <pt x="838" y="1219" on="0"/>
        <pt x="779" y="1219" on="1"/>
        <pt x="779" y="316" on="1"/>
        <pt x="898" y="316" on="0"/>
        <pt x="1092" y="360" on="0"/>
        <pt x="1164" y="384" on="1"/>
        <pt x="1164" y="0" on="1"/>
        <pt x="139" y="0" on="1"/>
      </contour>
    </TTGlyph>
    <TTGlyph name="bracketright" xMin="78" yMin="0" xMax="1103" yMax="1536">
      <contour>
        <pt x="1103" y="0" on="1"/>
        <pt x="78" y="0" on="1"/>
        <pt x="78" y="384" on="1"/>
        <pt x="150" y="360" on="0"/>
        <pt x="343" y="316" on="0"/>
        <pt x="463" y="316" on="1"/>
        <pt x="463" y="1219" on="1"/>
        <pt x="343" y="1219" on="0"/>
        <pt x="150" y="1175" on="0"/>
        <pt x="78" y="1151" on="1"/>
        <pt x="78" y="1536" on="1"/>
        <pt x="1103" y="1536" on="1"/>
      </contour>
    </TTGlyph>
    <TTGlyph name="breve" xMin="65" yMin="1535" xMax="869" yMax="1980">
      <contour>
        <pt x="334" y="1980" on="1"/>
        <pt x="334" y="1942" on="0"/>
        <pt x="357" y="1886" on="0"/>
        <pt x="394" y="1847" on="0"/>
        <pt x="442" y="1828" on="0"/>
        <pt x="467" y="1828" on="1"/>
        <pt x="492" y="1828" on="0"/>
        <pt x="539" y="1847" on="0"/>
        <pt x="577" y="1886" on="0"/>
        <pt x="600" y="1942" on="0"/>
        <pt x="600" y="1980" on="1"/>
        <pt x="869" y="1980" on="1"/>
        <pt x="869" y="1868" on="0"/>
        <pt x="800" y="1701" on="0"/>
        <pt x="687" y="1590" on="0"/>
        <pt x="542" y="1535" on="0"/>
        <pt x="466" y="1535" on="1"/>
        <pt x="391" y="1535" on="0"/>
        <pt x="247" y="1590" on="0"/>
        <pt x="134" y="1701" on="0"/>
        <pt x="65" y="1868" on="0"/>
        <pt x="65" y="1980" on="1"/>
      </contour>
    </TTGlyph>
    <TTGlyph name="brokenbar" xMin="137" yMin="-128" xMax="650" yMax="1664">
      <contour>
        <pt x="137" y="1664" on="1"/>
        <pt x="650" y="1664" on="1"/>
        <pt x="650" y="896" on="1"/>
        <pt x="137" y="896" on="1"/>
      </contour>
      <contour>
        <pt x="137" y="704" on="1"/>
        <pt x="650" y="704" on="1"/>
        <pt x="650" y="-128" on="1"/>
        <pt x="137" y="-128" on="1"/>
      </contour>
    </TTGlyph>
    <TTGlyph name="bullet" xMin="57" yMin="286" xMax="826" yMax="993">
      <contour>
        <pt x="826" y="641" on="1"/>
        <pt x="826" y="552" on="0"/>
        <pt x="760" y="419" on="0"/>
        <pt x="651" y="331" on="0"/>
        <pt x="512" y="286" on="0"/>
        <pt x="440" y="286" on="1"/>
        <pt x="368" y="286" on="0"/>
        <pt x="230" y="330" on="0"/>
        <pt x="123" y="419" on="0"/>
        <pt x="57" y="552" on="0"/>
        <pt x="57" y="641" on="1"/>
        <pt x="57" y="729" on="0"/>
        <pt x="123" y="861" on="0"/>
        <pt x="230" y="949" on="0"/>
        <pt x="368" y="993" on="0"/>
        <pt x="440" y="993" on="1"/>
        <pt x="512" y="993" on="0"/>
        <pt x="651" y="949" on="0"/>
        <pt x="760" y="861" on="0"/>
        <pt x="826" y="729" on="0"/>
      </contour>
    </TTGlyph>
    <TTGlyph name="c" xMin="61" yMin="-18" xMax="1449" yMax="1446">
      <contour>
        <pt x="664" y="723" on="1"/>
        <pt x="664" y="564" on="0"/>
        <pt x="826" y="419" on="0"/>
        <pt x="975" y="419" on="1"/>
        <pt x="1063" y="419" on="0"/>
        <pt x="1300" y="463" on="0"/>
        <pt x="1449" y="508" on="1"/>
        <pt x="1449" y="73" on="1"/>
        <pt x="1149" y="-18" on="0"/>
        <pt x="872" y="-18" on="1"/>
        <pt x="700" y="-18" on="0"/>
        <pt x="404" y="63" on="0"/>
        <pt x="186" y="249" on="0"/>
        <pt x="61" y="532" on="0"/>
        <pt x="61" y="723" on="1"/>
        <pt x="61" y="912" on="0"/>
        <pt x="176" y="1185" on="0"/>
        <pt x="387" y="1362" on="0"/>
        <pt x="683" y="1446" on="0"/>
        <pt x="865" y="1446" on="1"/>
        <pt x="976" y="1446" on="0"/>
        <pt x="1155" y="1424" on="0"/>
        <pt x="1298" y="1390" on="0"/>
        <pt x="1407" y="1349" on="0"/>
        <pt x="1449" y="1330" on="1"/>
        <pt x="1449" y="895" on="1"/>
        <pt x="1166" y="895" on="1"/>
        <pt x="1118" y="961" on="0"/>
        <pt x="1002" y="1024" on="0"/>
        <pt x="939" y="1024" on="1"/>
        <pt x="887" y="1024" on="0"/>
        <pt x="788" y="984" on="0"/>
        <pt x="711" y="907" on="0"/>
        <pt x="664" y="795" on="0"/>
      </contour>
    </TTGlyph>
    <TTGlyph name="cacute" xMin="61" yMin="-18" xMax="1481" yMax="2208">
      <component glyphName="acute" x="612" y="-96" flags="0x1004"/>
      <component glyphName="c" x="0" y="0" flags="0x1204"/>
    </TTGlyph>
    <TTGlyph name="caron" xMin="53" yMin="1664" xMax="1222" yMax="2303">
      <contour>
        <pt x="478" y="2303" on="1"/>
        <pt x="638" y="1920" on="1"/>
        <pt x="797" y="2303" on="1"/>
        <pt x="1222" y="2303" on="1"/>
        <pt x="883" y="1664" on="1"/>
        <pt x="393" y="1664" on="1"/>
        <pt x="53" y="2303" on="1"/>
      </contour>
    </TTGlyph>
    <TTGlyph name="ccaron" xMin="61" yMin="-18" xMax="1450" yMax="2207">
      <component glyphName="caron" x="228" y="-96" flags="0x1004"/>
      <component glyphName="c" x="0" y="0" flags="0x1204"/>
    </TTGlyph>
    <TTGlyph name="ccedilla" xMin="61" yMin="-885" xMax="1449" yMax="1446">
      <component glyphName="cedilla" x="668" y="-116" flags="0x1004"/>
      <component glyphName="c" x="0" y="0" flags="0x1204"/>
    </TTGlyph>
    <TTGlyph name="cedilla" xMin="93" yMin="-769" xMax="692" yMax="128">
      <contour>
        <pt x="432" y="-442" on="1"/>
        <pt x="432" y="-411" on="0"/>
        <pt x="412" y="-362" on="0"/>
        <pt x="378" y="-329" on="0"/>
        <pt x="335" y="-311" on="0"/>
        <pt x="313" y="-311" on="1"/>
        <pt x="286" y="-311" on="0"/>
        <pt x="235" y="-339" on="0"/>
        <pt x="215" y="-368" on="1"/>
        <pt x="93" y="-368" on="1"/>
        <pt x="93" y="128" on="1"/>
        <pt x="314" y="128" on="1"/>
        <pt x="314" y="-129" on="1"/>
        <pt x="325" y="-129" on="1"/>
        <pt x="330" y="-129" on="0"/>
        <pt x="340" y="-128" on="0"/>
        <pt x="345" y="-128" on="1"/>
        <pt x="424" y="-128" on="0"/>
        <pt x="552" y="-165" on="0"/>
        <pt x="643" y="-241" on="0"/>
        <pt x="692" y="-360" on="0"/>
        <pt x="692" y="-442" on="1"/>
        <pt x="692" y="-526" on="0"/>
        <pt x="638" y="-649" on="0"/>
        <pt x="544" y="-730" on="0"/>
        <pt x="416" y="-769" on="0"/>
        <pt x="341" y="-769" on="1"/>
        <pt x="283" y="-769" on="0"/>
        <pt x="157" y="-747" on="0"/>
        <pt x="93" y="-725" on="1"/>
        <pt x="93" y="-535" on="1"/>
        <pt x="156" y="-554" on="0"/>
        <pt x="261" y="-573" on="0"/>
        <pt x="296" y="-573" on="1"/>
        <pt x="362" y="-573" on="0"/>
        <pt x="432" y="-511" on="0"/>
      </contour>
    </TTGlyph>
    <TTGlyph name="cent" xMin="54" yMin="-258" xMax="1442" yMax="1664">
      <contour>
        <pt x="669" y="-21" on="1"/>
        <pt x="534" y="2" on="0"/>
        <pt x="309" y="116" on="0"/>
        <pt x="145" y="301" on="0"/>
        <pt x="54" y="558" on="0"/>
        <pt x="54" y="723" on="1"/>
        <pt x="54" y="887" on="0"/>
        <pt x="140" y="1136" on="0"/>
        <pt x="299" y="1312" on="0"/>
        <pt x="527" y="1417" on="0"/>
        <pt x="669" y="1437" on="1"/>
        <pt x="669" y="1664" on="1"/>
        <pt x="1054" y="1664" on="1"/>
        <pt x="1054" y="1438" on="1"/>
        <pt x="1128" y="1429" on="0"/>
        <pt x="1247" y="1405" on="0"/>
        <pt x="1342" y="1377" on="0"/>
        <pt x="1415" y="1348" on="0"/>
        <pt x="1442" y="1334" on="1"/>
        <pt x="1442" y="895" on="1"/>
        <pt x="1159" y="895" on="1"/>
        <pt x="1111" y="961" on="0"/>
        <pt x="995" y="1024" on="0"/>
        <pt x="932" y="1024" on="1"/>
        <pt x="880" y="1024" on="0"/>
        <pt x="781" y="984" on="0"/>
        <pt x="704" y="907" on="0"/>
        <pt x="657" y="795" on="0"/>
        <pt x="657" y="723" on="1"/>
        <pt x="657" y="564" on="0"/>
        <pt x="819" y="419" on="0"/>
        <pt x="968" y="419" on="1"/>
        <pt x="1056" y="419" on="0"/>
        <pt x="1297" y="463" on="0"/>
        <pt x="1442" y="508" on="1"/>
        <pt x="1442" y="65" on="1"/>
        <pt x="1244" y="-1" on="0"/>
        <pt x="1054" y="-25" on="1"/>
        <pt x="1054" y="-258" on="1"/>
        <pt x="669" y="-258" on="1"/>
      </contour>
    </TTGlyph>
    <TTGlyph name="circumflex" xMin="53" yMin="1664" xMax="1222" yMax="2303">
      <contour>
        <pt x="53" y="1664" on="1"/>
        <pt x="393" y="2303" on="1"/>
        <pt x="883" y="2303" on="1"/>
        <pt x="1222" y="1664" on="1"/>
        <pt x="797" y="1664" on="1"/>
        <pt x="638" y="2047" on="1"/>
        <pt x="478" y="1664" on="1"/>
      </contour>
    </TTGlyph>
    <TTGlyph name="colon" xMin="145" yMin="0" xMax="785" yMax="1408">
      <contour>
        <pt x="145" y="1408" on="1"/>
        <pt x="785" y="1408" on="1"/>
        <pt x="785" y="896" on="1"/>
        <pt x="145" y="896" on="1"/>
      </contour>
      <contour>
        <pt x="145" y="512" on="1"/>
        <pt x="785" y="512" on="1"/>
        <pt x="785" y="0" on="1"/>
        <pt x="145" y="0" on="1"/>
      </contour>
    </TTGlyph>
    <TTGlyph name="comma" xMin="104" yMin="-452" xMax="744" yMax="512">
      <contour>
        <pt x="104" y="512" on="1"/>
        <pt x="744" y="512" on="1"/>
        <pt x="744" y="1" on="1"/>
        <pt x="744" y="-126" on="0"/>
        <pt x="656" y="-299" on="0"/>
        <pt x="512" y="-406" on="0"/>
        <pt x="328" y="-452" on="0"/>
        <pt x="232" y="-452" on="1"/>
        <pt x="232" y="-128" on="1"/>
        <pt x="251" y="-127" on="0"/>
        <pt x="295" y="-115" on="0"/>
        <pt x="333" y="-87" on="0"/>
        <pt x="359" y="-38" on="0"/>
        <pt x="359" y="0" on="1"/>
        <pt x="104" y="0" on="1"/>
      </contour>
    </TTGlyph>
    <TTGlyph name="copyright" xMin="61" yMin="-41" xMax="1677" yMax="1575">
      <contour>
        <pt x="61" y="767" on="1"/>
        <pt x="61" y="879" on="0"/>
        <pt x="119" y="1085" on="0"/>
        <pt x="224" y="1265" on="0"/>
        <pt x="371" y="1412" on="0"/>
        <pt x="551" y="1517" on="0"/>
        <pt x="757" y="1575" on="0"/>
        <pt x="869" y="1575" on="1"/>
        <pt x="980" y="1575" on="0"/>
        <pt x="1186" y="1517" on="0"/>
        <pt x="1366" y="1412" on="0"/>
        <pt x="1514" y="1265" on="0"/>
        <pt x="1619" y="1085" on="0"/>
        <pt x="1677" y="879" on="0"/>
        <pt x="1677" y="767" on="1"/>
        <pt x="1677" y="655" on="0"/>
        <pt x="1619" y="449" on="0"/>
        <pt x="1514" y="270" on="0"/>
        <pt x="1366" y="122" on="0"/>
        <pt x="1186" y="17" on="0"/>
        <pt x="980" y="-41" on="0"/>
        <pt x="869" y="-41" on="1"/>
        <pt x="757" y="-41" on="0"/>
        <pt x="551" y="17" on="0"/>
        <pt x="371" y="122" on="0"/>
        <pt x="224" y="270" on="0"/>
        <pt x="119" y="449" on="0"/>
        <pt x="61" y="655" on="0"/>
      </contour>
      <contour>
        <pt x="207" y="767" on="1"/>
        <pt x="207" y="676" on="0"/>
        <pt x="254" y="506" on="0"/>
        <pt x="340" y="359" on="0"/>
        <pt x="461" y="238" on="0"/>
        <pt x="608" y="152" on="0"/>
        <pt x="777" y="105" on="0"/>
        <pt x="869" y="105" on="1"/>
        <pt x="960" y="105" on="0"/>
        <pt x="1130" y="152" on="0"/>
        <pt x="1277" y="238" on="0"/>
        <pt x="1398" y="359" on="0"/>
        <pt x="1484" y="506" on="0"/>
        <pt x="1531" y="675" on="0"/>
        <pt x="1531" y="767" on="1"/>
        <pt x="1531" y="858" on="0"/>
        <pt x="1484" y="1028" on="0"/>
        <pt x="1398" y="1175" on="0"/>
        <pt x="1277" y="1296" on="0"/>
        <pt x="1130" y="1382" on="0"/>
        <pt x="960" y="1429" on="0"/>
        <pt x="869" y="1429" on="1"/>
        <pt x="778" y="1429" on="0"/>
        <pt x="608" y="1382" on="0"/>
        <pt x="461" y="1296" on="0"/>
        <pt x="340" y="1175" on="0"/>
        <pt x="254" y="1028" on="0"/>
        <pt x="207" y="858" on="0"/>
      </contour>
      <contour>
        <pt x="761" y="769" on="1"/>
        <pt x="761" y="673" on="0"/>
        <pt x="855" y="588" on="0"/>
        <pt x="945" y="588" on="1"/>
        <pt x="996" y="588" on="0"/>
        <pt x="1142" y="615" on="0"/>
        <pt x="1227" y="641" on="1"/>
        <pt x="1227" y="378" on="1"/>
        <pt x="1139" y="349" on="0"/>
        <pt x="966" y="318" on="0"/>
        <pt x="885" y="318" on="1"/>
        <pt x="783" y="318" on="0"/>
        <pt x="606" y="372" on="0"/>
        <pt x="477" y="484" on="0"/>
        <pt x="403" y="653" on="0"/>
        <pt x="403" y="769" on="1"/>
        <pt x="403" y="881" on="0"/>
        <pt x="471" y="1044" on="0"/>
        <pt x="595" y="1149" on="0"/>
        <pt x="772" y="1200" on="0"/>
        <pt x="880" y="1200" on="1"/>
        <pt x="946" y="1200" on="0"/>
        <pt x="1052" y="1187" on="0"/>
        <pt x="1138" y="1167" on="0"/>
        <pt x="1203" y="1142" on="0"/>
        <pt x="1227" y="1131" on="1"/>
        <pt x="1227" y="870" on="1"/>
        <pt x="1059" y="870" on="1"/>
        <pt x="1031" y="910" on="0"/>
        <pt x="961" y="947" on="0"/>
        <pt x="924" y="947" on="1"/>
        <pt x="893" y="947" on="0"/>
        <pt x="835" y="923" on="0"/>
        <pt x="789" y="878" on="0"/>
        <pt x="761" y="811" on="0"/>
      </contour>
    </TTGlyph>
    <TTGlyph name="currency" xMin="78" yMin="372" xMax="1254" yMax="1548">
      <contour>
        <pt x="1180" y="960" on="1"/>
        <pt x="1180" y="879" on="0"/>
        <pt x="1145" y="747" on="0"/>
        <pt x="1114" y="692" on="1"/>
        <pt x="1254" y="553" on="1"/>
        <pt x="1073" y="372" on="1"/>
        <pt x="932" y="513" on="1"/>
        <pt x="871" y="479" on="0"/>
        <pt x="736" y="446" on="0"/>
        <pt x="666" y="446" on="1"/>
        <pt x="597" y="446" on="0"/>
        <pt x="461" y="480" on="0"/>
        <pt x="401" y="514" on="1"/>
        <pt x="259" y="372" on="1"/>
        <pt x="78" y="553" on="1"/>
        <pt x="220" y="695" on="1"/>
        <pt x="190" y="749" on="0"/>
        <pt x="156" y="882" on="0"/>
        <pt x="156" y="960" on="1"/>
        <pt x="156" y="1038" on="0"/>
        <pt x="190" y="1170" on="0"/>
        <pt x="220" y="1224" on="1"/>
        <pt x="78" y="1367" on="1"/>
        <pt x="259" y="1548" on="1"/>
        <pt x="403" y="1403" on="1"/>
        <pt x="463" y="1436" on="0"/>
        <pt x="597" y="1469" on="0"/>
        <pt x="666" y="1469" on="1"/>
        <pt x="735" y="1469" on="0"/>
        <pt x="869" y="1436" on="0"/>
        <pt x="929" y="1404" on="1"/>
        <pt x="1073" y="1548" on="1"/>
        <pt x="1254" y="1367" on="1"/>
        <pt x="1113" y="1226" on="1"/>
        <pt x="1145" y="1172" on="0"/>
        <pt x="1180" y="1039" on="0"/>
      </contour>
      <contour>
        <pt x="889" y="954" on="1"/>
        <pt x="889" y="1012" on="0"/>
        <pt x="851" y="1099" on="0"/>
        <pt x="788" y="1158" on="0"/>
        <pt x="708" y="1188" on="0"/>
        <pt x="666" y="1188" on="1"/>
        <pt x="625" y="1188" on="0"/>
        <pt x="546" y="1158" on="0"/>
        <pt x="485" y="1100" on="0"/>
        <pt x="447" y="1012" on="0"/>
        <pt x="447" y="954" on="1"/>
        <pt x="447" y="895" on="0"/>
        <pt x="485" y="806" on="0"/>
        <pt x="547" y="747" on="0"/>
        <pt x="626" y="718" on="0"/>
        <pt x="667" y="718" on="1"/>
        <pt x="709" y="718" on="0"/>
        <pt x="789" y="748" on="0"/>
        <pt x="851" y="807" on="0"/>
        <pt x="889" y="895" on="0"/>
      </contour>
    </TTGlyph>
    <TTGlyph name="d" xMin="94" yMin="0" xMax="1778" yMax="1408">
      <contour>
        <pt x="1189" y="1408" on="1"/>
        <pt x="1325" y="1379" on="0"/>
        <pt x="1543" y="1273" on="0"/>
        <pt x="1696" y="1108" on="0"/>
        <pt x="1778" y="877" on="0"/>
        <pt x="1778" y="723" on="1"/>
        <pt x="1778" y="588" on="0"/>
        <pt x="1715" y="375" on="0"/>
        <pt x="1598" y="214" on="0"/>
        <pt x="1428" y="102" on="0"/>
        <pt x="1215" y="32" on="0"/>
        <pt x="960" y="0" on="0"/>
        <pt x="816" y="0" on="1"/>
        <pt x="94" y="0" on="1"/>
        <pt x="94" y="399" on="1"/>
        <pt x="214" y="422" on="1"/>
        <pt x="214" y="1025" on="1"/>
        <pt x="94" y="1048" on="1"/>
        <pt x="94" y="1408" on="1"/>
      </contour>
      <contour>
        <pt x="908" y="422" on="1"/>
        <pt x="975" y="422" on="0"/>
        <pt x="1067" y="442" on="0"/>
        <pt x="1126" y="478" on="0"/>
        <pt x="1159" y="532" on="0"/>
        <pt x="1174" y="598" on="0"/>
        <pt x="1176" y="678" on="0"/>
        <pt x="1176" y="723" on="1"/>
        <pt x="1176" y="768" on="0"/>
        <pt x="1174" y="848" on="0"/>
        <pt x="1159" y="915" on="0"/>
        <pt x="1126" y="968" on="0"/>
        <pt x="1067" y="1005" on="0"/>
        <pt x="975" y="1025" on="0"/>
        <pt x="908" y="1025" on="1"/>
        <pt x="816" y="1025" on="1"/>
        <pt x="816" y="422" on="1"/>
      </contour>
    </TTGlyph>
    <TTGlyph name="dagger" xMin="60" yMin="320" xMax="956" yMax="1536">
      <contour>
        <pt x="60" y="1280" on="1"/>
        <pt x="316" y="1280" on="1"/>
        <pt x="316" y="1536" on="1"/>
        <pt x="700" y="1536" on="1"/>
        <pt x="700" y="1280" on="1"/>
        <pt x="956" y="1280" on="1"/>
        <pt x="956" y="960" on="1"/>
        <pt x="700" y="960" on="1"/>
        <pt x="700" y="320" on="1"/>
        <pt x="316" y="320" on="1"/>
        <pt x="316" y="960" on="1"/>
        <pt x="60" y="960" on="1"/>
      </contour>
    </TTGlyph>
    <TTGlyph name="daggerdbl" xMin="107" yMin="320" xMax="1003" yMax="1536">
      <contour>
        <pt x="107" y="1280" on="1"/>
        <pt x="363" y="1280" on="1"/>
        <pt x="363" y="1536" on="1"/>
        <pt x="747" y="1536" on="1"/>
        <pt x="747" y="1280" on="1"/>
        <pt x="1003" y="1280" on="1"/>
        <pt x="1003" y="960" on="1"/>
        <pt x="747" y="960" on="1"/>
        <pt x="747" y="768" on="1"/>
        <pt x="1003" y="768" on="1"/>
        <pt x="1003" y="448" on="1"/>
        <pt x="747" y="448" on="1"/>
        <pt x="747" y="320" on="1"/>
        <pt x="363" y="320" on="1"/>
        <pt x="363" y="448" on="1"/>
        <pt x="107" y="448" on="1"/>
        <pt x="107" y="768" on="1"/>
        <pt x="363" y="768" on="1"/>
        <pt x="363" y="960" on="1"/>
        <pt x="107" y="960" on="1"/>
      </contour>
    </TTGlyph>
    <TTGlyph name="dcaron" xMin="94" yMin="0" xMax="2601" yMax="1446">
      <component glyphName="comma" x="1857" y="934" flags="0x1004"/>
      <component glyphName="d" x="0" y="0" flags="0x1004"/>
    </TTGlyph>
    <TTGlyph name="dcroat" xMin="94" yMin="0" xMax="1779" yMax="1408">
      <contour>
        <pt x="1190" y="1408" on="1"/>
        <pt x="1326" y="1379" on="0"/>
        <pt x="1544" y="1273" on="0"/>
        <pt x="1697" y="1108" on="0"/>
        <pt x="1779" y="877" on="0"/>
        <pt x="1779" y="723" on="1"/>
        <pt x="1779" y="588" on="0"/>
        <pt x="1716" y="375" on="0"/>
        <pt x="1599" y="214" on="0"/>
        <pt x="1429" y="102" on="0"/>
        <pt x="1216" y="32" on="0"/>
        <pt x="961" y="0" on="0"/>
        <pt x="817" y="0" on="1"/>
        <pt x="95" y="0" on="1"/>
        <pt x="95" y="399" on="1"/>
        <pt x="215" y="422" on="1"/>
        <pt x="215" y="598" on="1"/>
        <pt x="94" y="598" on="1"/>
        <pt x="94" y="854" on="1"/>
        <pt x="215" y="854" on="1"/>
        <pt x="215" y="1025" on="1"/>
        <pt x="95" y="1048" on="1"/>
        <pt x="95" y="1408" on="1"/>
      </contour>
      <contour>
        <pt x="909" y="422" on="1"/>
        <pt x="976" y="422" on="0"/>
        <pt x="1068" y="442" on="0"/>
        <pt x="1127" y="478" on="0"/>
        <pt x="1160" y="532" on="0"/>
        <pt x="1175" y="598" on="0"/>
        <pt x="1177" y="678" on="0"/>
        <pt x="1177" y="723" on="1"/>
        <pt x="1177" y="768" on="0"/>
        <pt x="1175" y="848" on="0"/>
        <pt x="1160" y="915" on="0"/>
        <pt x="1127" y="968" on="0"/>
        <pt x="1068" y="1005" on="0"/>
        <pt x="976" y="1025" on="0"/>
        <pt x="909" y="1025" on="1"/>
        <pt x="817" y="1025" on="1"/>
        <pt x="817" y="854" on="1"/>
        <pt x="945" y="854" on="1"/>
        <pt x="945" y="598" on="1"/>
        <pt x="817" y="598" on="1"/>
        <pt x="817" y="422" on="1"/>
      </contour>
    </TTGlyph>
    <TTGlyph name="degree" xMin="56" yMin="800" xMax="860" yMax="1576">
      <contour>
        <pt x="860" y="1190" on="1"/>
        <pt x="860" y="1092" on="0"/>
        <pt x="791" y="946" on="0"/>
        <pt x="678" y="849" on="0"/>
        <pt x="533" y="800" on="0"/>
        <pt x="457" y="800" on="1"/>
        <pt x="382" y="800" on="0"/>
        <pt x="238" y="849" on="0"/>
        <pt x="125" y="946" on="0"/>
        <pt x="56" y="1092" on="0"/>
        <pt x="56" y="1190" on="1"/>
        <pt x="56" y="1286" on="0"/>
        <pt x="125" y="1431" on="0"/>
        <pt x="237" y="1528" on="0"/>
        <pt x="382" y="1576" on="0"/>
        <pt x="457" y="1576" on="1"/>
        <pt x="532" y="1576" on="0"/>
        <pt x="677" y="1528" on="0"/>
        <pt x="791" y="1431" on="0"/>
        <pt x="860" y="1286" on="0"/>
      </contour>
      <contour>
        <pt x="631" y="1185" on="1"/>
        <pt x="631" y="1233" on="0"/>
        <pt x="601" y="1306" on="0"/>
        <pt x="552" y="1355" on="0"/>
        <pt x="490" y="1380" on="0"/>
        <pt x="457" y="1380" on="1"/>
        <pt x="425" y="1380" on="0"/>
        <pt x="363" y="1356" on="0"/>
        <pt x="315" y="1307" on="0"/>
        <pt x="285" y="1234" on="0"/>
        <pt x="285" y="1185" on="1"/>
        <pt x="285" y="1135" on="0"/>
        <pt x="315" y="1062" on="0"/>
        <pt x="363" y="1012" on="0"/>
        <pt x="425" y="988" on="0"/>
        <pt x="458" y="988" on="1"/>
        <pt x="491" y="988" on="0"/>
        <pt x="553" y="1013" on="0"/>
        <pt x="601" y="1062" on="0"/>
        <pt x="631" y="1136" on="0"/>
      </contour>
    </TTGlyph>
    <TTGlyph name="dieresis" xMin="95" yMin="1664" xMax="1264" yMax="2048">
      <contour>
        <pt x="839" y="2048" on="1"/>
        <pt x="1264" y="2048" on="1"/>
        <pt x="1264" y="1664" on="1"/>
        <pt x="839" y="1664" on="1"/>
      </contour>
      <contour>
        <pt x="520" y="2048" on="1"/>
        <pt x="520" y="1664" on="1"/>
        <pt x="95" y="1664" on="1"/>
        <pt x="95" y="2048" on="1"/>
      </contour>
    </TTGlyph>
    <TTGlyph name="divide" xMin="74" yMin="0" xMax="842" yMax="1280">
      <contour>
        <pt x="266" y="1280" on="1"/>
        <pt x="650" y="1280" on="1"/>
        <pt x="650" y="896" on="1"/>
        <pt x="266" y="896" on="1"/>
      </contour>
      <contour>
        <pt x="74" y="768" on="1"/>
        <pt x="842" y="768" on="1"/>
        <pt x="842" y="512" on="1"/>
        <pt x="74" y="512" on="1"/>
      </contour>
      <contour>
        <pt x="266" y="384" on="1"/>
        <pt x="650" y="384" on="1"/>
        <pt x="650" y="0" on="1"/>
        <pt x="266" y="0" on="1"/>
      </contour>
    </TTGlyph>
    <TTGlyph name="dollar" xMin="62" yMin="-385" xMax="1396" yMax="1920">
      <contour>
        <pt x="599" y="-36" on="1"/>
        <pt x="499" y="-30" on="0"/>
        <pt x="340" y="-4" on="0"/>
        <pt x="214" y="30" on="0"/>
        <pt x="115" y="68" on="0"/>
        <pt x="75" y="87" on="1"/>
        <pt x="75" y="494" on="1"/>
        <pt x="376" y="494" on="1"/>
        <pt x="428" y="422" on="0"/>
        <pt x="559" y="354" on="0"/>
        <pt x="628" y="354" on="1"/>
        <pt x="646" y="354" on="0"/>
        <pt x="690" y="360" on="0"/>
        <pt x="729" y="388" on="0"/>
        <pt x="756" y="448" on="0"/>
        <pt x="756" y="502" on="1"/>
        <pt x="670" y="510" on="0"/>
        <pt x="501" y="540" on="0"/>
        <pt x="347" y="592" on="0"/>
        <pt x="214" y="671" on="0"/>
        <pt x="117" y="783" on="0"/>
        <pt x="62" y="934" on="0"/>
        <pt x="62" y="1033" on="1"/>
        <pt x="62" y="1177" on="0"/>
        <pt x="151" y="1372" on="0"/>
        <pt x="300" y="1496" on="0"/>
        <pt x="494" y="1558" on="0"/>
        <pt x="599" y="1569" on="1"/>
        <pt x="599" y="1920" on="1"/>
        <pt x="919" y="1920" on="1"/>
        <pt x="919" y="1567" on="1"/>
        <pt x="1004" y="1558" on="0"/>
        <pt x="1141" y="1531" on="0"/>
        <pt x="1249" y="1500" on="0"/>
        <pt x="1331" y="1466" on="0"/>
        <pt x="1363" y="1450" on="1"/>
        <pt x="1363" y="1043" on="1"/>
        <pt x="1062" y="1043" on="1"/>
        <pt x="1011" y="1115" on="0"/>
        <pt x="886" y="1183" on="0"/>
        <pt x="820" y="1183" on="1"/>
        <pt x="802" y="1183" on="0"/>
        <pt x="756" y="1174" on="0"/>
        <pt x="716" y="1141" on="0"/>
        <pt x="688" y="1078" on="0"/>
        <pt x="688" y="1024" on="1"/>
        <pt x="863" y="1018" on="0"/>
        <pt x="1129" y="954" on="0"/>
        <pt x="1306" y="825" on="0"/>
        <pt x="1396" y="624" on="0"/>
        <pt x="1396" y="482" on="1"/>
        <pt x="1396" y="359" on="0"/>
        <pt x="1319" y="183" on="0"/>
        <pt x="1188" y="63" on="0"/>
        <pt x="1015" y="-6" on="0"/>
        <pt x="919" y="-22" on="1"/>
        <pt x="919" y="-385" on="1"/>
        <pt x="599" y="-385" on="1"/>
      </contour>
    </TTGlyph>
    <TTGlyph name="dotaccent" xMin="95" yMin="1664" xMax="735" yMax="2176">
      <contour>
        <pt x="95" y="2176" on="1"/>
        <pt x="735" y="2176" on="1"/>
        <pt x="735" y="1664" on="1"/>
        <pt x="95" y="1664" on="1"/>
      </contour>
    </TTGlyph>
    <TTGlyph name="dotlessi" xMin="97" yMin="0" xMax="939" yMax="1408">
      <contour>
        <pt x="97" y="1408" on="1"/>
        <pt x="939" y="1408" on="1"/>
        <pt x="939" y="1014" on="1"/>
        <pt x="819" y="991" on="1"/>
        <pt x="819" y="422" on="1"/>
        <pt x="939" y="399" on="1"/>
        <pt x="939" y="0" on="1"/>
        <pt x="97" y="0" on="1"/>
        <pt x="97" y="399" on="1"/>
        <pt x="217" y="422" on="1"/>
        <pt x="217" y="991" on="1"/>
        <pt x="97" y="1014" on="1"/>
      </contour>
    </TTGlyph>
    <TTGlyph name="e" xMin="96" yMin="0" xMax="1332" yMax="1408">
      <contour>
        <pt x="818" y="789" on="1"/>
        <pt x="1095" y="848" on="1"/>
        <pt x="1095" y="563" on="1"/>
        <pt x="818" y="623" on="1"/>
        <pt x="818" y="402" on="1"/>
        <pt x="878" y="402" on="0"/>
        <pt x="990" y="419" on="0"/>
        <pt x="1086" y="449" on="0"/>
        <pt x="1166" y="489" on="0"/>
        <pt x="1195" y="512" on="1"/>
        <pt x="1332" y="512" on="1"/>
        <pt x="1332" y="0" on="1"/>
        <pt x="96" y="0" on="1"/>
        <pt x="96" y="399" on="1"/>
        <pt x="216" y="422" on="1"/>
        <pt x="216" y="989" on="1"/>
        <pt x="96" y="1012" on="1"/>
        <pt x="96" y="1408" on="1"/>
        <pt x="1332" y="1408" on="1"/>
        <pt x="1332" y="896" on="1"/>
        <pt x="1195" y="896" on="1"/>
        <pt x="1166" y="918" on="0"/>
        <pt x="1086" y="958" on="0"/>
        <pt x="990" y="988" on="0"/>
        <pt x="878" y="1006" on="0"/>
        <pt x="818" y="1006" on="1"/>
      </contour>
    </TTGlyph>
    <TTGlyph name="eacute" xMin="96" yMin="0" xMax="1332" yMax="2208">
      <component glyphName="acute" x="462" y="-96" flags="0x1004"/>
      <component glyphName="e" x="0" y="0" flags="0x1204"/>
    </TTGlyph>
    <TTGlyph name="ecaron" xMin="96" yMin="0" xMax="1332" yMax="2207">
      <component glyphName="caron" x="76" y="-96" flags="0x1004"/>
      <component glyphName="e" x="0" y="0" flags="0x1204"/>
    </TTGlyph>
    <TTGlyph name="ecircumflex" xMin="96" yMin="0" xMax="1332" yMax="2207">
      <component glyphName="circumflex" x="76" y="-96" flags="0x1004"/>
      <component glyphName="e" x="0" y="0" flags="0x1204"/>
    </TTGlyph>
    <TTGlyph name="edieresis" xMin="96" yMin="0" xMax="1332" yMax="1952">
      <component glyphName="dieresis" x="34" y="-96" flags="0x1004"/>
      <component glyphName="e" x="0" y="0" flags="0x1204"/>
    </TTGlyph>
    <TTGlyph name="egrave" xMin="96" yMin="0" xMax="1332" yMax="2208">
      <component glyphName="grave" x="66" y="-96" flags="0x1004"/>
      <component glyphName="e" x="0" y="0" flags="0x1204"/>
    </TTGlyph>
    <TTGlyph name="eight" xMin="61" yMin="-29" xMax="1531" yMax="1559">
      <contour>
        <pt x="1481" y="1130" on="1"/>
        <pt x="1481" y="1021" on="0"/>
        <pt x="1359" y="851" on="0"/>
        <pt x="1253" y="788" on="1"/>
        <pt x="1316" y="758" on="0"/>
        <pt x="1419" y="683" on="0"/>
        <pt x="1492" y="594" on="0"/>
        <pt x="1531" y="493" on="0"/>
        <pt x="1531" y="436" on="1"/>
        <pt x="1531" y="318" on="0"/>
        <pt x="1441" y="143" on="0"/>
        <pt x="1255" y="28" on="0"/>
        <pt x="971" y="-29" on="0"/>
        <pt x="778" y="-29" on="1"/>
        <pt x="593" y="-29" on="0"/>
        <pt x="323" y="32" on="0"/>
        <pt x="147" y="150" on="0"/>
        <pt x="61" y="323" on="0"/>
        <pt x="61" y="436" on="1"/>
        <pt x="61" y="493" on="0"/>
        <pt x="100" y="594" on="0"/>
        <pt x="172" y="683" on="0"/>
        <pt x="275" y="758" on="0"/>
        <pt x="338" y="788" on="1"/>
        <pt x="232" y="851" on="0"/>
        <pt x="111" y="1021" on="0"/>
        <pt x="111" y="1130" on="1"/>
        <pt x="111" y="1233" on="0"/>
        <pt x="191" y="1393" on="0"/>
        <pt x="359" y="1502" on="0"/>
        <pt x="617" y="1559" on="0"/>
        <pt x="796" y="1559" on="1"/>
        <pt x="975" y="1559" on="0"/>
        <pt x="1234" y="1502" on="0"/>
        <pt x="1401" y="1392" on="0"/>
        <pt x="1481" y="1232" on="0"/>
      </contour>
      <contour>
        <pt x="796" y="923" on="1"/>
        <pt x="835" y="923" on="0"/>
        <pt x="897" y="934" on="0"/>
        <pt x="939" y="964" on="0"/>
        <pt x="961" y="1017" on="0"/>
        <pt x="961" y="1060" on="1"/>
        <pt x="961" y="1106" on="0"/>
        <pt x="940" y="1165" on="0"/>
        <pt x="898" y="1198" on="0"/>
        <pt x="836" y="1210" on="0"/>
        <pt x="796" y="1210" on="1"/>
        <pt x="755" y="1210" on="0"/>
        <pt x="694" y="1198" on="0"/>
        <pt x="652" y="1165" on="0"/>
        <pt x="631" y="1106" on="0"/>
        <pt x="631" y="1060" on="1"/>
        <pt x="631" y="1017" on="0"/>
        <pt x="653" y="964" on="0"/>
        <pt x="695" y="934" on="0"/>
        <pt x="757" y="923" on="0"/>
      </contour>
      <contour>
        <pt x="796" y="652" on="1"/>
        <pt x="752" y="652" on="0"/>
        <pt x="683" y="639" on="0"/>
        <pt x="636" y="601" on="0"/>
        <pt x="611" y="534" on="0"/>
        <pt x="611" y="480" on="1"/>
        <pt x="611" y="434" on="0"/>
        <pt x="635" y="378" on="0"/>
        <pt x="682" y="347" on="0"/>
        <pt x="751" y="337" on="0"/>
        <pt x="796" y="337" on="1"/>
        <pt x="841" y="337" on="0"/>
        <pt x="910" y="347" on="0"/>
        <pt x="957" y="378" on="0"/>
        <pt x="981" y="434" on="0"/>
        <pt x="981" y="480" on="1"/>
        <pt x="981" y="534" on="0"/>
        <pt x="956" y="601" on="0"/>
        <pt x="909" y="639" on="0"/>
        <pt x="840" y="652" on="0"/>
      </contour>
    </TTGlyph>
    <TTGlyph name="ellipsis" xMin="104" yMin="0" xMax="2518" yMax="512">
      <contour>
        <pt x="1878" y="512" on="1"/>
        <pt x="2518" y="512" on="1"/>
        <pt x="2518" y="0" on="1"/>
        <pt x="1878" y="0" on="1"/>
      </contour>
      <contour>
        <pt x="991" y="512" on="1"/>
        <pt x="1631" y="512" on="1"/>
        <pt x="1631" y="0" on="1"/>
        <pt x="991" y="0" on="1"/>
      </contour>
      <contour>
        <pt x="104" y="512" on="1"/>
        <pt x="744" y="512" on="1"/>
        <pt x="744" y="0" on="1"/>
        <pt x="104" y="0" on="1"/>
      </contour>
    </TTGlyph>
    <TTGlyph name="emdash" xMin="111" yMin="640" xMax="809" yMax="896">
      <contour>
        <pt x="809" y="896" on="1"/>
        <pt x="809" y="640" on="1"/>
        <pt x="111" y="640" on="1"/>
        <pt x="111" y="896" on="1"/>
      </contour>
    </TTGlyph>
    <TTGlyph name="endash" xMin="111" yMin="640" xMax="623" yMax="896">
      <contour>
        <pt x="623" y="896" on="1"/>
        <pt x="623" y="640" on="1"/>
        <pt x="111" y="640" on="1"/>
        <pt x="111" y="896" on="1"/>
      </contour>
    </TTGlyph>
    <TTGlyph name="eogonek" xMin="96" yMin="-866" xMax="1332" yMax="1408">
      <component glyphName="ogonek" x="232" y="10" flags="0x1004"/>
      <component glyphName="e" x="0" y="0" flags="0x1204"/>
    </TTGlyph>
    <TTGlyph name="equal" xMin="116" yMin="172" xMax="814" yMax="896">
      <contour>
        <pt x="814" y="896" on="1"/>
        <pt x="814" y="640" on="1"/>
        <pt x="116" y="640" on="1"/>
        <pt x="116" y="896" on="1"/>
      </contour>
      <contour>
        <pt x="814" y="428" on="1"/>
        <pt x="814" y="172" on="1"/>
        <pt x="116" y="172" on="1"/>
        <pt x="116" y="428" on="1"/>
      </contour>
    </TTGlyph>
    <TTGlyph name="eth" xMin="95" yMin="0" xMax="1779" yMax="1408">
      <contour>
        <pt x="98" y="848" on="1"/>
        <pt x="215" y="848" on="1"/>
        <pt x="215" y="1025" on="1"/>
        <pt x="95" y="1048" on="1"/>
        <pt x="95" y="1408" on="1"/>
        <pt x="1190" y="1408" on="1"/>
        <pt x="1326" y="1379" on="0"/>
        <pt x="1544" y="1273" on="0"/>
        <pt x="1697" y="1108" on="0"/>
        <pt x="1779" y="877" on="0"/>
        <pt x="1779" y="723" on="1"/>
        <pt x="1779" y="588" on="0"/>
        <pt x="1716" y="375" on="0"/>
        <pt x="1599" y="214" on="0"/>
        <pt x="1429" y="102" on="0"/>
        <pt x="1216" y="32" on="0"/>
        <pt x="961" y="0" on="0"/>
        <pt x="817" y="0" on="1"/>
        <pt x="95" y="0" on="1"/>
        <pt x="95" y="399" on="1"/>
        <pt x="215" y="422" on="1"/>
        <pt x="215" y="592" on="1"/>
        <pt x="98" y="592" on="1"/>
      </contour>
      <contour>
        <pt x="909" y="422" on="1"/>
        <pt x="976" y="422" on="0"/>
        <pt x="1068" y="442" on="0"/>
        <pt x="1127" y="478" on="0"/>
        <pt x="1160" y="532" on="0"/>
        <pt x="1175" y="598" on="0"/>
        <pt x="1177" y="678" on="0"/>
        <pt x="1177" y="723" on="1"/>
        <pt x="1177" y="768" on="0"/>
        <pt x="1175" y="848" on="0"/>
        <pt x="1160" y="915" on="0"/>
        <pt x="1127" y="968" on="0"/>
        <pt x="1068" y="1005" on="0"/>
        <pt x="976" y="1025" on="0"/>
        <pt x="909" y="1025" on="1"/>
        <pt x="817" y="1025" on="1"/>
        <pt x="817" y="848" on="1"/>
        <pt x="994" y="848" on="1"/>
        <pt x="994" y="592" on="1"/>
        <pt x="817" y="592" on="1"/>
        <pt x="817" y="422" on="1"/>
      </contour>
    </TTGlyph>
    <TTGlyph name="exclam" xMin="92" yMin="0" xMax="861" yMax="1536">
      <contour>
        <pt x="92" y="1137" on="1"/>
        <pt x="92" y="1536" on="1"/>
        <pt x="861" y="1536" on="1"/>
        <pt x="861" y="1137" on="1"/>
        <pt x="733" y="512" on="1"/>
        <pt x="221" y="512" on="1"/>
      </contour>
      <contour>
        <pt x="157" y="384" on="1"/>
        <pt x="797" y="384" on="1"/>
        <pt x="797" y="0" on="1"/>
        <pt x="157" y="0" on="1"/>
      </contour>
    </TTGlyph>
    <TTGlyph name="exclamdown" xMin="94" yMin="0" xMax="863" yMax="1536">
      <contour>
        <pt x="159" y="1536" on="1"/>
        <pt x="799" y="1536" on="1"/>
        <pt x="799" y="1152" on="1"/>
        <pt x="159" y="1152" on="1"/>
      </contour>
      <contour>
        <pt x="223" y="1024" on="1"/>
        <pt x="735" y="1024" on="1"/>
        <pt x="863" y="399" on="1"/>
        <pt x="863" y="0" on="1"/>
        <pt x="159" y="0" on="1"/>
        <pt x="94" y="399" on="1"/>
      </contour>
    </TTGlyph>
    <TTGlyph name="f" xMin="96" yMin="0" xMax="1259" yMax="1408">
      <contour>
        <pt x="818" y="759" on="1"/>
        <pt x="1074" y="818" on="1"/>
        <pt x="1074" y="513" on="1"/>
        <pt x="818" y="573" on="1"/>
        <pt x="818" y="422" on="1"/>
        <pt x="938" y="396" on="1"/>
        <pt x="938" y="0" on="1"/>
        <pt x="96" y="0" on="1"/>
        <pt x="96" y="399" on="1"/>
        <pt x="216" y="422" on="1"/>
        <pt x="216" y="989" on="1"/>
        <pt x="96" y="1012" on="1"/>
        <pt x="96" y="1408" on="1"/>
        <pt x="1259" y="1408" on="1"/>
        <pt x="1259" y="896" on="1"/>
        <pt x="1092" y="896" on="1"/>
        <pt x="1049" y="941" on="0"/>
        <pt x="909" y="1006" on="0"/>
        <pt x="818" y="1006" on="1"/>
      </contour>
    </TTGlyph>
    <TTGlyph name="fi" xMin="96" yMin="0" xMax="2252" yMax="1408">
      <component glyphName="f" x="0" y="0" flags="0x1004"/>
      <component glyphName="i" x="1313" y="0" flags="0x1004"/>
    </TTGlyph>
    <TTGlyph name="five" xMin="87" yMin="-29" xMax="1417" yMax="1536">
      <contour>
        <pt x="648" y="333" on="1"/>
        <pt x="695" y="333" on="0"/>
        <pt x="769" y="345" on="0"/>
        <pt x="820" y="381" on="0"/>
        <pt x="847" y="449" on="0"/>
        <pt x="847" y="506" on="1"/>
        <pt x="847" y="555" on="0"/>
        <pt x="815" y="622" on="0"/>
        <pt x="758" y="662" on="0"/>
        <pt x="680" y="679" on="0"/>
        <pt x="634" y="679" on="1"/>
        <pt x="586" y="679" on="0"/>
        <pt x="480" y="672" on="0"/>
        <pt x="370" y="659" on="0"/>
        <pt x="262" y="643" on="0"/>
        <pt x="213" y="634" on="1"/>
        <pt x="87" y="738" on="1"/>
        <pt x="87" y="1536" on="1"/>
        <pt x="1309" y="1536" on="1"/>
        <pt x="1309" y="1063" on="1"/>
        <pt x="1008" y="1063" on="1"/>
        <pt x="951" y="1114" on="0"/>
        <pt x="811" y="1162" on="0"/>
        <pt x="736" y="1162" on="1"/>
        <pt x="578" y="1162" on="1"/>
        <pt x="563" y="927" on="1"/>
        <pt x="617" y="950" on="0"/>
        <pt x="732" y="972" on="0"/>
        <pt x="786" y="972" on="1"/>
        <pt x="867" y="972" on="0"/>
        <pt x="1024" y="949" on="0"/>
        <pt x="1165" y="900" on="0"/>
        <pt x="1283" y="826" on="0"/>
        <pt x="1369" y="725" on="0"/>
        <pt x="1417" y="595" on="0"/>
        <pt x="1417" y="516" on="1"/>
        <pt x="1417" y="420" on="0"/>
        <pt x="1363" y="264" on="0"/>
        <pt x="1266" y="143" on="0"/>
        <pt x="1132" y="55" on="0"/>
        <pt x="972" y="-2" on="0"/>
        <pt x="791" y="-29" on="0"/>
        <pt x="696" y="-29" on="1"/>
        <pt x="619" y="-29" on="0"/>
        <pt x="460" y="-12" on="0"/>
        <pt x="304" y="19" on="0"/>
        <pt x="155" y="66" on="0"/>
        <pt x="87" y="96" on="1"/>
        <pt x="87" y="473" on="1"/>
        <pt x="386" y="473" on="1"/>
        <pt x="443" y="401" on="0"/>
        <pt x="573" y="333" on="0"/>
      </contour>
    </TTGlyph>
    <TTGlyph name="fl" xMin="96" yMin="0" xMax="2554" yMax="1408">
      <component glyphName="f" x="0" y="0" flags="0x1004"/>
      <component glyphName="l" x="1313" y="0" flags="0x1004"/>
    </TTGlyph>
    <TTGlyph name="florin" xMin="6" yMin="-128" xMax="1389" yMax="1605">
      <contour>
        <pt x="408" y="808" on="1"/>
        <pt x="176" y="808" on="1"/>
        <pt x="196" y="995" on="1"/>
        <pt x="408" y="995" on="1"/>
        <pt x="410" y="1080" on="0"/>
        <pt x="432" y="1236" on="0"/>
        <pt x="481" y="1372" on="0"/>
        <pt x="562" y="1483" on="0"/>
        <pt x="684" y="1562" on="0"/>
        <pt x="851" y="1605" on="0"/>
        <pt x="962" y="1605" on="1"/>
        <pt x="1049" y="1605" on="0"/>
        <pt x="1205" y="1562" on="0"/>
        <pt x="1321" y="1460" on="0"/>
        <pt x="1389" y="1290" on="0"/>
        <pt x="1389" y="1164" on="1"/>
        <pt x="1389" y="1156" on="0"/>
        <pt x="1388" y="1139" on="0"/>
        <pt x="1388" y="1131" on="1"/>
        <pt x="1071" y="1131" on="1"/>
        <pt x="1074" y="1139" on="0"/>
        <pt x="1079" y="1174" on="0"/>
        <pt x="1079" y="1194" on="1"/>
        <pt x="1079" y="1210" on="0"/>
        <pt x="1075" y="1242" on="0"/>
        <pt x="1065" y="1268" on="0"/>
        <pt x="1049" y="1284" on="0"/>
        <pt x="1037" y="1284" on="1"/>
        <pt x="1022" y="1284" on="0"/>
        <pt x="996" y="1225" on="0"/>
        <pt x="996" y="1150" on="1"/>
        <pt x="996" y="995" on="1"/>
        <pt x="1245" y="995" on="1"/>
        <pt x="1225" y="808" on="1"/>
        <pt x="996" y="808" on="1"/>
        <pt x="996" y="412" on="1"/>
        <pt x="996" y="301" on="0"/>
        <pt x="926" y="104" on="0"/>
        <pt x="790" y="-43" on="0"/>
        <pt x="589" y="-128" on="0"/>
        <pt x="458" y="-128" on="1"/>
        <pt x="371" y="-128" on="0"/>
        <pt x="208" y="-81" on="0"/>
        <pt x="82" y="10" on="0"/>
        <pt x="6" y="143" on="0"/>
        <pt x="6" y="229" on="1"/>
        <pt x="6" y="290" on="0"/>
        <pt x="27" y="361" on="1"/>
        <pt x="341" y="361" on="1"/>
        <pt x="340" y="355" on="0"/>
        <pt x="336" y="315" on="0"/>
        <pt x="336" y="292" on="1"/>
        <pt x="336" y="278" on="0"/>
        <pt x="339" y="250" on="0"/>
        <pt x="346" y="228" on="0"/>
        <pt x="359" y="214" on="0"/>
        <pt x="369" y="214" on="1"/>
        <pt x="376" y="214" on="0"/>
        <pt x="390" y="233" on="0"/>
        <pt x="401" y="278" on="0"/>
        <pt x="408" y="352" on="0"/>
        <pt x="408" y="408" on="1"/>
      </contour>
    </TTGlyph>
    <TTGlyph name="four" xMin="18" yMin="0" xMax="1618" yMax="1576">
      <contour>
        <pt x="18" y="848" on="1"/>
        <pt x="658" y="1536" on="1"/>
        <pt x="1298" y="1576" on="1"/>
        <pt x="1298" y="848" on="1"/>
        <pt x="1618" y="848" on="1"/>
        <pt x="1618" y="592" on="1"/>
        <pt x="1298" y="592" on="1"/>
        <pt x="1298" y="424" on="1"/>
        <pt x="1426" y="399" on="1"/>
        <pt x="1426" y="0" on="1"/>
        <pt x="530" y="0" on="1"/>
        <pt x="530" y="399" on="1"/>
        <pt x="658" y="424" on="1"/>
        <pt x="658" y="592" on="1"/>
        <pt x="18" y="592" on="1"/>
      </contour>
      <contour>
        <pt x="386" y="848" on="1"/>
        <pt x="658" y="848" on="1"/>
        <pt x="658" y="1168" on="1"/>
      </contour>
    </TTGlyph>
    <TTGlyph name="foursuperior" xMin="27" yMin="512" xMax="1108" yMax="1576">
      <contour>
        <pt x="27" y="1085" on="1"/>
        <pt x="460" y="1549" on="1"/>
        <pt x="892" y="1576" on="1"/>
        <pt x="892" y="1085" on="1"/>
        <pt x="1108" y="1085" on="1"/>
        <pt x="1108" y="912" on="1"/>
        <pt x="892" y="912" on="1"/>
        <pt x="892" y="822" on="1"/>
        <pt x="979" y="805" on="1"/>
        <pt x="979" y="512" on="1"/>
        <pt x="373" y="512" on="1"/>
        <pt x="373" y="805" on="1"/>
        <pt x="460" y="822" on="1"/>
        <pt x="460" y="912" on="1"/>
        <pt x="27" y="912" on="1"/>
      </contour>
      <contour>
        <pt x="276" y="1085" on="1"/>
        <pt x="460" y="1085" on="1"/>
        <pt x="460" y="1301" on="1"/>
      </contour>
    </TTGlyph>
    <TTGlyph name="fraction" xMin="-4" yMin="0" xMax="1020" yMax="1536">
      <contour>
        <pt x="380" y="1536" on="1"/>
        <pt x="1020" y="1536" on="1"/>
        <pt x="636" y="0" on="1"/>
        <pt x="-4" y="0" on="1"/>
      </contour>
    </TTGlyph>
    <TTGlyph name="g" xMin="61" yMin="-18" xMax="1489" yMax="1446">
      <contour>
        <pt x="61" y="723" on="1"/>
        <pt x="61" y="911" on="0"/>
        <pt x="175" y="1184" on="0"/>
        <pt x="385" y="1361" on="0"/>
        <pt x="682" y="1446" on="0"/>
        <pt x="865" y="1446" on="1"/>
        <pt x="976" y="1446" on="0"/>
        <pt x="1155" y="1424" on="0"/>
        <pt x="1298" y="1390" on="0"/>
        <pt x="1407" y="1349" on="0"/>
        <pt x="1449" y="1330" on="1"/>
        <pt x="1449" y="895" on="1"/>
        <pt x="1166" y="895" on="1"/>
        <pt x="1143" y="928" on="0"/>
        <pt x="1098" y="977" on="0"/>
        <pt x="1046" y="1008" on="0"/>
        <pt x="982" y="1024" on="0"/>
        <pt x="939" y="1024" on="1"/>
        <pt x="887" y="1024" on="0"/>
        <pt x="788" y="993" on="0"/>
        <pt x="711" y="922" on="0"/>
        <pt x="664" y="807" on="0"/>
        <pt x="664" y="723" on="1"/>
        <pt x="664" y="625" on="0"/>
        <pt x="702" y="500" on="0"/>
        <pt x="774" y="427" on="0"/>
        <pt x="879" y="399" on="0"/>
        <pt x="947" y="399" on="1"/>
        <pt x="983" y="399" on="0"/>
        <pt x="1060" y="409" on="0"/>
        <pt x="1105" y="423" on="1"/>
        <pt x="1105" y="537" on="1"/>
        <pt x="904" y="537" on="1"/>
        <pt x="904" y="783" on="1"/>
        <pt x="1489" y="783" on="1"/>
        <pt x="1489" y="119" on="1"/>
        <pt x="1415" y="88" on="0"/>
        <pt x="1249" y="34" on="0"/>
        <pt x="1082" y="-6" on="0"/>
        <pt x="922" y="-18" on="0"/>
        <pt x="854" y="-18" on="1"/>
        <pt x="687" y="-18" on="0"/>
        <pt x="397" y="62" on="0"/>
        <pt x="183" y="248" on="0"/>
        <pt x="61" y="531" on="0"/>
      </contour>
    </TTGlyph>
    <TTGlyph name="gbreve" xMin="61" yMin="-18" xMax="1489" yMax="2013">
      <component glyphName="breve" x="398" y="33" flags="0x1004"/>
      <component glyphName="g" x="0" y="0" flags="0x1204"/>
    </TTGlyph>
    <TTGlyph name="germandbls" xMin="57" yMin="0" xMax="1764" yMax="1536">
      <contour>
        <pt x="953" y="385" on="1"/>
        <pt x="1013" y="385" on="0"/>
        <pt x="1088" y="410" on="0"/>
        <pt x="1131" y="452" on="0"/>
        <pt x="1146" y="505" on="0"/>
        <pt x="1146" y="533" on="1"/>
        <pt x="1146" y="560" on="0"/>
        <pt x="1131" y="613" on="0"/>
        <pt x="1089" y="655" on="0"/>
        <pt x="1013" y="680" on="0"/>
        <pt x="953" y="680" on="1"/>
        <pt x="953" y="895" on="1"/>
        <pt x="1014" y="895" on="0"/>
        <pt x="1090" y="921" on="0"/>
        <pt x="1132" y="964" on="0"/>
        <pt x="1146" y="1018" on="0"/>
        <pt x="1146" y="1046" on="1"/>
        <pt x="1146" y="1073" on="0"/>
        <pt x="1134" y="1125" on="0"/>
        <pt x="1096" y="1165" on="0"/>
        <pt x="1028" y="1190" on="0"/>
        <pt x="972" y="1190" on="1"/>
        <pt x="944" y="1190" on="0"/>
        <pt x="891" y="1172" on="0"/>
        <pt x="850" y="1136" on="0"/>
        <pt x="825" y="1081" on="0"/>
        <pt x="825" y="1044" on="1"/>
        <pt x="825" y="0" on="1"/>
        <pt x="57" y="0" on="1"/>
        <pt x="57" y="434" on="1"/>
        <pt x="185" y="459" on="1"/>
        <pt x="185" y="1177" on="1"/>
        <pt x="185" y="1324" on="0"/>
        <pt x="344" y="1498" on="0"/>
        <pt x="502" y="1536" on="1"/>
        <pt x="1108" y="1536" on="1"/>
        <pt x="1243" y="1536" on="0"/>
        <pt x="1437" y="1469" on="0"/>
        <pt x="1561" y="1359" on="0"/>
        <pt x="1620" y="1220" on="0"/>
        <pt x="1620" y="1147" on="1"/>
        <pt x="1620" y="1090" on="0"/>
        <pt x="1586" y="980" on="0"/>
        <pt x="1522" y="884" on="0"/>
        <pt x="1429" y="808" on="0"/>
        <pt x="1371" y="786" on="1"/>
        <pt x="1410" y="784" on="0"/>
        <pt x="1499" y="770" on="0"/>
        <pt x="1587" y="740" on="0"/>
        <pt x="1667" y="692" on="0"/>
        <pt x="1728" y="621" on="0"/>
        <pt x="1764" y="523" on="0"/>
        <pt x="1764" y="459" on="1"/>
        <pt x="1764" y="361" on="0"/>
        <pt x="1715" y="193" on="0"/>
        <pt x="1592" y="70" on="0"/>
        <pt x="1380" y="0" on="0"/>
        <pt x="1218" y="0" on="1"/>
        <pt x="953" y="0" on="1"/>
      </contour>
    </TTGlyph>
    <TTGlyph name="grave" xMin="31" yMin="1664" xMax="860" yMax="2304">
      <contour>
        <pt x="31" y="2304" on="1"/>
        <pt x="521" y="2304" on="1"/>
        <pt x="860" y="1664" on="1"/>
        <pt x="435" y="1664" on="1"/>
      </contour>
    </TTGlyph>
    <TTGlyph name="greater" xMin="93" yMin="-17" xMax="1086" yMax="1421">
      <contour>
        <pt x="93" y="789" on="1"/>
        <pt x="93" y="1421" on="1"/>
        <pt x="1086" y="1047" on="1"/>
        <pt x="1086" y="357" on="1"/>
        <pt x="93" y="-17" on="1"/>
        <pt x="93" y="464" on="1"/>
        <pt x="637" y="627" on="1"/>
      </contour>
    </TTGlyph>
    <TTGlyph name="guillemotleft" xMin="68" yMin="-17" xMax="1695" yMax="1421">
      <contour>
        <pt x="1361" y="627" on="1"/>
        <pt x="1695" y="464" on="1"/>
        <pt x="1695" y="-17" on="1"/>
        <pt x="962" y="357" on="1"/>
        <pt x="962" y="1047" on="1"/>
        <pt x="1695" y="1421" on="1"/>
        <pt x="1695" y="789" on="1"/>
      </contour>
      <contour>
        <pt x="467" y="627" on="1"/>
        <pt x="801" y="464" on="1"/>
        <pt x="801" y="-17" on="1"/>
        <pt x="68" y="357" on="1"/>
        <pt x="68" y="1047" on="1"/>
        <pt x="801" y="1421" on="1"/>
        <pt x="801" y="789" on="1"/>
      </contour>
    </TTGlyph>
    <TTGlyph name="guillemotright" xMin="107" yMin="-17" xMax="1734" yMax="1421">
      <contour>
        <pt x="1001" y="789" on="1"/>
        <pt x="1001" y="1421" on="1"/>
        <pt x="1734" y="1047" on="1"/>
        <pt x="1734" y="357" on="1"/>
        <pt x="1001" y="-17" on="1"/>
        <pt x="1001" y="464" on="1"/>
        <pt x="1335" y="627" on="1"/>
      </contour>
      <contour>
        <pt x="107" y="789" on="1"/>
        <pt x="107" y="1421" on="1"/>
        <pt x="840" y="1047" on="1"/>
        <pt x="840" y="357" on="1"/>
        <pt x="107" y="-17" on="1"/>
        <pt x="107" y="464" on="1"/>
        <pt x="441" y="627" on="1"/>
      </contour>
    </TTGlyph>
    <TTGlyph name="guilsinglleft" xMin="68" yMin="-17" xMax="801" yMax="1421">
      <contour>
        <pt x="467" y="627" on="1"/>
        <pt x="801" y="464" on="1"/>
        <pt x="801" y="-17" on="1"/>
        <pt x="68" y="357" on="1"/>
        <pt x="68" y="1047" on="1"/>
        <pt x="801" y="1421" on="1"/>
        <pt x="801" y="789" on="1"/>
      </contour>
    </TTGlyph>
    <TTGlyph name="guilsinglright" xMin="107" yMin="-17" xMax="840" yMax="1421">
      <contour>
        <pt x="107" y="789" on="1"/>
        <pt x="107" y="1421" on="1"/>
        <pt x="840" y="1047" on="1"/>
        <pt x="840" y="357" on="1"/>
        <pt x="107" y="-17" on="1"/>
        <pt x="107" y="464" on="1"/>
        <pt x="441" y="627" on="1"/>
      </contour>
    </TTGlyph>
    <TTGlyph name="h" xMin="96" yMin="0" xMax="2021" yMax="1413">
      <contour>
        <pt x="96" y="1408" on="1"/>
        <pt x="938" y="1408" on="1"/>
        <pt x="938" y="1012" on="1"/>
        <pt x="818" y="989" on="1"/>
        <pt x="818" y="824" on="1"/>
        <pt x="1299" y="824" on="1"/>
        <pt x="1299" y="989" on="1"/>
        <pt x="1179" y="1012" on="1"/>
        <pt x="1179" y="1413" on="1"/>
        <pt x="2021" y="1413" on="1"/>
        <pt x="2021" y="1012" on="1"/>
        <pt x="1901" y="989" on="1"/>
        <pt x="1901" y="422" on="1"/>
        <pt x="2021" y="399" on="1"/>
        <pt x="2021" y="0" on="1"/>
        <pt x="1179" y="0" on="1"/>
        <pt x="1179" y="399" on="1"/>
        <pt x="1299" y="422" on="1"/>
        <pt x="1299" y="589" on="1"/>
        <pt x="818" y="589" on="1"/>
        <pt x="818" y="422" on="1"/>
        <pt x="938" y="399" on="1"/>
        <pt x="938" y="0" on="1"/>
        <pt x="96" y="0" on="1"/>
        <pt x="96" y="399" on="1"/>
        <pt x="216" y="422" on="1"/>
        <pt x="216" y="989" on="1"/>
        <pt x="96" y="1012" on="1"/>
      </contour>
    </TTGlyph>
    <TTGlyph name="hungarumlaut" xMin="154" yMin="1664" xMax="1687" yMax="2304">
      <contour>
        <pt x="1227" y="1664" on="1"/>
        <pt x="792" y="1664" on="1"/>
        <pt x="1197" y="2304" on="1"/>
        <pt x="1687" y="2304" on="1"/>
      </contour>
      <contour>
        <pt x="559" y="1664" on="1"/>
        <pt x="154" y="1664" on="1"/>
        <pt x="403" y="2304" on="1"/>
        <pt x="893" y="2304" on="1"/>
      </contour>
    </TTGlyph>
    <TTGlyph name="hyphen" xMin="111" yMin="640" xMax="623" yMax="896">
      <contour>
        <pt x="623" y="896" on="1"/>
        <pt x="623" y="640" on="1"/>
        <pt x="111" y="640" on="1"/>
        <pt x="111" y="896" on="1"/>
      </contour>
    </TTGlyph>
    <TTGlyph name="i" xMin="97" yMin="0" xMax="939" yMax="1408">
      <contour>
        <pt x="97" y="1408" on="1"/>
        <pt x="939" y="1408" on="1"/>
        <pt x="939" y="1014" on="1"/>
        <pt x="819" y="991" on="1"/>
        <pt x="819" y="422" on="1"/>
        <pt x="939" y="399" on="1"/>
        <pt x="939" y="0" on="1"/>
        <pt x="97" y="0" on="1"/>
        <pt x="97" y="399" on="1"/>
        <pt x="217" y="422" on="1"/>
        <pt x="217" y="991" on="1"/>
        <pt x="97" y="1014" on="1"/>
      </contour>
    </TTGlyph>
    <TTGlyph name="iacute" xMin="97" yMin="0" xMax="1135" yMax="2208">
      <component glyphName="acute" x="266" y="-96" flags="0x1004"/>
      <component glyphName="dotlessi" x="0" y="0" flags="0x1204"/>
    </TTGlyph>
    <TTGlyph name="icircumflex" xMin="-67" yMin="0" xMax="1102" yMax="2207">
      <component glyphName="circumflex" x="-120" y="-96" flags="0x1004"/>
      <component glyphName="dotlessi" x="0" y="0" flags="0x1204"/>
    </TTGlyph>
    <TTGlyph name="idieresis" xMin="-67" yMin="0" xMax="1102" yMax="1952">
      <component glyphName="dieresis" x="-162" y="-96" flags="0x1004"/>
      <component glyphName="dotlessi" x="0" y="0" flags="0x1204"/>
    </TTGlyph>
    <TTGlyph name="igrave" xMin="-99" yMin="0" xMax="939" yMax="2208">
      <component glyphName="grave" x="-130" y="-96" flags="0x1004"/>
      <component glyphName="dotlessi" x="0" y="0" flags="0x1204"/>
    </TTGlyph>
    <TTGlyph name="integral" xMin="-7" yMin="-128" xMax="1376" yMax="1605">
      <contour>
        <pt x="395" y="958" on="1"/>
        <pt x="395" y="1047" on="0"/>
        <pt x="413" y="1212" on="0"/>
        <pt x="460" y="1356" on="0"/>
        <pt x="540" y="1474" on="0"/>
        <pt x="663" y="1559" on="0"/>
        <pt x="834" y="1605" on="0"/>
        <pt x="949" y="1605" on="1"/>
        <pt x="1036" y="1605" on="0"/>
        <pt x="1192" y="1562" on="0"/>
        <pt x="1308" y="1460" on="0"/>
        <pt x="1376" y="1290" on="0"/>
        <pt x="1376" y="1164" on="1"/>
        <pt x="1376" y="1156" on="0"/>
        <pt x="1375" y="1139" on="0"/>
        <pt x="1375" y="1131" on="1"/>
        <pt x="1058" y="1131" on="1"/>
        <pt x="1061" y="1139" on="0"/>
        <pt x="1066" y="1174" on="0"/>
        <pt x="1066" y="1194" on="1"/>
        <pt x="1066" y="1210" on="0"/>
        <pt x="1062" y="1242" on="0"/>
        <pt x="1052" y="1268" on="0"/>
        <pt x="1036" y="1284" on="0"/>
        <pt x="1024" y="1284" on="1"/>
        <pt x="1009" y="1284" on="0"/>
        <pt x="983" y="1225" on="0"/>
        <pt x="983" y="1150" on="1"/>
        <pt x="983" y="412" on="1"/>
        <pt x="983" y="301" on="0"/>
        <pt x="913" y="104" on="0"/>
        <pt x="777" y="-43" on="0"/>
        <pt x="576" y="-128" on="0"/>
        <pt x="445" y="-128" on="1"/>
        <pt x="358" y="-128" on="0"/>
        <pt x="195" y="-81" on="0"/>
        <pt x="69" y="10" on="0"/>
        <pt x="-7" y="143" on="0"/>
        <pt x="-7" y="229" on="1"/>
        <pt x="-7" y="290" on="0"/>
        <pt x="14" y="361" on="1"/>
        <pt x="328" y="361" on="1"/>
        <pt x="327" y="355" on="0"/>
        <pt x="323" y="315" on="0"/>
        <pt x="323" y="292" on="1"/>
        <pt x="323" y="278" on="0"/>
        <pt x="326" y="250" on="0"/>
        <pt x="333" y="228" on="0"/>
        <pt x="346" y="214" on="0"/>
        <pt x="356" y="214" on="1"/>
        <pt x="363" y="214" on="0"/>
        <pt x="377" y="233" on="0"/>
        <pt x="388" y="278" on="0"/>
        <pt x="395" y="352" on="0"/>
        <pt x="395" y="408" on="1"/>
      </contour>
    </TTGlyph>
    <TTGlyph name="j" xMin="30" yMin="-18" xMax="1353" yMax="1408">
      <contour>
        <pt x="1232" y="589" on="1"/>
        <pt x="1232" y="429" on="0"/>
        <pt x="1138" y="196" on="0"/>
        <pt x="964" y="44" on="0"/>
        <pt x="719" y="-18" on="0"/>
        <pt x="568" y="-18" on="1"/>
        <pt x="463" y="-18" on="0"/>
        <pt x="297" y="-7" on="0"/>
        <pt x="167" y="27" on="0"/>
        <pt x="67" y="68" on="0"/>
        <pt x="30" y="87" on="1"/>
        <pt x="30" y="518" on="1"/>
        <pt x="313" y="518" on="1"/>
        <pt x="349" y="452" on="0"/>
        <pt x="445" y="389" on="0"/>
        <pt x="493" y="389" on="1"/>
        <pt x="518" y="389" on="0"/>
        <pt x="568" y="415" on="0"/>
        <pt x="607" y="466" on="0"/>
        <pt x="631" y="540" on="0"/>
        <pt x="631" y="589" on="1"/>
        <pt x="631" y="991" on="1"/>
        <pt x="510" y="1014" on="1"/>
        <pt x="510" y="1408" on="1"/>
        <pt x="1353" y="1408" on="1"/>
        <pt x="1353" y="1014" on="1"/>
        <pt x="1232" y="991" on="1"/>
      </contour>
    </TTGlyph>
    <TTGlyph name="k" xMin="97" yMin="0" xMax="1760" yMax="1408">
      <contour>
        <pt x="1760" y="0" on="1"/>
        <pt x="1085" y="0" on="1"/>
        <pt x="819" y="590" on="1"/>
        <pt x="819" y="0" on="1"/>
        <pt x="97" y="0" on="1"/>
        <pt x="97" y="399" on="1"/>
        <pt x="217" y="422" on="1"/>
        <pt x="217" y="991" on="1"/>
        <pt x="97" y="1014" on="1"/>
        <pt x="97" y="1408" on="1"/>
        <pt x="819" y="1408" on="1"/>
        <pt x="819" y="846" on="1"/>
        <pt x="1085" y="1408" on="1"/>
        <pt x="1733" y="1408" on="1"/>
        <pt x="1733" y="1154" on="1"/>
        <pt x="1674" y="1104" on="0"/>
        <pt x="1573" y="994" on="0"/>
        <pt x="1485" y="882" on="0"/>
        <pt x="1411" y="774" on="0"/>
        <pt x="1381" y="725" on="1"/>
        <pt x="1420" y="663" on="0"/>
        <pt x="1508" y="528" on="0"/>
        <pt x="1603" y="392" on="0"/>
        <pt x="1706" y="261" on="0"/>
        <pt x="1760" y="204" on="1"/>
      </contour>
    </TTGlyph>
    <TTGlyph name="l" xMin="97" yMin="0" xMax="1241" yMax="1408">
      <contour>
        <pt x="818" y="384" on="1"/>
        <pt x="860" y="384" on="0"/>
        <pt x="936" y="407" on="0"/>
        <pt x="1001" y="444" on="0"/>
        <pt x="1054" y="489" on="0"/>
        <pt x="1074" y="512" on="1"/>
        <pt x="1241" y="512" on="1"/>
        <pt x="1241" y="0" on="1"/>
        <pt x="97" y="0" on="1"/>
        <pt x="97" y="399" on="1"/>
        <pt x="217" y="422" on="1"/>
        <pt x="217" y="991" on="1"/>
        <pt x="97" y="1014" on="1"/>
        <pt x="97" y="1408" on="1"/>
        <pt x="939" y="1408" on="1"/>
        <pt x="939" y="1014" on="1"/>
        <pt x="818" y="991" on="1"/>
      </contour>
    </TTGlyph>
    <TTGlyph name="lacute" xMin="97" yMin="0" xMax="1241" yMax="2208">
      <component glyphName="acute" x="266" y="-96" flags="0x1004"/>
      <component glyphName="l" x="0" y="0" flags="0x1204"/>
    </TTGlyph>
    <TTGlyph name="lcaron" xMin="97" yMin="0" xMax="1762" yMax="1446">
      <component glyphName="comma" x="1018" y="934" flags="0x1004"/>
      <component glyphName="l" x="0" y="0" flags="0x1004"/>
    </TTGlyph>
    <TTGlyph name="less" xMin="74" yMin="-17" xMax="1067" yMax="1421">
      <contour>
        <pt x="523" y="627" on="1"/>
        <pt x="1067" y="464" on="1"/>
        <pt x="1067" y="-17" on="1"/>
        <pt x="74" y="357" on="1"/>
        <pt x="74" y="1047" on="1"/>
        <pt x="1067" y="1421" on="1"/>
        <pt x="1067" y="789" on="1"/>
      </contour>
    </TTGlyph>
    <TTGlyph name="logicalnot" xMin="97" yMin="256" xMax="865" yMax="896">
      <contour>
        <pt x="97" y="896" on="1"/>
        <pt x="865" y="896" on="1"/>
        <pt x="865" y="256" on="1"/>
        <pt x="609" y="256" on="1"/>
        <pt x="609" y="512" on="1"/>
        <pt x="97" y="512" on="1"/>
      </contour>
    </TTGlyph>
    <TTGlyph name="lozenge" xMin="57" yMin="1" xMax="1389" yMax="1536">
      <contour>
        <pt x="343" y="1536" on="1"/>
        <pt x="1089" y="1536" on="1"/>
        <pt x="1389" y="773" on="1"/>
        <pt x="1089" y="1" on="1"/>
        <pt x="343" y="1" on="1"/>
        <pt x="57" y="773" on="1"/>
      </contour>
      <contour>
        <pt x="721" y="303" on="1"/>
        <pt x="857" y="773" on="1"/>
        <pt x="721" y="1234" on="1"/>
        <pt x="586" y="773" on="1"/>
      </contour>
    </TTGlyph>
    <TTGlyph name="lslash" xMin="97" yMin="0" xMax="1241" yMax="1413">
      <contour>
        <pt x="818" y="896" on="1"/>
        <pt x="907" y="896" on="1"/>
        <pt x="907" y="640" on="1"/>
        <pt x="818" y="640" on="1"/>
        <pt x="818" y="384" on="1"/>
        <pt x="860" y="384" on="0"/>
        <pt x="936" y="407" on="0"/>
        <pt x="1001" y="444" on="0"/>
        <pt x="1054" y="489" on="0"/>
        <pt x="1074" y="512" on="1"/>
        <pt x="1241" y="512" on="1"/>
        <pt x="1241" y="0" on="1"/>
        <pt x="97" y="0" on="1"/>
        <pt x="97" y="399" on="1"/>
        <pt x="217" y="422" on="1"/>
        <pt x="217" y="640" on="1"/>
        <pt x="97" y="640" on="1"/>
        <pt x="97" y="896" on="1"/>
        <pt x="217" y="896" on="1"/>
        <pt x="217" y="991" on="1"/>
        <pt x="97" y="1014" on="1"/>
        <pt x="97" y="1413" on="1"/>
        <pt x="939" y="1413" on="1"/>
        <pt x="939" y="1014" on="1"/>
        <pt x="818" y="991" on="1"/>
      </contour>
    </TTGlyph>
    <TTGlyph name="m" xMin="97" yMin="0" xMax="2142" yMax="1408">
      <contour>
        <pt x="818" y="689" on="1"/>
        <pt x="818" y="0" on="1"/>
        <pt x="97" y="0" on="1"/>
        <pt x="97" y="399" on="1"/>
        <pt x="217" y="422" on="1"/>
        <pt x="217" y="991" on="1"/>
        <pt x="97" y="1014" on="1"/>
        <pt x="97" y="1408" on="1"/>
        <pt x="818" y="1408" on="1"/>
        <pt x="1121" y="870" on="1"/>
        <pt x="1421" y="1408" on="1"/>
        <pt x="2142" y="1408" on="1"/>
        <pt x="2142" y="1014" on="1"/>
        <pt x="2022" y="991" on="1"/>
        <pt x="2022" y="422" on="1"/>
        <pt x="2142" y="399" on="1"/>
        <pt x="2142" y="0" on="1"/>
        <pt x="1421" y="0" on="1"/>
        <pt x="1421" y="689" on="1"/>
        <pt x="1121" y="181" on="1"/>
      </contour>
    </TTGlyph>
    <TTGlyph name="macron" xMin="94" yMin="1536" xMax="606" yMax="1752">
      <contour>
        <pt x="606" y="1752" on="1"/>
        <pt x="606" y="1536" on="1"/>
        <pt x="94" y="1536" on="1"/>
        <pt x="94" y="1752" on="1"/>
      </contour>
    </TTGlyph>
    <TTGlyph name="minus" xMin="116" yMin="512" xMax="884" yMax="896">
      <contour>
        <pt x="116" y="896" on="1"/>
        <pt x="884" y="896" on="1"/>
        <pt x="884" y="512" on="1"/>
        <pt x="116" y="512" on="1"/>
      </contour>
    </TTGlyph>
    <TTGlyph name="mu" xMin="54" yMin="-255" xMax="1770" yMax="1408">
      <contour>
        <pt x="174" y="991" on="1"/>
        <pt x="54" y="1014" on="1"/>
        <pt x="54" y="1408" on="1"/>
        <pt x="835" y="1408" on="1"/>
        <pt x="835" y="1014" on="1"/>
        <pt x="715" y="991" on="1"/>
        <pt x="716" y="541" on="1"/>
        <pt x="730" y="524" on="0"/>
        <pt x="773" y="484" on="0"/>
        <pt x="832" y="450" on="0"/>
        <pt x="908" y="428" on="0"/>
        <pt x="955" y="428" on="1"/>
        <pt x="1015" y="428" on="0"/>
        <pt x="1098" y="459" on="0"/>
        <pt x="1151" y="510" on="0"/>
        <pt x="1181" y="574" on="0"/>
        <pt x="1194" y="639" on="0"/>
        <pt x="1197" y="700" on="0"/>
        <pt x="1197" y="723" on="1"/>
        <pt x="1197" y="730" on="0"/>
        <pt x="1197" y="761" on="0"/>
        <pt x="1196" y="802" on="0"/>
        <pt x="1196" y="849" on="0"/>
        <pt x="1196" y="872" on="1"/>
        <pt x="1196" y="991" on="1"/>
        <pt x="1076" y="1014" on="1"/>
        <pt x="1076" y="1408" on="1"/>
        <pt x="1770" y="1408" on="1"/>
        <pt x="1770" y="1014" on="1"/>
        <pt x="1649" y="991" on="1"/>
        <pt x="1648" y="961" on="0"/>
        <pt x="1648" y="904" on="0"/>
        <pt x="1648" y="878" on="1"/>
        <pt x="1648" y="723" on="1"/>
        <pt x="1648" y="520" on="0"/>
        <pt x="1545" y="231" on="0"/>
        <pt x="1367" y="47" on="0"/>
        <pt x="1130" y="-38" on="0"/>
        <pt x="995" y="-38" on="1"/>
        <pt x="910" y="-38" on="0"/>
        <pt x="759" y="3" on="0"/>
        <pt x="687" y="46" on="1"/>
        <pt x="687" y="-255" on="1"/>
        <pt x="174" y="-255" on="1"/>
      </contour>
    </TTGlyph>
    <TTGlyph name="multiply" xMin="69" yMin="315" xMax="975" yMax="1221">
      <contour>
        <pt x="69" y="496" on="1"/>
        <pt x="341" y="768" on="1"/>
        <pt x="69" y="1040" on="1"/>
        <pt x="250" y="1221" on="1"/>
        <pt x="522" y="949" on="1"/>
        <pt x="794" y="1221" on="1"/>
        <pt x="975" y="1040" on="1"/>
        <pt x="703" y="768" on="1"/>
        <pt x="975" y="496" on="1"/>
        <pt x="794" y="315" on="1"/>
        <pt x="522" y="587" on="1"/>
        <pt x="250" y="315" on="1"/>
      </contour>
    </TTGlyph>
    <TTGlyph name="n" xMin="97" yMin="0" xMax="1781" yMax="1408">
      <contour>
        <pt x="578" y="739" on="1"/>
        <pt x="578" y="422" on="1"/>
        <pt x="699" y="400" on="1"/>
        <pt x="699" y="0" on="1"/>
        <pt x="97" y="0" on="1"/>
        <pt x="97" y="399" on="1"/>
        <pt x="217" y="422" on="1"/>
        <pt x="217" y="991" on="1"/>
        <pt x="97" y="1014" on="1"/>
        <pt x="97" y="1408" on="1"/>
        <pt x="819" y="1408" on="1"/>
        <pt x="1300" y="649" on="1"/>
        <pt x="1300" y="989" on="1"/>
        <pt x="1180" y="1014" on="1"/>
        <pt x="1180" y="1408" on="1"/>
        <pt x="1781" y="1408" on="1"/>
        <pt x="1781" y="1014" on="1"/>
        <pt x="1661" y="991" on="1"/>
        <pt x="1661" y="422" on="1"/>
        <pt x="1781" y="399" on="1"/>
        <pt x="1781" y="0" on="1"/>
        <pt x="1059" y="0" on="1"/>
      </contour>
    </TTGlyph>
    <TTGlyph name="nacute" xMin="97" yMin="0" xMax="1781" yMax="2208">
      <component glyphName="acute" x="686" y="-96" flags="0x1004"/>
      <component glyphName="n" x="0" y="0" flags="0x1204"/>
    </TTGlyph>
    <TTGlyph name="ncaron" xMin="97" yMin="0" xMax="1781" yMax="2207">
      <component glyphName="caron" x="302" y="-96" flags="0x1004"/>
      <component glyphName="n" x="0" y="0" flags="0x1204"/>
    </TTGlyph>
    <TTGlyph name="nine" xMin="41" yMin="-29" xMax="1591" yMax="1559">
      <contour>
        <pt x="756" y="363" on="1"/>
        <pt x="799" y="363" on="0"/>
        <pt x="865" y="385" on="0"/>
        <pt x="912" y="445" on="0"/>
        <pt x="940" y="549" on="0"/>
        <pt x="945" y="630" on="1"/>
        <pt x="879" y="616" on="0"/>
        <pt x="751" y="610" on="0"/>
        <pt x="685" y="610" on="1"/>
        <pt x="580" y="610" on="0"/>
        <pt x="408" y="639" on="0"/>
        <pt x="275" y="682" on="0"/>
        <pt x="182" y="733" on="0"/>
        <pt x="158" y="754" on="1"/>
        <pt x="104" y="802" on="0"/>
        <pt x="41" y="927" on="0"/>
        <pt x="41" y="1020" on="1"/>
        <pt x="41" y="1297" on="0"/>
        <pt x="424" y="1559" on="0"/>
        <pt x="811" y="1559" on="1"/>
        <pt x="1008" y="1559" on="0"/>
        <pt x="1301" y="1466" on="0"/>
        <pt x="1495" y="1272" on="0"/>
        <pt x="1591" y="974" on="0"/>
        <pt x="1591" y="769" on="1"/>
        <pt x="1591" y="563" on="0"/>
        <pt x="1491" y="262" on="0"/>
        <pt x="1288" y="66" on="0"/>
        <pt x="979" y="-29" on="0"/>
        <pt x="771" y="-29" on="1"/>
        <pt x="630" y="-29" on="0"/>
        <pt x="419" y="10" on="0"/>
        <pt x="341" y="34" on="1"/>
        <pt x="296" y="48" on="0"/>
        <pt x="218" y="77" on="0"/>
        <pt x="183" y="97" on="1"/>
        <pt x="183" y="503" on="1"/>
        <pt x="484" y="503" on="1"/>
        <pt x="541" y="431" on="0"/>
        <pt x="681" y="363" on="0"/>
      </contour>
      <contour>
        <pt x="776" y="894" on="1"/>
        <pt x="886" y="894" on="0"/>
        <pt x="947" y="910" on="1"/>
        <pt x="941" y="992" on="0"/>
        <pt x="918" y="1106" on="0"/>
        <pt x="881" y="1176" on="0"/>
        <pt x="825" y="1207" on="0"/>
        <pt x="786" y="1207" on="1"/>
        <pt x="741" y="1207" on="0"/>
        <pt x="675" y="1197" on="0"/>
        <pt x="632" y="1159" on="0"/>
        <pt x="611" y="1084" on="0"/>
        <pt x="611" y="1020" on="1"/>
        <pt x="611" y="979" on="0"/>
        <pt x="633" y="930" on="0"/>
        <pt x="675" y="903" on="0"/>
        <pt x="737" y="894" on="0"/>
      </contour>
    </TTGlyph>
    <TTGlyph name="ntilde" xMin="97" yMin="0" xMax="1781" yMax="2075">
      <component glyphName="tilde" x="412" y="39" flags="0x1004"/>
      <component glyphName="n" x="0" y="0" flags="0x1204"/>
    </TTGlyph>
    <TTGlyph name="numbersign" xMin="76" yMin="0" xMax="1475" yMax="1536">
      <contour>
        <pt x="822" y="256" on="1"/>
        <pt x="566" y="256" on="1"/>
        <pt x="524" y="0" on="1"/>
        <pt x="140" y="0" on="1"/>
        <pt x="182" y="256" on="1"/>
        <pt x="76" y="256" on="1"/>
        <pt x="76" y="640" on="1"/>
        <pt x="246" y="640" on="1"/>
        <pt x="289" y="896" on="1"/>
        <pt x="131" y="896" on="1"/>
        <pt x="131" y="1280" on="1"/>
        <pt x="353" y="1280" on="1"/>
        <pt x="396" y="1536" on="1"/>
        <pt x="780" y="1536" on="1"/>
        <pt x="737" y="1280" on="1"/>
        <pt x="993" y="1280" on="1"/>
        <pt x="1036" y="1536" on="1"/>
        <pt x="1420" y="1536" on="1"/>
        <pt x="1377" y="1280" on="1"/>
        <pt x="1475" y="1280" on="1"/>
        <pt x="1475" y="896" on="1"/>
        <pt x="1313" y="896" on="1"/>
        <pt x="1270" y="640" on="1"/>
        <pt x="1423" y="640" on="1"/>
        <pt x="1423" y="256" on="1"/>
        <pt x="1206" y="256" on="1"/>
        <pt x="1164" y="0" on="1"/>
        <pt x="780" y="0" on="1"/>
      </contour>
      <contour>
        <pt x="630" y="640" on="1"/>
        <pt x="886" y="640" on="1"/>
        <pt x="929" y="896" on="1"/>
        <pt x="673" y="896" on="1"/>
      </contour>
    </TTGlyph>
    <TTGlyph name="o" xMin="60" yMin="-18" xMax="1744" yMax="1446">
      <contour>
        <pt x="901" y="-18" on="1"/>
        <pt x="725" y="-18" on="0"/>
        <pt x="418" y="57" on="0"/>
        <pt x="191" y="240" on="0"/>
        <pt x="60" y="524" on="0"/>
        <pt x="60" y="723" on="1"/>
        <pt x="60" y="918" on="0"/>
        <pt x="191" y="1193" on="0"/>
        <pt x="419" y="1366" on="0"/>
        <pt x="725" y="1446" on="0"/>
        <pt x="901" y="1446" on="1"/>
        <pt x="1076" y="1446" on="0"/>
        <pt x="1383" y="1366" on="0"/>
        <pt x="1612" y="1193" on="0"/>
        <pt x="1744" y="918" on="0"/>
        <pt x="1744" y="723" on="1"/>
        <pt x="1744" y="591" on="0"/>
        <pt x="1684" y="376" on="0"/>
        <pt x="1575" y="209" on="0"/>
        <pt x="1422" y="88" on="0"/>
        <pt x="1234" y="9" on="0"/>
        <pt x="1018" y="-18" on="0"/>
      </contour>
      <contour>
        <pt x="901" y="1020" on="1"/>
        <pt x="842" y="1020" on="0"/>
        <pt x="761" y="990" on="0"/>
        <pt x="708" y="942" on="0"/>
        <pt x="678" y="880" on="0"/>
        <pt x="665" y="815" on="0"/>
        <pt x="662" y="752" on="0"/>
        <pt x="662" y="728" on="1"/>
        <pt x="662" y="705" on="0"/>
        <pt x="664" y="642" on="0"/>
        <pt x="676" y="573" on="0"/>
        <pt x="704" y="505" on="0"/>
        <pt x="757" y="451" on="0"/>
        <pt x="840" y="418" on="0"/>
        <pt x="901" y="418" on="1"/>
        <pt x="961" y="418" on="0"/>
        <pt x="1044" y="450" on="0"/>
        <pt x="1097" y="503" on="0"/>
        <pt x="1127" y="569" on="0"/>
        <pt x="1140" y="636" on="0"/>
        <pt x="1143" y="700" on="0"/>
        <pt x="1143" y="723" on="1"/>
        <pt x="1143" y="747" on="0"/>
        <pt x="1140" y="810" on="0"/>
        <pt x="1127" y="876" on="0"/>
        <pt x="1097" y="939" on="0"/>
        <pt x="1044" y="989" on="0"/>
        <pt x="961" y="1020" on="0"/>
      </contour>
    </TTGlyph>
    <TTGlyph name="oacute" xMin="60" yMin="-18" xMax="1744" yMax="2208">
      <component glyphName="acute" x="648" y="-96" flags="0x1004"/>
      <component glyphName="o" x="0" y="0" flags="0x1204"/>
    </TTGlyph>
    <TTGlyph name="ocircumflex" xMin="60" yMin="-18" xMax="1744" yMax="2207">
      <component glyphName="circumflex" x="264" y="-96" flags="0x1004"/>
      <component glyphName="o" x="0" y="0" flags="0x1204"/>
    </TTGlyph>
    <TTGlyph name="odieresis" xMin="60" yMin="-18" xMax="1744" yMax="1952">
      <component glyphName="dieresis" x="222" y="-96" flags="0x1004"/>
      <component glyphName="o" x="0" y="0" flags="0x1204"/>
    </TTGlyph>
    <TTGlyph name="oe" xMin="60" yMin="-37" xMax="2296" yMax="1450">
      <contour>
        <pt x="1742" y="789" on="1"/>
        <pt x="2018" y="848" on="1"/>
        <pt x="2018" y="563" on="1"/>
        <pt x="1742" y="623" on="1"/>
        <pt x="1742" y="402" on="1"/>
        <pt x="1804" y="402" on="0"/>
        <pt x="1918" y="419" on="0"/>
        <pt x="2017" y="449" on="0"/>
        <pt x="2099" y="489" on="0"/>
        <pt x="2129" y="512" on="1"/>
        <pt x="2296" y="512" on="1"/>
        <pt x="2296" y="0" on="1"/>
        <pt x="1209" y="0" on="1"/>
        <pt x="1068" y="-37" on="0"/>
        <pt x="901" y="-37" on="1"/>
        <pt x="784" y="-37" on="0"/>
        <pt x="568" y="0" on="0"/>
        <pt x="381" y="79" on="0"/>
        <pt x="228" y="201" on="0"/>
        <pt x="119" y="370" on="0"/>
        <pt x="60" y="587" on="0"/>
        <pt x="60" y="723" on="1"/>
        <pt x="60" y="919" on="0"/>
        <pt x="191" y="1196" on="0"/>
        <pt x="419" y="1370" on="0"/>
        <pt x="725" y="1450" on="0"/>
        <pt x="901" y="1450" on="1"/>
        <pt x="1081" y="1450" on="0"/>
        <pt x="1236" y="1408" on="1"/>
        <pt x="2296" y="1408" on="1"/>
        <pt x="2296" y="896" on="1"/>
        <pt x="2129" y="896" on="1"/>
        <pt x="2099" y="918" on="0"/>
        <pt x="2017" y="958" on="0"/>
        <pt x="1918" y="988" on="0"/>
        <pt x="1804" y="1006" on="0"/>
        <pt x="1742" y="1006" on="1"/>
      </contour>
      <contour>
        <pt x="901" y="1014" on="1"/>
        <pt x="841" y="1014" on="0"/>
        <pt x="760" y="984" on="0"/>
        <pt x="707" y="935" on="0"/>
        <pt x="678" y="873" on="0"/>
        <pt x="664" y="809" on="0"/>
        <pt x="662" y="748" on="0"/>
        <pt x="662" y="725" on="1"/>
        <pt x="662" y="703" on="0"/>
        <pt x="664" y="641" on="0"/>
        <pt x="677" y="575" on="0"/>
        <pt x="705" y="511" on="0"/>
        <pt x="758" y="460" on="0"/>
        <pt x="840" y="428" on="0"/>
        <pt x="901" y="428" on="1"/>
        <pt x="994" y="428" on="0"/>
        <pt x="1108" y="447" on="0"/>
        <pt x="1140" y="458" on="1"/>
        <pt x="1140" y="987" on="1"/>
        <pt x="1122" y="992" on="0"/>
        <pt x="1077" y="1002" on="0"/>
        <pt x="1019" y="1009" on="0"/>
        <pt x="947" y="1014" on="0"/>
      </contour>
    </TTGlyph>
    <TTGlyph name="ogonek" xMin="60" yMin="-876" xMax="699" yMax="20">
      <contour>
        <pt x="380" y="-422" on="1"/>
        <pt x="380" y="-491" on="0"/>
        <pt x="450" y="-553" on="0"/>
        <pt x="516" y="-553" on="1"/>
        <pt x="583" y="-553" on="0"/>
        <pt x="699" y="-515" on="1"/>
        <pt x="699" y="-832" on="1"/>
        <pt x="635" y="-853" on="0"/>
        <pt x="501" y="-876" on="0"/>
        <pt x="443" y="-876" on="1"/>
        <pt x="359" y="-876" on="0"/>
        <pt x="219" y="-831" on="0"/>
        <pt x="117" y="-736" on="0"/>
        <pt x="60" y="-591" on="0"/>
        <pt x="60" y="-492" on="1"/>
        <pt x="60" y="-442" on="0"/>
        <pt x="82" y="-344" on="0"/>
        <pt x="117" y="-253" on="0"/>
        <pt x="163" y="-171" on="0"/>
        <pt x="187" y="-135" on="1"/>
        <pt x="242" y="-53" on="0"/>
        <pt x="315" y="20" on="1"/>
        <pt x="649" y="20" on="1"/>
        <pt x="611" y="-17" on="0"/>
        <pt x="543" y="-93" on="0"/>
        <pt x="514" y="-131" on="1"/>
        <pt x="489" y="-164" on="0"/>
        <pt x="441" y="-237" on="0"/>
        <pt x="403" y="-312" on="0"/>
        <pt x="380" y="-387" on="0"/>
      </contour>
    </TTGlyph>
    <TTGlyph name="ograve" xMin="60" yMin="-18" xMax="1744" yMax="2208">
      <component glyphName="grave" x="254" y="-96" flags="0x1004"/>
      <component glyphName="o" x="0" y="0" flags="0x1204"/>
    </TTGlyph>
    <TTGlyph name="ohungarumlaut" xMin="60" yMin="-18" xMax="1897" yMax="2208">
      <component glyphName="hungarumlaut" x="210" y="-96" flags="0x1004"/>
      <component glyphName="o" x="0" y="0" flags="0x1204"/>
    </TTGlyph>
    <TTGlyph name="one" xMin="98" yMin="0" xMax="994" yMax="1536">
      <contour>
        <pt x="98" y="1458" on="1"/>
        <pt x="866" y="1536" on="1"/>
        <pt x="866" y="424" on="1"/>
        <pt x="994" y="399" on="1"/>
        <pt x="994" y="0" on="1"/>
        <pt x="98" y="0" on="1"/>
        <pt x="98" y="399" on="1"/>
        <pt x="226" y="424" on="1"/>
        <pt x="226" y="1024" on="1"/>
        <pt x="98" y="1024" on="1"/>
      </contour>
    </TTGlyph>
    <TTGlyph name="onehalf" xMin="78" yMin="-1" xMax="2499" yMax="1536">
      <contour>
        <pt x="1022" y="1536" on="1"/>
        <pt x="1662" y="1536" on="1"/>
        <pt x="1278" y="0" on="1"/>
        <pt x="638" y="0" on="1"/>
      </contour>
      <contour>
        <pt x="78" y="1484" on="1"/>
        <pt x="589" y="1536" on="1"/>
        <pt x="589" y="818" on="1"/>
        <pt x="675" y="801" on="1"/>
        <pt x="675" y="512" on="1"/>
        <pt x="78" y="512" on="1"/>
        <pt x="78" y="801" on="1"/>
        <pt x="163" y="818" on="1"/>
        <pt x="163" y="1195" on="1"/>
        <pt x="78" y="1195" on="1"/>
      </contour>
      <contour>
        <pt x="1628" y="347" on="1"/>
        <pt x="1650" y="355" on="0"/>
        <pt x="1733" y="379" on="0"/>
        <pt x="1830" y="414" on="0"/>
        <pt x="1932" y="460" on="0"/>
        <pt x="2014" y="519" on="0"/>
        <pt x="2067" y="593" on="0"/>
        <pt x="2067" y="638" on="1"/>
        <pt x="2067" y="667" on="0"/>
        <pt x="2049" y="709" on="0"/>
        <pt x="2018" y="737" on="0"/>
        <pt x="1976" y="750" on="0"/>
        <pt x="1953" y="750" on="1"/>
        <pt x="1921" y="750" on="0"/>
        <pt x="1855" y="701" on="0"/>
        <pt x="1832" y="656" on="1"/>
        <pt x="1628" y="656" on="1"/>
        <pt x="1628" y="978" on="1"/>
        <pt x="1653" y="992" on="0"/>
        <pt x="1723" y="1022" on="0"/>
        <pt x="1816" y="1047" on="0"/>
        <pt x="1934" y="1063" on="0"/>
        <pt x="2008" y="1063" on="1"/>
        <pt x="2116" y="1063" on="0"/>
        <pt x="2297" y="1019" on="0"/>
        <pt x="2427" y="927" on="0"/>
        <pt x="2499" y="787" on="0"/>
        <pt x="2499" y="690" on="1"/>
        <pt x="2499" y="630" on="0"/>
        <pt x="2465" y="533" on="0"/>
        <pt x="2410" y="455" on="0"/>
        <pt x="2340" y="394" on="0"/>
        <pt x="2304" y="371" on="1"/>
        <pt x="2219" y="317" on="0"/>
        <pt x="2110" y="289" on="1"/>
        <pt x="2493" y="289" on="1"/>
        <pt x="2493" y="-1" on="1"/>
        <pt x="1628" y="-1" on="1"/>
      </contour>
    </TTGlyph>
    <TTGlyph name="onequarter" xMin="93" yMin="0" xMax="2650" yMax="1536">
      <contour>
        <pt x="1037" y="1536" on="1"/>
        <pt x="1677" y="1536" on="1"/>
        <pt x="1293" y="0" on="1"/>
        <pt x="653" y="0" on="1"/>
      </contour>
      <contour>
        <pt x="93" y="1484" on="1"/>
        <pt x="604" y="1536" on="1"/>
        <pt x="604" y="818" on="1"/>
        <pt x="690" y="801" on="1"/>
        <pt x="690" y="512" on="1"/>
        <pt x="93" y="512" on="1"/>
        <pt x="93" y="801" on="1"/>
        <pt x="178" y="818" on="1"/>
        <pt x="178" y="1195" on="1"/>
        <pt x="93" y="1195" on="1"/>
      </contour>
      <contour>
        <pt x="1569" y="573" on="1"/>
        <pt x="2002" y="1037" on="1"/>
        <pt x="2434" y="1064" on="1"/>
        <pt x="2434" y="573" on="1"/>
        <pt x="2650" y="573" on="1"/>
        <pt x="2650" y="400" on="1"/>
        <pt x="2434" y="400" on="1"/>
        <pt x="2434" y="310" on="1"/>
        <pt x="2521" y="293" on="1"/>
        <pt x="2521" y="0" on="1"/>
        <pt x="1915" y="0" on="1"/>
        <pt x="1915" y="293" on="1"/>
        <pt x="2002" y="310" on="1"/>
        <pt x="2002" y="400" on="1"/>
        <pt x="1569" y="400" on="1"/>
      </contour>
      <contour>
        <pt x="1818" y="573" on="1"/>
        <pt x="2002" y="573" on="1"/>
        <pt x="2002" y="789" on="1"/>
      </contour>
    </TTGlyph>
    <TTGlyph name="onesuperior" xMin="103" yMin="512" xMax="700" yMax="1536">
      <contour>
        <pt x="103" y="1484" on="1"/>
        <pt x="614" y="1536" on="1"/>
        <pt x="614" y="818" on="1"/>
        <pt x="700" y="801" on="1"/>
        <pt x="700" y="512" on="1"/>
        <pt x="103" y="512" on="1"/>
        <pt x="103" y="801" on="1"/>
        <pt x="188" y="818" on="1"/>
        <pt x="188" y="1195" on="1"/>
        <pt x="103" y="1195" on="1"/>
      </contour>
    </TTGlyph>
    <TTGlyph name="ordfeminine" xMin="81" yMin="512" xMax="1233" yMax="1535">
      <contour>
        <pt x="791" y="640" on="1"/>
        <pt x="700" y="571" on="0"/>
        <pt x="545" y="512" on="0"/>
        <pt x="482" y="512" on="1"/>
        <pt x="413" y="512" on="0"/>
        <pt x="300" y="555" on="0"/>
        <pt x="211" y="626" on="0"/>
        <pt x="145" y="721" on="0"/>
        <pt x="102" y="825" on="0"/>
        <pt x="81" y="932" on="0"/>
        <pt x="81" y="980" on="1"/>
        <pt x="81" y="1121" on="0"/>
        <pt x="165" y="1330" on="0"/>
        <pt x="316" y="1467" on="0"/>
        <pt x="526" y="1535" on="0"/>
        <pt x="652" y="1535" on="1"/>
        <pt x="781" y="1535" on="0"/>
        <pt x="1078" y="1481" on="0"/>
        <pt x="1233" y="1430" on="1"/>
        <pt x="1233" y="544" on="1"/>
        <pt x="791" y="544" on="1"/>
      </contour>
      <contour>
        <pt x="791" y="1303" on="1"/>
        <pt x="762" y="1310" on="0"/>
        <pt x="722" y="1310" on="1"/>
        <pt x="632" y="1310" on="0"/>
        <pt x="550" y="1180" on="0"/>
        <pt x="550" y="1039" on="1"/>
        <pt x="550" y="958" on="0"/>
        <pt x="584" y="861" on="0"/>
        <pt x="647" y="811" on="0"/>
        <pt x="736" y="796" on="0"/>
        <pt x="791" y="796" on="1"/>
      </contour>
    </TTGlyph>
    <TTGlyph name="ordmasculine" xMin="77" yMin="479" xMax="1318" yMax="1575">
      <contour>
        <pt x="697" y="479" on="1"/>
        <pt x="567" y="479" on="0"/>
        <pt x="341" y="542" on="0"/>
        <pt x="173" y="677" on="0"/>
        <pt x="77" y="889" on="0"/>
        <pt x="77" y="1039" on="1"/>
        <pt x="77" y="1184" on="0"/>
        <pt x="174" y="1388" on="0"/>
        <pt x="342" y="1516" on="0"/>
        <pt x="568" y="1575" on="0"/>
        <pt x="697" y="1575" on="1"/>
        <pt x="826" y="1575" on="0"/>
        <pt x="1052" y="1516" on="0"/>
        <pt x="1220" y="1388" on="0"/>
        <pt x="1318" y="1184" on="0"/>
        <pt x="1318" y="1039" on="1"/>
        <pt x="1318" y="889" on="0"/>
        <pt x="1221" y="677" on="0"/>
        <pt x="1053" y="542" on="0"/>
        <pt x="826" y="479" on="0"/>
      </contour>
      <contour>
        <pt x="697" y="1254" on="1"/>
        <pt x="653" y="1254" on="0"/>
        <pt x="593" y="1232" on="0"/>
        <pt x="553" y="1195" on="0"/>
        <pt x="532" y="1149" on="0"/>
        <pt x="522" y="1101" on="0"/>
        <pt x="520" y="1056" on="0"/>
        <pt x="520" y="1039" on="1"/>
        <pt x="520" y="1014" on="0"/>
        <pt x="526" y="940" on="0"/>
        <pt x="559" y="871" on="0"/>
        <pt x="631" y="822" on="0"/>
        <pt x="697" y="822" on="1"/>
        <pt x="763" y="822" on="0"/>
        <pt x="836" y="871" on="0"/>
        <pt x="869" y="940" on="0"/>
        <pt x="875" y="1014" on="0"/>
        <pt x="875" y="1039" on="1"/>
        <pt x="875" y="1056" on="0"/>
        <pt x="873" y="1101" on="0"/>
        <pt x="863" y="1149" on="0"/>
        <pt x="842" y="1195" on="0"/>
        <pt x="802" y="1232" on="0"/>
        <pt x="741" y="1254" on="0"/>
      </contour>
    </TTGlyph>
    <TTGlyph name="oslash" xMin="60" yMin="-208" xMax="1744" yMax="1600">
      <contour>
        <pt x="901" y="-37" on="1"/>
        <pt x="838" y="-37" on="0"/>
        <pt x="724" y="-27" on="0"/>
        <pt x="667" y="-17" on="1"/>
        <pt x="576" y="-208" on="1"/>
        <pt x="384" y="-128" on="1"/>
        <pt x="466" y="43" on="1"/>
        <pt x="374" y="83" on="0"/>
        <pt x="224" y="205" on="0"/>
        <pt x="118" y="372" on="0"/>
        <pt x="60" y="588" on="0"/>
        <pt x="60" y="723" on="1"/>
        <pt x="60" y="919" on="0"/>
        <pt x="191" y="1196" on="0"/>
        <pt x="419" y="1370" on="0"/>
        <pt x="725" y="1450" on="0"/>
        <pt x="901" y="1450" on="1"/>
        <pt x="963" y="1450" on="0"/>
        <pt x="1079" y="1441" on="0"/>
        <pt x="1134" y="1431" on="1"/>
        <pt x="1216" y="1600" on="1"/>
        <pt x="1408" y="1536" on="1"/>
        <pt x="1331" y="1376" on="1"/>
        <pt x="1424" y="1338" on="0"/>
        <pt x="1576" y="1222" on="0"/>
        <pt x="1684" y="1062" on="0"/>
        <pt x="1744" y="853" on="0"/>
        <pt x="1744" y="723" on="1"/>
        <pt x="1744" y="588" on="0"/>
        <pt x="1684" y="370" on="0"/>
        <pt x="1575" y="201" on="0"/>
        <pt x="1422" y="79" on="0"/>
        <pt x="1234" y="0" on="0"/>
        <pt x="1018" y="-37" on="0"/>
      </contour>
      <contour>
        <pt x="901" y="1014" on="1"/>
        <pt x="841" y="1014" on="0"/>
        <pt x="760" y="984" on="0"/>
        <pt x="707" y="935" on="0"/>
        <pt x="678" y="873" on="0"/>
        <pt x="664" y="809" on="0"/>
        <pt x="662" y="748" on="0"/>
        <pt x="662" y="725" on="1"/>
        <pt x="662" y="707" on="0"/>
        <pt x="663" y="659" on="0"/>
        <pt x="670" y="606" on="0"/>
        <pt x="685" y="551" on="0"/>
        <pt x="699" y="527" on="1"/>
        <pt x="933" y="1012" on="1"/>
        <pt x="925" y="1013" on="0"/>
        <pt x="909" y="1014" on="0"/>
      </contour>
      <contour>
        <pt x="1143" y="723" on="1"/>
        <pt x="1143" y="740" on="0"/>
        <pt x="1142" y="785" on="0"/>
        <pt x="1135" y="835" on="0"/>
        <pt x="1121" y="885" on="0"/>
        <pt x="1108" y="908" on="1"/>
        <pt x="879" y="428" on="1"/>
        <pt x="901" y="428" on="1"/>
        <pt x="961" y="428" on="0"/>
        <pt x="1044" y="459" on="0"/>
        <pt x="1097" y="510" on="0"/>
        <pt x="1127" y="574" on="0"/>
        <pt x="1140" y="639" on="0"/>
        <pt x="1143" y="700" on="0"/>
      </contour>
    </TTGlyph>
    <TTGlyph name="otilde" xMin="60" yMin="-18" xMax="1744" yMax="2075">
      <component glyphName="tilde" x="374" y="39" flags="0x1004"/>
      <component glyphName="o" x="0" y="0" flags="0x1204"/>
    </TTGlyph>
    <TTGlyph name="p" xMin="97" yMin="0" xMax="1661" yMax="1408">
      <contour>
        <pt x="97" y="1408" on="1"/>
        <pt x="916" y="1408" on="1"/>
        <pt x="1076" y="1408" on="0"/>
        <pt x="1311" y="1380" on="0"/>
        <pt x="1476" y="1328" on="0"/>
        <pt x="1581" y="1252" on="0"/>
        <pt x="1640" y="1157" on="0"/>
        <pt x="1661" y="1044" on="0"/>
        <pt x="1661" y="980" on="1"/>
        <pt x="1661" y="914" on="0"/>
        <pt x="1636" y="798" on="0"/>
        <pt x="1568" y="701" on="0"/>
        <pt x="1449" y="624" on="0"/>
        <pt x="1262" y="571" on="0"/>
        <pt x="998" y="543" on="0"/>
        <pt x="819" y="543" on="1"/>
        <pt x="819" y="422" on="1"/>
        <pt x="939" y="399" on="1"/>
        <pt x="939" y="0" on="1"/>
        <pt x="97" y="0" on="1"/>
        <pt x="97" y="399" on="1"/>
        <pt x="217" y="422" on="1"/>
        <pt x="217" y="991" on="1"/>
        <pt x="97" y="1014" on="1"/>
      </contour>
      <contour>
        <pt x="819" y="796" on="1"/>
        <pt x="874" y="796" on="0"/>
        <pt x="963" y="808" on="0"/>
        <pt x="1026" y="848" on="0"/>
        <pt x="1060" y="924" on="0"/>
        <pt x="1060" y="989" on="1"/>
        <pt x="1060" y="1049" on="0"/>
        <pt x="1026" y="1119" on="0"/>
        <pt x="963" y="1157" on="0"/>
        <pt x="874" y="1168" on="0"/>
        <pt x="819" y="1168" on="1"/>
      </contour>
    </TTGlyph>
    <TTGlyph name="paragraph" xMin="56" yMin="0" xMax="1585" yMax="1408">
      <contour>
        <pt x="1585" y="1014" on="1"/>
        <pt x="1465" y="991" on="1"/>
        <pt x="1465" y="422" on="1"/>
        <pt x="1585" y="399" on="1"/>
        <pt x="1585" y="0" on="1"/>
        <pt x="1081" y="0" on="1"/>
        <pt x="1081" y="896" on="1"/>
        <pt x="953" y="896" on="1"/>
        <pt x="953" y="0" on="1"/>
        <pt x="449" y="0" on="1"/>
        <pt x="449" y="399" on="1"/>
        <pt x="569" y="422" on="1"/>
        <pt x="569" y="543" on="1"/>
        <pt x="458" y="543" on="0"/>
        <pt x="296" y="571" on="0"/>
        <pt x="182" y="624" on="0"/>
        <pt x="110" y="701" on="0"/>
        <pt x="70" y="798" on="0"/>
        <pt x="56" y="914" on="0"/>
        <pt x="56" y="980" on="1"/>
        <pt x="56" y="1044" on="0"/>
        <pt x="76" y="1157" on="0"/>
        <pt x="132" y="1252" on="0"/>
        <pt x="231" y="1328" on="0"/>
        <pt x="388" y="1380" on="0"/>
        <pt x="613" y="1408" on="0"/>
        <pt x="766" y="1408" on="1"/>
        <pt x="1585" y="1408" on="1"/>
      </contour>
    </TTGlyph>
    <TTGlyph name="parenleft" xMin="42" yMin="-41" xMax="983" yMax="1577">
      <contour>
        <pt x="42" y="768" on="1"/>
        <pt x="42" y="869" on="0"/>
        <pt x="83" y="1067" on="0"/>
        <pt x="166" y="1247" on="0"/>
        <pt x="290" y="1401" on="0"/>
        <pt x="455" y="1513" on="0"/>
        <pt x="661" y="1577" on="0"/>
        <pt x="785" y="1577" on="1"/>
        <pt x="833" y="1577" on="0"/>
        <pt x="929" y="1568" on="0"/>
        <pt x="983" y="1557" on="1"/>
        <pt x="983" y="1205" on="1"/>
        <pt x="914" y="1203" on="0"/>
        <pt x="811" y="1160" on="0"/>
        <pt x="737" y="1090" on="0"/>
        <pt x="689" y="1001" on="0"/>
        <pt x="661" y="905" on="0"/>
        <pt x="650" y="809" on="0"/>
        <pt x="650" y="768" on="1"/>
        <pt x="650" y="727" on="0"/>
        <pt x="661" y="631" on="0"/>
        <pt x="689" y="535" on="0"/>
        <pt x="737" y="445" on="0"/>
        <pt x="811" y="375" on="0"/>
        <pt x="914" y="332" on="0"/>
        <pt x="983" y="331" on="1"/>
        <pt x="983" y="-21" on="1"/>
        <pt x="929" y="-32" on="0"/>
        <pt x="833" y="-41" on="0"/>
        <pt x="785" y="-41" on="1"/>
        <pt x="661" y="-41" on="0"/>
        <pt x="455" y="23" on="0"/>
        <pt x="290" y="135" on="0"/>
        <pt x="166" y="289" on="0"/>
        <pt x="83" y="469" on="0"/>
        <pt x="42" y="667" on="0"/>
      </contour>
    </TTGlyph>
    <TTGlyph name="parenright" xMin="72" yMin="-41" xMax="1013" yMax="1577">
      <contour>
        <pt x="1013" y="768" on="1"/>
        <pt x="1013" y="667" on="0"/>
        <pt x="972" y="469" on="0"/>
        <pt x="889" y="289" on="0"/>
        <pt x="765" y="135" on="0"/>
        <pt x="600" y="23" on="0"/>
        <pt x="394" y="-41" on="0"/>
        <pt x="270" y="-41" on="1"/>
        <pt x="222" y="-41" on="0"/>
        <pt x="126" y="-32" on="0"/>
        <pt x="72" y="-21" on="1"/>
        <pt x="72" y="331" on="1"/>
        <pt x="141" y="333" on="0"/>
        <pt x="244" y="376" on="0"/>
        <pt x="318" y="446" on="0"/>
        <pt x="366" y="535" on="0"/>
        <pt x="394" y="631" on="0"/>
        <pt x="405" y="726" on="0"/>
        <pt x="405" y="768" on="1"/>
        <pt x="405" y="809" on="0"/>
        <pt x="394" y="905" on="0"/>
        <pt x="366" y="1001" on="0"/>
        <pt x="318" y="1090" on="0"/>
        <pt x="244" y="1160" on="0"/>
        <pt x="141" y="1203" on="0"/>
        <pt x="72" y="1205" on="1"/>
        <pt x="72" y="1557" on="1"/>
        <pt x="126" y="1568" on="0"/>
        <pt x="222" y="1577" on="0"/>
        <pt x="270" y="1577" on="1"/>
        <pt x="394" y="1577" on="0"/>
        <pt x="600" y="1513" on="0"/>
        <pt x="765" y="1401" on="0"/>
        <pt x="889" y="1247" on="0"/>
        <pt x="972" y="1067" on="0"/>
        <pt x="1013" y="869" on="0"/>
      </contour>
    </TTGlyph>
    <TTGlyph name="percent" xMin="56" yMin="-42" xMax="3405" yMax="1575">
      <contour>
        <pt x="663" y="378" on="1"/>
        <pt x="537" y="378" on="0"/>
        <pt x="316" y="447" on="0"/>
        <pt x="151" y="594" on="0"/>
        <pt x="56" y="826" on="0"/>
        <pt x="56" y="990" on="1"/>
        <pt x="56" y="1148" on="0"/>
        <pt x="151" y="1371" on="0"/>
        <pt x="316" y="1511" on="0"/>
        <pt x="537" y="1575" on="0"/>
        <pt x="663" y="1575" on="1"/>
        <pt x="788" y="1575" on="0"/>
        <pt x="1010" y="1511" on="0"/>
        <pt x="1175" y="1371" on="0"/>
        <pt x="1271" y="1148" on="0"/>
        <pt x="1271" y="990" on="1"/>
        <pt x="1271" y="826" on="0"/>
        <pt x="1175" y="594" on="0"/>
        <pt x="1010" y="447" on="0"/>
        <pt x="789" y="378" on="0"/>
      </contour>
      <contour>
        <pt x="1589" y="1536" on="1"/>
        <pt x="2229" y="1536" on="1"/>
        <pt x="1845" y="0" on="1"/>
        <pt x="1205" y="0" on="1"/>
      </contour>
      <contour>
        <pt x="663" y="1224" on="1"/>
        <pt x="620" y="1224" on="0"/>
        <pt x="560" y="1199" on="0"/>
        <pt x="522" y="1160" on="0"/>
        <pt x="501" y="1109" on="0"/>
        <pt x="492" y="1057" on="0"/>
        <pt x="490" y="1008" on="0"/>
        <pt x="490" y="990" on="1"/>
        <pt x="490" y="972" on="0"/>
        <pt x="492" y="923" on="0"/>
        <pt x="501" y="870" on="0"/>
        <pt x="522" y="819" on="0"/>
        <pt x="560" y="778" on="0"/>
        <pt x="620" y="753" on="0"/>
        <pt x="663" y="753" on="1"/>
        <pt x="706" y="753" on="0"/>
        <pt x="766" y="778" on="0"/>
        <pt x="804" y="819" on="0"/>
        <pt x="825" y="870" on="0"/>
        <pt x="835" y="923" on="0"/>
        <pt x="837" y="972" on="0"/>
        <pt x="837" y="990" on="1"/>
        <pt x="837" y="1008" on="0"/>
        <pt x="835" y="1057" on="0"/>
        <pt x="825" y="1109" on="0"/>
        <pt x="804" y="1160" on="0"/>
        <pt x="766" y="1199" on="0"/>
        <pt x="706" y="1224" on="0"/>
      </contour>
      <contour>
        <pt x="2797" y="-42" on="1"/>
        <pt x="2671" y="-42" on="0"/>
        <pt x="2450" y="27" on="0"/>
        <pt x="2285" y="174" on="0"/>
        <pt x="2190" y="406" on="0"/>
        <pt x="2190" y="570" on="1"/>
        <pt x="2190" y="728" on="0"/>
        <pt x="2285" y="951" on="0"/>
        <pt x="2450" y="1091" on="0"/>
        <pt x="2671" y="1155" on="0"/>
        <pt x="2797" y="1155" on="1"/>
        <pt x="2922" y="1155" on="0"/>
        <pt x="3144" y="1091" on="0"/>
        <pt x="3309" y="951" on="0"/>
        <pt x="3405" y="728" on="0"/>
        <pt x="3405" y="570" on="1"/>
        <pt x="3405" y="406" on="0"/>
        <pt x="3309" y="174" on="0"/>
        <pt x="3144" y="27" on="0"/>
        <pt x="2923" y="-42" on="0"/>
      </contour>
      <contour>
        <pt x="2797" y="804" on="1"/>
        <pt x="2754" y="804" on="0"/>
        <pt x="2694" y="779" on="0"/>
        <pt x="2656" y="740" on="0"/>
        <pt x="2635" y="689" on="0"/>
        <pt x="2626" y="637" on="0"/>
        <pt x="2624" y="588" on="0"/>
        <pt x="2624" y="570" on="1"/>
        <pt x="2624" y="552" on="0"/>
        <pt x="2626" y="503" on="0"/>
        <pt x="2635" y="450" on="0"/>
        <pt x="2656" y="399" on="0"/>
        <pt x="2694" y="358" on="0"/>
        <pt x="2754" y="333" on="0"/>
        <pt x="2797" y="333" on="1"/>
        <pt x="2840" y="333" on="0"/>
        <pt x="2900" y="358" on="0"/>
        <pt x="2938" y="399" on="0"/>
        <pt x="2959" y="450" on="0"/>
        <pt x="2969" y="503" on="0"/>
        <pt x="2971" y="552" on="0"/>
        <pt x="2971" y="570" on="1"/>
        <pt x="2971" y="588" on="0"/>
        <pt x="2969" y="637" on="0"/>
        <pt x="2959" y="689" on="0"/>
        <pt x="2938" y="740" on="0"/>
        <pt x="2900" y="779" on="0"/>
        <pt x="2840" y="804" on="0"/>
      </contour>
    </TTGlyph>
    <TTGlyph name="period" xMin="103" yMin="0" xMax="743" yMax="512">
      <contour>
        <pt x="103" y="512" on="1"/>
        <pt x="743" y="512" on="1"/>
        <pt x="743" y="0" on="1"/>
        <pt x="103" y="0" on="1"/>
      </contour>
    </TTGlyph>
    <TTGlyph name="periodcentered" xMin="111" yMin="655" xMax="751" yMax="1167">
      <component glyphName="period" x="8" y="655" flags="0x1004"/>
    </TTGlyph>
    <TTGlyph name="perthousand" xMin="56" yMin="-42" xMax="4777" yMax="1575">
      <contour>
        <pt x="663" y="378" on="1"/>
        <pt x="537" y="378" on="0"/>
        <pt x="316" y="447" on="0"/>
        <pt x="151" y="594" on="0"/>
        <pt x="56" y="826" on="0"/>
        <pt x="56" y="990" on="1"/>
        <pt x="56" y="1148" on="0"/>
        <pt x="151" y="1371" on="0"/>
        <pt x="316" y="1511" on="0"/>
        <pt x="537" y="1575" on="0"/>
        <pt x="663" y="1575" on="1"/>
        <pt x="788" y="1575" on="0"/>
        <pt x="1010" y="1511" on="0"/>
        <pt x="1175" y="1371" on="0"/>
        <pt x="1271" y="1148" on="0"/>
        <pt x="1271" y="990" on="1"/>
        <pt x="1271" y="826" on="0"/>
        <pt x="1175" y="594" on="0"/>
        <pt x="1010" y="447" on="0"/>
        <pt x="789" y="378" on="0"/>
      </contour>
      <contour>
        <pt x="1589" y="1536" on="1"/>
        <pt x="2229" y="1536" on="1"/>
        <pt x="1845" y="0" on="1"/>
        <pt x="1205" y="0" on="1"/>
      </contour>
      <contour>
        <pt x="663" y="1224" on="1"/>
        <pt x="620" y="1224" on="0"/>
        <pt x="560" y="1199" on="0"/>
        <pt x="522" y="1160" on="0"/>
        <pt x="501" y="1109" on="0"/>
        <pt x="492" y="1057" on="0"/>
        <pt x="490" y="1008" on="0"/>
        <pt x="490" y="990" on="1"/>
        <pt x="490" y="972" on="0"/>
        <pt x="492" y="923" on="0"/>
        <pt x="501" y="870" on="0"/>
        <pt x="522" y="819" on="0"/>
        <pt x="560" y="778" on="0"/>
        <pt x="620" y="753" on="0"/>
        <pt x="663" y="753" on="1"/>
        <pt x="706" y="753" on="0"/>
        <pt x="766" y="778" on="0"/>
        <pt x="804" y="819" on="0"/>
        <pt x="825" y="870" on="0"/>
        <pt x="835" y="923" on="0"/>
        <pt x="837" y="972" on="0"/>
        <pt x="837" y="990" on="1"/>
        <pt x="837" y="1008" on="0"/>
        <pt x="835" y="1057" on="0"/>
        <pt x="825" y="1109" on="0"/>
        <pt x="804" y="1160" on="0"/>
        <pt x="766" y="1199" on="0"/>
        <pt x="706" y="1224" on="0"/>
      </contour>
      <contour>
        <pt x="4169" y="-42" on="1"/>
        <pt x="4043" y="-42" on="0"/>
        <pt x="3822" y="27" on="0"/>
        <pt x="3657" y="174" on="0"/>
        <pt x="3562" y="406" on="0"/>
        <pt x="3562" y="570" on="1"/>
        <pt x="3562" y="728" on="0"/>
        <pt x="3657" y="951" on="0"/>
        <pt x="3822" y="1091" on="0"/>
        <pt x="4043" y="1155" on="0"/>
        <pt x="4169" y="1155" on="1"/>
        <pt x="4294" y="1155" on="0"/>
        <pt x="4516" y="1091" on="0"/>
        <pt x="4681" y="951" on="0"/>
        <pt x="4777" y="728" on="0"/>
        <pt x="4777" y="570" on="1"/>
        <pt x="4777" y="406" on="0"/>
        <pt x="4681" y="174" on="0"/>
        <pt x="4516" y="27" on="0"/>
        <pt x="4295" y="-42" on="0"/>
      </contour>
      <contour>
        <pt x="2797" y="-42" on="1"/>
        <pt x="2671" y="-42" on="0"/>
        <pt x="2450" y="27" on="0"/>
        <pt x="2285" y="174" on="0"/>
        <pt x="2190" y="406" on="0"/>
        <pt x="2190" y="570" on="1"/>
        <pt x="2190" y="728" on="0"/>
        <pt x="2285" y="951" on="0"/>
        <pt x="2450" y="1091" on="0"/>
        <pt x="2671" y="1155" on="0"/>
        <pt x="2797" y="1155" on="1"/>
        <pt x="2922" y="1155" on="0"/>
        <pt x="3144" y="1091" on="0"/>
        <pt x="3309" y="951" on="0"/>
        <pt x="3405" y="728" on="0"/>
        <pt x="3405" y="570" on="1"/>
        <pt x="3405" y="406" on="0"/>
        <pt x="3309" y="174" on="0"/>
        <pt x="3144" y="27" on="0"/>
        <pt x="2923" y="-42" on="0"/>
      </contour>
      <contour>
        <pt x="4169" y="804" on="1"/>
        <pt x="4126" y="804" on="0"/>
        <pt x="4066" y="779" on="0"/>
        <pt x="4028" y="740" on="0"/>
        <pt x="4007" y="689" on="0"/>
        <pt x="3998" y="637" on="0"/>
        <pt x="3996" y="588" on="0"/>
        <pt x="3996" y="570" on="1"/>
        <pt x="3996" y="552" on="0"/>
        <pt x="3998" y="503" on="0"/>
        <pt x="4007" y="450" on="0"/>
        <pt x="4028" y="399" on="0"/>
        <pt x="4066" y="358" on="0"/>
        <pt x="4126" y="333" on="0"/>
        <pt x="4169" y="333" on="1"/>
        <pt x="4212" y="333" on="0"/>
        <pt x="4272" y="358" on="0"/>
        <pt x="4310" y="399" on="0"/>
        <pt x="4331" y="450" on="0"/>
        <pt x="4341" y="503" on="0"/>
        <pt x="4343" y="552" on="0"/>
        <pt x="4343" y="570" on="1"/>
        <pt x="4343" y="588" on="0"/>
        <pt x="4341" y="637" on="0"/>
        <pt x="4331" y="689" on="0"/>
        <pt x="4310" y="740" on="0"/>
        <pt x="4272" y="779" on="0"/>
        <pt x="4212" y="804" on="0"/>
      </contour>
      <contour>
        <pt x="2797" y="804" on="1"/>
        <pt x="2754" y="804" on="0"/>
        <pt x="2694" y="779" on="0"/>
        <pt x="2656" y="740" on="0"/>
        <pt x="2635" y="689" on="0"/>
        <pt x="2626" y="637" on="0"/>
        <pt x="2624" y="588" on="0"/>
        <pt x="2624" y="570" on="1"/>
        <pt x="2624" y="552" on="0"/>
        <pt x="2626" y="503" on="0"/>
        <pt x="2635" y="450" on="0"/>
        <pt x="2656" y="399" on="0"/>
        <pt x="2694" y="358" on="0"/>
        <pt x="2754" y="333" on="0"/>
        <pt x="2797" y="333" on="1"/>
        <pt x="2840" y="333" on="0"/>
        <pt x="2900" y="358" on="0"/>
        <pt x="2938" y="399" on="0"/>
        <pt x="2959" y="450" on="0"/>
        <pt x="2969" y="503" on="0"/>
        <pt x="2971" y="552" on="0"/>
        <pt x="2971" y="570" on="1"/>
        <pt x="2971" y="588" on="0"/>
        <pt x="2969" y="637" on="0"/>
        <pt x="2959" y="689" on="0"/>
        <pt x="2938" y="740" on="0"/>
        <pt x="2900" y="779" on="0"/>
        <pt x="2840" y="804" on="0"/>
      </contour>
    </TTGlyph>
    <TTGlyph name="plus" xMin="58" yMin="256" xMax="1082" yMax="1280">
      <contour>
        <pt x="58" y="896" on="1"/>
        <pt x="442" y="896" on="1"/>
        <pt x="442" y="1280" on="1"/>
        <pt x="698" y="1280" on="1"/>
        <pt x="698" y="896" on="1"/>
        <pt x="1082" y="896" on="1"/>
        <pt x="1082" y="640" on="1"/>
        <pt x="698" y="640" on="1"/>
        <pt x="698" y="256" on="1"/>
        <pt x="442" y="256" on="1"/>
        <pt x="442" y="640" on="1"/>
        <pt x="58" y="640" on="1"/>
      </contour>
    </TTGlyph>
    <TTGlyph name="plusminus" xMin="61" yMin="0" xMax="1085" yMax="1408">
      <contour>
        <pt x="61" y="1024" on="1"/>
        <pt x="445" y="1024" on="1"/>
        <pt x="445" y="1408" on="1"/>
        <pt x="701" y="1408" on="1"/>
        <pt x="701" y="1024" on="1"/>
        <pt x="1085" y="1024" on="1"/>
        <pt x="1085" y="768" on="1"/>
        <pt x="701" y="768" on="1"/>
        <pt x="701" y="384" on="1"/>
        <pt x="445" y="384" on="1"/>
        <pt x="445" y="768" on="1"/>
        <pt x="61" y="768" on="1"/>
      </contour>
      <contour>
        <pt x="186" y="256" on="1"/>
        <pt x="954" y="256" on="1"/>
        <pt x="954" y="0" on="1"/>
        <pt x="186" y="0" on="1"/>
      </contour>
    </TTGlyph>
    <TTGlyph name="q" xMin="62" yMin="-407" xMax="1746" yMax="1446">
      <contour>
        <pt x="935" y="-407" on="1"/>
        <pt x="896" y="-375" on="0"/>
        <pt x="810" y="-293" on="0"/>
        <pt x="727" y="-194" on="0"/>
        <pt x="655" y="-77" on="0"/>
        <pt x="631" y="-9" on="1"/>
        <pt x="506" y="19" on="0"/>
        <pt x="297" y="133" on="0"/>
        <pt x="146" y="313" on="0"/>
        <pt x="62" y="561" on="0"/>
        <pt x="62" y="723" on="1"/>
        <pt x="62" y="918" on="0"/>
        <pt x="193" y="1193" on="0"/>
        <pt x="421" y="1366" on="0"/>
        <pt x="727" y="1446" on="0"/>
        <pt x="903" y="1446" on="1"/>
        <pt x="1078" y="1446" on="0"/>
        <pt x="1385" y="1366" on="0"/>
        <pt x="1614" y="1193" on="0"/>
        <pt x="1746" y="918" on="0"/>
        <pt x="1746" y="723" on="1"/>
        <pt x="1746" y="573" on="0"/>
        <pt x="1673" y="338" on="0"/>
        <pt x="1542" y="163" on="0"/>
        <pt x="1359" y="44" on="0"/>
        <pt x="1249" y="10" on="1"/>
        <pt x="1291" y="-42" on="0"/>
        <pt x="1377" y="-141" on="0"/>
        <pt x="1408" y="-176" on="1"/>
        <pt x="1408" y="-407" on="1"/>
      </contour>
      <contour>
        <pt x="903" y="1020" on="1"/>
        <pt x="893" y="1020" on="1"/>
        <pt x="836" y="1020" on="0"/>
        <pt x="759" y="990" on="0"/>
        <pt x="708" y="940" on="0"/>
        <pt x="680" y="877" on="0"/>
        <pt x="667" y="813" on="0"/>
        <pt x="664" y="751" on="0"/>
        <pt x="664" y="728" on="1"/>
        <pt x="664" y="705" on="0"/>
        <pt x="666" y="642" on="0"/>
        <pt x="678" y="573" on="0"/>
        <pt x="706" y="505" on="0"/>
        <pt x="759" y="451" on="0"/>
        <pt x="842" y="418" on="0"/>
        <pt x="903" y="418" on="1"/>
        <pt x="963" y="418" on="0"/>
        <pt x="1046" y="450" on="0"/>
        <pt x="1099" y="503" on="0"/>
        <pt x="1129" y="569" on="0"/>
        <pt x="1142" y="636" on="0"/>
        <pt x="1145" y="700" on="0"/>
        <pt x="1145" y="723" on="1"/>
        <pt x="1145" y="746" on="0"/>
        <pt x="1143" y="808" on="0"/>
        <pt x="1129" y="874" on="0"/>
        <pt x="1101" y="938" on="0"/>
        <pt x="1050" y="989" on="0"/>
        <pt x="970" y="1020" on="0"/>
        <pt x="913" y="1020" on="1"/>
      </contour>
    </TTGlyph>
    <TTGlyph name="question" xMin="65" yMin="-1" xMax="1347" yMax="1576">
      <contour>
        <pt x="706" y="1087" on="1"/>
        <pt x="706" y="1118" on="0"/>
        <pt x="685" y="1165" on="0"/>
        <pt x="650" y="1197" on="0"/>
        <pt x="603" y="1214" on="0"/>
        <pt x="578" y="1214" on="1"/>
        <pt x="521" y="1214" on="0"/>
        <pt x="409" y="1161" on="0"/>
        <pt x="366" y="1104" on="1"/>
        <pt x="65" y="1104" on="1"/>
        <pt x="65" y="1450" on="1"/>
        <pt x="99" y="1467" on="0"/>
        <pt x="177" y="1499" on="0"/>
        <pt x="222" y="1513" on="1"/>
        <pt x="300" y="1537" on="0"/>
        <pt x="515" y="1576" on="0"/>
        <pt x="657" y="1576" on="1"/>
        <pt x="814" y="1576" on="0"/>
        <pt x="1069" y="1519" on="0"/>
        <pt x="1249" y="1399" on="0"/>
        <pt x="1347" y="1214" on="0"/>
        <pt x="1347" y="1087" on="1"/>
        <pt x="1347" y="977" on="0"/>
        <pt x="1276" y="822" on="0"/>
        <pt x="1153" y="716" on="0"/>
        <pt x="989" y="650" on="0"/>
        <pt x="895" y="629" on="1"/>
        <pt x="895" y="512" on="1"/>
        <pt x="258" y="512" on="1"/>
        <pt x="257" y="511" on="0"/>
        <pt x="255" y="511" on="1"/>
        <pt x="255" y="856" on="1"/>
        <pt x="271" y="863" on="0"/>
        <pt x="350" y="884" on="0"/>
        <pt x="450" y="912" on="0"/>
        <pt x="559" y="949" on="0"/>
        <pt x="648" y="995" on="0"/>
        <pt x="706" y="1052" on="0"/>
      </contour>
      <contour>
        <pt x="255" y="383" on="1"/>
        <pt x="895" y="383" on="1"/>
        <pt x="895" y="-1" on="1"/>
        <pt x="255" y="-1" on="1"/>
      </contour>
    </TTGlyph>
    <TTGlyph name="questiondown" xMin="54" yMin="-40" xMax="1336" yMax="1537">
      <contour>
        <pt x="1146" y="1153" on="1"/>
        <pt x="506" y="1153" on="1"/>
        <pt x="506" y="1537" on="1"/>
        <pt x="1146" y="1537" on="1"/>
      </contour>
      <contour>
        <pt x="695" y="449" on="1"/>
        <pt x="695" y="418" on="0"/>
        <pt x="716" y="371" on="0"/>
        <pt x="751" y="339" on="0"/>
        <pt x="797" y="322" on="0"/>
        <pt x="823" y="322" on="1"/>
        <pt x="880" y="322" on="0"/>
        <pt x="992" y="375" on="0"/>
        <pt x="1035" y="432" on="1"/>
        <pt x="1336" y="432" on="1"/>
        <pt x="1336" y="86" on="1"/>
        <pt x="1270" y="51" on="0"/>
        <pt x="1179" y="23" on="1"/>
        <pt x="1101" y="-1" on="0"/>
        <pt x="886" y="-40" on="0"/>
        <pt x="744" y="-40" on="1"/>
        <pt x="586" y="-40" on="0"/>
        <pt x="331" y="17" on="0"/>
        <pt x="151" y="137" on="0"/>
        <pt x="54" y="321" on="0"/>
        <pt x="54" y="449" on="1"/>
        <pt x="54" y="559" on="0"/>
        <pt x="125" y="714" on="0"/>
        <pt x="248" y="820" on="0"/>
        <pt x="412" y="886" on="0"/>
        <pt x="506" y="907" on="1"/>
        <pt x="506" y="1024" on="1"/>
        <pt x="1143" y="1024" on="1"/>
        <pt x="1144" y="1025" on="0"/>
        <pt x="1146" y="1025" on="1"/>
        <pt x="1146" y="680" on="1"/>
        <pt x="1130" y="673" on="0"/>
        <pt x="1051" y="652" on="0"/>
        <pt x="951" y="624" on="0"/>
        <pt x="842" y="587" on="0"/>
        <pt x="753" y="541" on="0"/>
        <pt x="695" y="483" on="0"/>
      </contour>
    </TTGlyph>
    <TTGlyph name="quotedbl" xMin="73" yMin="908" xMax="842" yMax="1536">
      <contour>
        <pt x="842" y="1413" on="1"/>
        <pt x="792" y="908" on="1"/>
        <pt x="576" y="908" on="1"/>
        <pt x="526" y="1413" on="1"/>
        <pt x="526" y="1536" on="1"/>
        <pt x="842" y="1536" on="1"/>
      </contour>
      <contour>
        <pt x="389" y="1413" on="1"/>
        <pt x="339" y="908" on="1"/>
        <pt x="123" y="908" on="1"/>
        <pt x="73" y="1413" on="1"/>
        <pt x="73" y="1536" on="1"/>
        <pt x="389" y="1536" on="1"/>
      </contour>
    </TTGlyph>
    <TTGlyph name="quotedblbase" xMin="103" yMin="-452" xMax="1511" yMax="512">
      <contour>
        <pt x="871" y="512" on="1"/>
        <pt x="1511" y="512" on="1"/>
        <pt x="1511" y="1" on="1"/>
        <pt x="1511" y="-126" on="0"/>
        <pt x="1423" y="-299" on="0"/>
        <pt x="1279" y="-406" on="0"/>
        <pt x="1095" y="-452" on="0"/>
        <pt x="999" y="-452" on="1"/>
        <pt x="999" y="-128" on="1"/>
        <pt x="1018" y="-127" on="0"/>
        <pt x="1062" y="-115" on="0"/>
        <pt x="1100" y="-87" on="0"/>
        <pt x="1126" y="-38" on="0"/>
        <pt x="1126" y="0" on="1"/>
        <pt x="871" y="0" on="1"/>
      </contour>
      <contour>
        <pt x="103" y="512" on="1"/>
        <pt x="743" y="512" on="1"/>
        <pt x="743" y="1" on="1"/>
        <pt x="743" y="-126" on="0"/>
        <pt x="655" y="-299" on="0"/>
        <pt x="511" y="-406" on="0"/>
        <pt x="327" y="-452" on="0"/>
        <pt x="231" y="-452" on="1"/>
        <pt x="231" y="-128" on="1"/>
        <pt x="250" y="-127" on="0"/>
        <pt x="294" y="-115" on="0"/>
        <pt x="332" y="-87" on="0"/>
        <pt x="358" y="-38" on="0"/>
        <pt x="358" y="0" on="1"/>
        <pt x="103" y="0" on="1"/>
      </contour>
    </TTGlyph>
    <TTGlyph name="quotedblleft" xMin="107" yMin="640" xMax="1515" yMax="1576">
      <contour>
        <pt x="1515" y="640" on="1"/>
        <pt x="875" y="640" on="1"/>
        <pt x="875" y="1151" on="1"/>
        <pt x="875" y="1269" on="0"/>
        <pt x="963" y="1432" on="0"/>
        <pt x="1107" y="1532" on="0"/>
        <pt x="1291" y="1576" on="0"/>
        <pt x="1387" y="1576" on="1"/>
        <pt x="1387" y="1280" on="1"/>
        <pt x="1367" y="1279" on="0"/>
        <pt x="1322" y="1267" on="0"/>
        <pt x="1285" y="1239" on="0"/>
        <pt x="1260" y="1190" on="0"/>
        <pt x="1260" y="1152" on="1"/>
        <pt x="1515" y="1152" on="1"/>
      </contour>
      <contour>
        <pt x="747" y="640" on="1"/>
        <pt x="107" y="640" on="1"/>
        <pt x="107" y="1151" on="1"/>
        <pt x="107" y="1269" on="0"/>
        <pt x="195" y="1432" on="0"/>
        <pt x="339" y="1532" on="0"/>
        <pt x="523" y="1576" on="0"/>
        <pt x="619" y="1576" on="1"/>
        <pt x="619" y="1280" on="1"/>
        <pt x="599" y="1279" on="0"/>
        <pt x="554" y="1267" on="0"/>
        <pt x="517" y="1239" on="0"/>
        <pt x="492" y="1190" on="0"/>
        <pt x="492" y="1152" on="1"/>
        <pt x="747" y="1152" on="1"/>
      </contour>
    </TTGlyph>
    <TTGlyph name="quotedblright" xMin="69" yMin="572" xMax="1477" yMax="1536">
      <contour>
        <pt x="837" y="1536" on="1"/>
        <pt x="1477" y="1536" on="1"/>
        <pt x="1477" y="1025" on="1"/>
        <pt x="1477" y="898" on="0"/>
        <pt x="1389" y="725" on="0"/>
        <pt x="1245" y="618" on="0"/>
        <pt x="1061" y="572" on="0"/>
        <pt x="965" y="572" on="1"/>
        <pt x="965" y="896" on="1"/>
        <pt x="984" y="897" on="0"/>
        <pt x="1028" y="909" on="0"/>
        <pt x="1066" y="937" on="0"/>
        <pt x="1092" y="986" on="0"/>
        <pt x="1092" y="1024" on="1"/>
        <pt x="837" y="1024" on="1"/>
      </contour>
      <contour>
        <pt x="69" y="1536" on="1"/>
        <pt x="709" y="1536" on="1"/>
        <pt x="709" y="1025" on="1"/>
        <pt x="709" y="898" on="0"/>
        <pt x="621" y="725" on="0"/>
        <pt x="477" y="618" on="0"/>
        <pt x="293" y="572" on="0"/>
        <pt x="197" y="572" on="1"/>
        <pt x="197" y="896" on="1"/>
        <pt x="216" y="897" on="0"/>
        <pt x="260" y="909" on="0"/>
        <pt x="298" y="937" on="0"/>
        <pt x="324" y="986" on="0"/>
        <pt x="324" y="1024" on="1"/>
        <pt x="69" y="1024" on="1"/>
      </contour>
    </TTGlyph>
    <TTGlyph name="quoteleft" xMin="107" yMin="640" xMax="747" yMax="1576">
      <contour>
        <pt x="747" y="640" on="1"/>
        <pt x="107" y="640" on="1"/>
        <pt x="107" y="1151" on="1"/>
        <pt x="107" y="1269" on="0"/>
        <pt x="195" y="1432" on="0"/>
        <pt x="339" y="1532" on="0"/>
        <pt x="523" y="1576" on="0"/>
        <pt x="619" y="1576" on="1"/>
        <pt x="619" y="1280" on="1"/>
        <pt x="599" y="1279" on="0"/>
        <pt x="554" y="1267" on="0"/>
        <pt x="517" y="1239" on="0"/>
        <pt x="492" y="1190" on="0"/>
        <pt x="492" y="1152" on="1"/>
        <pt x="747" y="1152" on="1"/>
      </contour>
    </TTGlyph>
</ttFont>
